<?xml version="1.0" encoding="utf-8"?>
<!-- Generator: Adobe Illustrator 19.2.1, SVG Export Plug-In . SVG Version: 6.00 Build 0)  -->
<svg version="1.1" id="layer" xmlns="http://www.w3.org/2000/svg" xmlns:xlink="http://www.w3.org/1999/xlink" x="0px" y="0px"
	 viewBox="0 0 652 652" style="enable-background:new 0 0 652 652;" xml:space="preserve">
<style type="text/css">
	.st0{fill:#F2940A;}
	.st1{fill:#232E66;}
	.st2{fill:#FAD50A;}
	.st3{fill:none;}
	.st4{fill:url(#SVGID_1_);}
	.st5{fill:url(#SVGID_2_);}
	.st6{fill:url(#SVGID_3_);}
	.st7{fill:url(#SVGID_4_);}
	.st8{fill:url(#SVGID_5_);}
	.st9{fill:#FFFFFF;}
	.st10{fill:#DB0A40;}
	.st11{fill:#D2003C;}
</style>
<g>
	<path class="st0" d="M146.7,288l-0.8,0.4c-2.7,1.9-3.4,4.4-3.1,4.6l5.1-2.9c7.3-3,17.8-6.7,21.2-7.2C169,282.9,155,283.7,146.7,288
		 M191.8,286.8c-6-1.2-12.2-1.5-18.4-0.9c-14.3,1.5-21.1,3.6-24.5,4.9l-7.6,2.7l-1.8,2l5.6-0.5l6-2.3c2.2-0.8,4.7-1.5,7.7-2.2
		C172.7,287.2,194.8,287.6,191.8,286.8 M237.8,315.4c-0.4-4.7-1.3-9.4-2.7-13.9l-0.9-2.6c-1.8-4.7-4.2-9.2-7.1-13.3
		c-3.7-4.9-7.7-10.4-23.8-15.1c15.3,3.7,16.5,5.6,18.5,7l-2.4-2.3c-11.7-8.6-30-12.7-48.1-9.3c11.3-3.7,29.9-3.2,41.5,4
		c-12.3-7.7-21.2-8.7-30-9.4c-1.3-0.1-2.9-0.2-4.6-0.2c-15.6,0-34.6,7.9-44.3,16.7c-0.9,0.8-1.6,1.5-2.2,2.1c-3,3.5-1,5.9,0.4,6.7
		c0.5,0.3-0.1,5.5,0.4,5.8c1.6,1,7.1-5.4,9.6-6.5c17-7.4,35.8-9.5,54-6c19.9,5.6,28.4,15,28.9,15.7c0.6,0.7,3.9,4.1,3.8,5.4
		c-0.2,0.2-0.5,0.2-0.7,0.1c-0.6-0.5-1.1-1-1.6-1.5c-0.1,0-0.2-0.1-0.3-0.2c-3.4-3-7.2-5.5-11.2-7.4c-6.1-2.6-13.1-3.3-19-4.9
		c6.8,2.7,14.1,3.6,20.5,7.2c7.7,4.3,13.2,12,13.2,12.1c5.2,6.8,7.6,15.3,6.7,23.7c0,0.2,0.1,0.4,0,0.6l0,0.1v0.1
		c-0.2,1.7-0.5,3.5-0.9,5.2c-0.2,1-0.6,2-0.9,3.3l0.1-0.1C237.3,331.2,238.4,323.3,237.8,315.4 M207.1,285.4l0.7,0
		c0.3-0.5-3.2-1.8-4.5-2.1c-1.7-0.5-3.5-1-5.3-1.3c0.1,0-0.6,0.2,3.2,1.4C202.1,283.8,201.4,284.8,207.1,285.4"/>
	<path class="st1" d="M225.5,314.9c-0.4-0.2-0.9-0.4-1.3-0.5L225.5,314.9"/>
	<path class="st2" d="M236.4,329.5c0.8-8.5-1.6-17-6.7-23.7c-0.1-0.1-5.6-7.8-13.2-12.1c-6.4-3.7-13.6-4.5-20.5-7.2
		c6,1.6,13,2.3,19,4.9c4.1,1.9,7.9,4.4,11.3,7.4l0.3,0.2c0.5,0.5,1,1,1.6,1.5c0.3,0.1,0.5,0.1,0.7-0.1c0.1-1.4-3.2-4.7-3.8-5.4
		c-0.6-0.7-7.9-11.9-27.8-17.5c-25-4.8-46.2,3.8-55.2,7.8c-2.5,1.3-3.8,6.1-3.1,6.7c0.6,0.5,3.1-0.8,7-3.5l0.8-0.4
		c8.3-4.3,22.3-5.1,22.4-5.1c-3.5,0.5-13.9,4.1-21.2,7.2l-3,1.3l-1.7,1.7l5.7-2.2c3.4-1.4,10.3-3.4,24.5-4.9
		c6.1-0.7,12.4-0.4,18.4,0.9c3,0.8-19.1,0.4-33.1,3.7c-3,0.7-5.5,1.4-7.7,2.2l-8.8,2.5c0.9,0.9,5.7,7,7.1,8.7l2.4,1.4
		c0.3,0.3,2.3,1,2.5,1.3l2.8-1.3c0.5,0.6-2.5,2-2.2,2.5c0.6,0.7,2.4-2.5,5.5-4.5c17.8-9.1,31.8-9.4,38.4-9.2
		c1.2,0.1,2.3,0.3,3.4,0.6c1,0.5-7.3,0.9-5.3,1.5c1.8,0.5,6.4-0.7,6.8-0.8c0.2,0,0.4,0,0.5-0.1c0.2-0.1,0.4-0.1,0.6-0.1
		c1.8,0,3.5,0.1,5.2,0.3c4.7,1.1,0.3,1.7-1.3,1.4c-0.8-0.1-1.6,0-2.5,0.1c-0.6,0.2-1.8,0.3-2.4,0.4c-0.9,0.2-2.6,0.4-3.4,0.6
		c-0.5,0.1-6.1-0.1-5.2,0.7c0.2,0,4.3,0.3,4.9,0.6c0.7,0.1,1.3,0.1,2,0.1c0.5-0.1,1-0.1,1.4-0.1c0.3,0,0.5-0.1,0.7-0.2
		c0.3-0.2,0.7-0.3,1.1-0.2c0.3,0,0.8,0.2,0.7,0.4c-0.9,2.1-2.4,1.9-5.2,1.7c-1.6-0.2-3.2-0.2-4.8-0.1c-3.2,0.3-6.6,1.7-7.2,1.2
		c-0.4-0.3,3.8-2,2.6-2.2c-1.9-0.3-16.5,4.9-17.3,6.9h0.1c-0.1,0.3,0.1,0.4,0.3,0.5c0.8,0.2,3.8-1,4.6-1c0.9,0.1,1.2-0.4,2.1-0.4
		c0.7,0,3.1-1.2,3.8-1.2c1.3,0,1.8,0.6,3.1,0.4c1-0.3,2.4-0.1,3.4-0.5c1-0.3,2-0.7,3-0.9c0.3-0.1,0.5-0.1,0.7-0.2l1-0.2
		c0.3,0,2,0.7,1.9,0.9c2.3,1.3,2.9,2.4,4.8,2.5h0.8l1.3-0.3l1.7-0.3c0.8-0.1,1.7-0.1,2.5,0c0.8,0,1.5,0.3,2.2,0.4
		c0.9,0.1-0.2,0.7-0.5,0.9c-1.1,0.7-2.2,1.2-3.3,1.6c-0.7,0.4-1.5,0.5-2.3,0.5c-0.4,0-0.8,0.1-1.2,0.2c-0.3,0.1-0.5,0.2-0.8,0.2
		l-0.8,0c-0.4,0-0.7,0-1.1,0l-0.4,0.1l-0.4,0c-0.3,0-0.5,0-0.8,0.1c-0.2,0.1-0.4,0.2-0.6,0.2h-0.3c-0.3,0-0.6,0-0.8,0.1
		c-0.7,0.3-1.4,0.4-2.2,0.3c-0.1,0.1-5.2,0.4-5.2,0.4c-0.4,0.2-0.8,0.3-1.3,0.5c-0.9,0.4-1.8,0.8-2.8,1.2c-0.2,0.1-0.4,0-0.6,0.1
		l-1.8,0.5l-0.8,0.6c-0.4,0.3-0.8,0.4-1.2,0.5c-0.3,0.1-0.6,0.2-1,0.2c-0.3,0.1-0.5,0.2-0.7,0.4c-0.2,0.2-0.5,0.1-0.7,0.2
		c-0.5,0.3-6.8,2.4-7.3,2.6l-0.6,0.3c-0.3,0.2-0.6,0.4-0.9,0.6c-0.2,0.3-0.2,0.7-0.1,1h-0.1h0.1v0.1c0.6,0.2,1.1,0.2,1.7,0.1
		c0.2,0,0.4-0.1,0.6-0.1c0.3-0.1,0.6-0.1,0.9-0.1c0.6-0.1,1.2-0.4,1.8-0.7c6.8-1.5,18.2-6.2,29.4-7c0.1,0,11.9-0.5,19.8,3.1
		c2.3,1.1,13.3,7.2,8.9,24.7v0.2h0l0.3-0.9l0-0.1l-0.1,0.1c0.4-1.2,0.7-2.3,0.9-3.3c0.4-1.7,0.7-3.4,0.9-5.1v-0.2
		C236.4,329.9,236.3,329.7,236.4,329.5 M198,282c1.8,0.3,3.6,0.8,5.3,1.3c1.3,0.3,4.7,1.6,4.5,2.1l-0.7,0c-5.7-0.6-5-1.6-5.9-1.9
		C197.4,282.3,198,282,198,282 M194.1,306.5l0.5-0.3c-2.2,0.1-4.3,0.5-6.3,1.2c-1.1,0.4-2.2,1-3.2,1.6c-0.3,0.5,0.3,0.7,0.4,0.8
		C187.2,310.2,187.3,309.6,194.1,306.5"/>
	<path class="st3" d="M206.5,337.6c0.7-0.3,1.5-0.3,2.2,0.1c2.1-2.6,4.3-3.7,6.1-6.5l1.8-2.8c1.6-2.8,1.7-5.6,2.3-7.7l-0.4,0.6
		c-0.1,0.1-0.9,3.4-2.6,3.4c-0.6,0-1.9-0.3-1.7-0.9c-1.3,4.4-5.1,6.3-6.8,10C209,334.5,206.3,336.3,206.5,337.6z"/>
	
		<linearGradient id="SVGID_1_" gradientUnits="userSpaceOnUse" x1="-917.3726" y1="-13409.96" x2="-744.2286" y2="-13287.1719" gradientTransform="matrix(6.999969e-002 0 0 -9.998322e-003 214.4801 216.5092)">
		<stop  offset="0" style="stop-color:#52BCE8"/>
		<stop  offset="0.1372" style="stop-color:#50B6E3"/>
		<stop  offset="0.3237" style="stop-color:#4AA4D3"/>
		<stop  offset="0.5384" style="stop-color:#3F88BA"/>
		<stop  offset="0.7723" style="stop-color:#316097"/>
		<stop  offset="1" style="stop-color:#21336E"/>
	</linearGradient>
	<path class="st4" d="M149,350.7c0,0,0.1,0,0.1,0l0.1,0C149.1,350.7,149,350.7,149,350.7L149,350.7z"/>
	
		<linearGradient id="SVGID_2_" gradientUnits="userSpaceOnUse" x1="-398.8232" y1="455.896" x2="-395.562" y2="455.896" gradientTransform="matrix(16.96 0 0 -7.67 -2747.7705 3866.271)">
		<stop  offset="0" style="stop-color:#52BCE8"/>
		<stop  offset="0.1372" style="stop-color:#50B6E3"/>
		<stop  offset="0.3237" style="stop-color:#4AA4D3"/>
		<stop  offset="0.5384" style="stop-color:#3F88BA"/>
		<stop  offset="0.7723" style="stop-color:#316097"/>
		<stop  offset="1" style="stop-color:#21336E"/>
	</linearGradient>
	<path class="st5" d="M218.3,359.8c-2.9,2-5.9,3.9-8.9,5.8c-9.4,6-19.4,11.2-31,13.2c-1,0.2-2,0.3-3.1,0.4h0
		c9-0.7,14.1-1.4,22.6-5.5C205.4,370.2,214.3,363.2,218.3,359.8z"/>
	
		<linearGradient id="SVGID_3_" gradientUnits="userSpaceOnUse" x1="-397.5145" y1="468.8713" x2="-394.2538" y2="468.8713" gradientTransform="matrix(35.268 0 0 -19.7263 -5983.4165 9586.2939)">
		<stop  offset="0" style="stop-color:#52BCE8"/>
		<stop  offset="0.1372" style="stop-color:#50B6E3"/>
		<stop  offset="0.3237" style="stop-color:#4AA4D3"/>
		<stop  offset="0.5384" style="stop-color:#3F88BA"/>
		<stop  offset="0.7723" style="stop-color:#316097"/>
		<stop  offset="1" style="stop-color:#21336E"/>
	</linearGradient>
	<path class="st6" d="M143.3,355.8c0.7,0.5,1.5,0.9,2.3,1.3c6.5,3.4,15.9,5.3,11.3,3.2c-9.6-5.4-2.6-1.8,5.8,0.2
		c6.2,1.5,12.5,2.1,18.9,1.6c10-3.9,18.4-9.4,23.2-14.6c-0.9,0.6-1.9,1.2-2.9,1.7c-0.1,0.1-9.7,2.8,2.8-6.2
		c9.4-6.7,16.1-15.7,18.6-27.1c0.2-0.6,0.5-1.1,0.8-1.6l1,0.4c-0.8,3.6-1.6,6.7-2.6,10.2c0.9-1.2,1.5-1.5,2.4-2.7
		c-2.2,8.3-7.3,13.9-12.9,20.1c-1.5,1.7,2.2-0.1-1,3.3c0.8-0.8,0.6-0.4,1.2-0.1c2.5-3.2,6.6-3.4,9-6.8c6-9.2,8.1-14.3,9.6-20
		l0.1,0.2v-0.1c-1.4-1.5-3.1-2.8-5-3.8c-2.6-1.3-5.4-2.1-8.3-2.5c-0.5-0.1-1.1-0.2-1.6-0.3c-4,9.6-4.6,16.2-13.5,21.5
		c-9.9,6.4-3.7,4.8-3.6,4.7c0.8-0.3,1.5-0.7,2.2-1.2c-3.8,6.1-10.5,10-18.5,11.8c-0.2,0.6-2.9,0.5-3.4,0.9c-0.4,0.5-1,0.9-1.6,0.9
		c0.3,0.8-1.6,1.1-2.2,1.9c-0.8,1,0.7,1.4-1,1.5l-1.4-0.7c-6.1,0-8.7-1.9-10.7-3.6l-4.1,0.1c-0.7,0.5-2.8,0.5-4.2,1.1
		c-0.3,0-0.7-0.1-0.9-0.3c-0.6-0.3-1.3-0.6-1.6,0c-0.3,0.7-1.6,0.1-2.1-0.1c-0.3,0.2-2.3,1-1.8,1.1c-2.3-0.4-1.5,0.3-3.7,1.1
		l-2.1,0.1C140.9,353.1,141.2,354.4,143.3,355.8z M207.3,333.8c1.7-3.6,5.6-5.6,6.8-10c-0.2,0.7,1.2,0.9,1.7,0.9
		c1.7,0,2.4-3.2,2.5-3.4l0.4-0.6c-0.6,2.1-0.7,4.9-2.3,7.7l-1.8,2.8c-1.9,2.8-4.1,3.9-6.1,6.5c-0.7-0.4-1.5-0.4-2.2-0.1
		C206.3,336.3,209,334.6,207.3,333.8z"/>
	
		<linearGradient id="SVGID_4_" gradientUnits="userSpaceOnUse" x1="-399.4093" y1="423.7198" x2="-396.1498" y2="423.7198" gradientTransform="matrix(18.932 0 0 -2.927 -3106.7461 1611.7366)">
		<stop  offset="0" style="stop-color:#52BCE8"/>
		<stop  offset="0.1372" style="stop-color:#50B6E3"/>
		<stop  offset="0.3237" style="stop-color:#4AA4D3"/>
		<stop  offset="0.5384" style="stop-color:#3F88BA"/>
		<stop  offset="0.7723" style="stop-color:#316097"/>
		<stop  offset="1" style="stop-color:#21336E"/>
	</linearGradient>
	<path class="st7" d="M193.1,367.8c-4.3,1.1-8.6,2.3-12.9,3.4c-4.6,1.3-9.5,3-23.4,1.7h-0.3c-2,0.3-4,0.3-6,0.2
		c-2-0.1-5.5-0.7-5.5-0.7c0.1,0,0.8,0.3,1.3,0.5h-0.1c0,0,1.8-0.3,8,1c2.5,0.5,4.9,0.6,7.4,0.9h0.2c1.9,0.3,3.7,0.3,5.6,0.3
		c4.6-0.3,9.1-1,13.5-2.3C188.4,370.9,193.7,368.1,193.1,367.8L193.1,367.8z"/>
	
		<linearGradient id="SVGID_5_" gradientUnits="userSpaceOnUse" x1="174.149" y1="470.3395" x2="176.4865" y2="470.3395" gradientTransform="matrix(42.06 0 0 -26.61 -7183.7407 12863.7412)">
		<stop  offset="0" style="stop-color:#1885C8"/>
		<stop  offset="0.1324" style="stop-color:#197FC1"/>
		<stop  offset="0.326" style="stop-color:#1A70AD"/>
		<stop  offset="0.5573" style="stop-color:#1C578D"/>
		<stop  offset="0.8153" style="stop-color:#1F3461"/>
		<stop  offset="0.9992" style="stop-color:#22183D"/>
		<stop  offset="1" style="stop-color:#22183D"/>
	</linearGradient>
	<path class="st8" d="M235.4,330.6l0-0.3l-0.1-0.9v-0.3c0-0.3-0.1-0.6-0.2-0.9l0-0.2c-0.1-0.3-0.1-0.7-0.2-1l-0.1-0.5l-0.1-0.5
		c-0.1-0.3-0.2-0.6-0.3-0.9l-0.3-0.6c-0.1-0.3-0.2-0.6-0.4-0.9c0-0.1,0-0.1-0.1-0.2l-0.3-0.7c-0.7-1.5-1.7-2.8-2.8-4.1
		c-1.5,5.8-3.6,10.9-9.6,20c-2.3,3.5-6.4,3.7-9,6.8c-0.6-0.3-0.4-0.8-1.2,0.1c3.2-3.4-0.5-1.7,1-3.3c5.6-6.2,10.7-11.7,12.9-20.1
		c-0.9,1.1-1.4,1.5-2.4,2.7c1-3.6,1.9-6.6,2.6-10.2l-1-0.4c-0.4,0.5-0.6,1-0.8,1.6c-2.5,11.4-9.2,20.3-18.6,27.1
		c-12.5,8.9-2.9,6.2-2.8,6.2c1-0.5,2-1,2.9-1.7c-4.7,5.3-13.2,10.8-23.2,14.6c-16.8,6.5-38,8.3-52.8-3.8c3.2,3.3,6.8,6.2,10.7,8.7
		c-2.2-0.4-3.8-2.1-5.9-2.8c0.1,0.1,5.1,6.7,20.3,8.5l3,0.3c13.9,1.3,18.8-0.5,23.3-1.8c4.3-1.1,8.6-2.3,12.9-3.4
		c0.7,0.3-4.7,3-12,5.1c-4.4,1.3-8.9,2.1-13.5,2.3c-1.9,0.1-3.8,0-5.6-0.2h-0.2c-2.5-0.3-5-0.5-7.4-1c-6.3-1.3-8-1-8-1
		s0.9,0.5,9.6,3.6c-0.5,0.2-3.1,0.5-13.7-4c0.1,0.1,12.7,6.1,19.9,6.8c5.4,0.5,10.9,0.4,16.2-0.6c11.6-2,21.6-7.2,31-13.2
		c3.3-2.1,6.6-4.3,9.8-6.4l-0.1,0.3l0.7,0.1c-0.1,0.4-0.1,0.4-1.9,2.5c3.9-3.1,5.8-8,10-10.9c-0.3,0.8-0.7,1.5-1.2,2.2l-0.4,0.6
		c-2.1,3.1-4.5,5.9-7.2,8.5l-0.3,0.3l-0.8,0.7c-9,8.3-20,14.1-32,16.8c1.1-0.1,2.2-0.4,3.3-0.7c-2,0.6-2,0.6-2.8,0.9l3.2-0.6
		c-1.5,0.8-3.3,1.1-7.7,2c15.6-2.7,28.6-9.3,38.1-19.2c0.4-0.4,3-3.2,3.8-4.2c3.9-4.5,7.1-9.7,9.2-15.3c0.4-1.2,0.8-2.4,1.1-3.7
		c0.1-0.4,0.2-0.7,0.3-1.1c0.4-2.3,0.4-2.3,0.6-3.7v-0.1c0.1-0.9,0.1-1.7,0.1-2.6v-0.3L235.4,330.6L235.4,330.6z"/>
	<path class="st9" d="M179.1,345.7c-1.5-0.9-2.7-2.2-3.6-3.8c-0.3-0.5-0.6-1.1-0.9-1.6l-0.4-0.6c-0.5-1-1.2-2-2-2.8l-0.7-0.8
		l-0.6-0.7c-0.1-0.2-0.3-0.4-0.4-0.6c-3.1-8-3.9-12.6-5-20.5c-0.6-4.1-3.1-7.5-7.2-12.4l-1.7-2.1l-1.3-1.7c-1-1.3-2.1-2.6-3.3-3.8
		l-3.9-3.3l-4.4-3.7c-2.1-1.7-4.3-3.4-6.5-4.9c-2.8-2-6.2-3.1-9.6-3.1c-2.4-0.1-4.7,0.5-6.8,1.7c-2.3,1.7-4.8,3.1-7.5,4.2
		c-1.8,0.8-3.6,1.3-6,2.1l-2.4,0.8c-2.2,0.8-4.2,2-5.9,3.7l-0.9,0.9c-0.3,0.3-0.6,0.6-0.9,0.9c-0.4,0.4-0.9,0.8-1.4,1
		c-0.7,0.2-1.3,0.3-2,0.3l-1.5,0.1l-1.1,0.1c-3,0.2-5.5,1.9-7.1,3.2c-0.8,0.7-1.6,1.4-2.3,2l-0.3,0.3c-0.7,0.7-1.4,1.3-2.2,1.8
		c-2.2,1.4-4.2,1.6-6.4,1.8c-1.2,0.1-2.4,0.3-3.6,0.5c-1.5,0.3-3,0.8-4.4,1.5c-1.8,0.9-3.6,2-5.3,3.1l-2.6,1.9l-2.2,1.6
		c-3.4,2.4-6.3,3.9-9.4,3.9c-3.1,0-5.3-1.8-5.6-4.6c-0.3-2.5,1-4.9,3.6-7l1.4-1.1c1-0.8,2-1.6,2.9-2.4c1.2-1,2.3-2.1,3.3-3.3
		c1.9-2.4,2.5-5.5,1.6-8.4c-0.8-3-3-5-7-6.2c-1.4-0.4-2.8-0.7-4.2-0.9l-0.5-0.1c-0.4,0-0.7-0.1-1.1-0.2c-0.3,0-0.6-0.1-0.9-0.2
		c-2.7-1.4-5.3-3-7.8-4.7l-0.4-0.3l-0.3,0.4c-0.9,1.2-1.5,2.2-2,6.4c-0.6,4.7,3.3,10.4,10,11.5c0.4,0.1,0.7,0.3,0.8,0.7
		c0.1,0.4,0,0.8-0.3,1c-7.1,5.6-8.5,7.9-8.9,14.2c-0.2,3.8,1.1,7.6,3.7,10.4c3.1,3.1,7.4,4.8,11.8,4.6c1.4,0,2.9-0.1,4.3-0.4
		c0.5,0,0.9,0.4,0.9,0.9c0.4,4.3,1.1,7.9,2.1,9.4c0.3,0.4,0.2,0.9-0.2,1.2c-0.4,0.4-0.9,0.6-1.4,0.8c-1.9,0.7-4,1-6,1
		c-1.4,0-2.5,1-3.3,3.1c-0.3,0.7-0.5,1.4-0.7,2.1l-0.1,0.2l-0.3,1c-0.1,0.3-0.2,0.5-0.3,0.7c-0.3,0.6-0.8,1.1-1.3,1.5
		c-0.2,0.2-0.4,0.2-0.6,0.2h-0.2c-0.3-0.1-0.5-0.2-0.7-0.5c-0.7-1.2-1.9-2.1-3.2-2.3h-0.2c-3.2,0.3-6,2.3-7.3,5.2
		c-0.1,0.3-0.4,0.5-0.8,0.6l-0.2,0c-1.5,0.1-2.9,1.1-3.4,2.5c-0.3,0.7-0.4,1.3-0.5,2l-0.1,0.5c-0.1,0.5-0.2,1.1-0.3,1.6
		c-0.1,0.4-0.3,0.8-0.5,1.2l-0.3,0.6l-0.3,0.4c-0.4,0.8-0.5,1.8-0.3,2.7c0.2,0.7,0.7,1.2,1.3,1.4c0.7,0.3,1.4,0.6,2.1,0.8
		c1.1,0.3,2.2,0.4,3.3,0.5c0.2,0,0.4-0.1,0.6-0.2l0.4-0.3c0.2-0.2,0.5-0.2,0.8-0.2l0.7,0.1l2,0.4h0.1l1.9,0.4l0.8,0.2l0.5,0
		c3-0.2,4.2-1.3,5-2.4c0.2-0.3,0.5-0.7,0.7-1l0.3-0.6l0.3-0.4c0.3-0.4,0.5-0.8,0.8-1.2c0.2-0.3,0.5-0.4,0.8-0.4l0.3,0l1,0.2l1.6,0.2
		h0.6c2.8,0,4.9-1.5,6.6-3l0.6-0.5l0.8-0.7c0.4-0.4,0.8-0.7,1.3-1c0.7-0.5,1.4-0.8,2.3-0.8H58c2.7,0.2,5.4,0.5,8.1,0.9
		c1.3-0.1,2.5-0.4,3.7-1c1.2-0.6,2.4-1.2,3.5-1.9c0.3-0.2,0.6-0.4,1-0.5l0.1,0l1.1-0.5c1-0.5,1.9-1.2,2.6-2c0.7-1,1.3-2.1,1.8-3.2
		l0.7-1.4l1.2-2.5c0.2-0.3,0.5-0.5,0.9-0.5h0.3c1.5-0.1,2.9-0.2,4.3-0.4l1.8-0.3c1.3-0.2,2.4-0.4,3.2-0.4c0.2,0,0.8,0,1.5,0.1
		l1.7,0.1c2.6,0.2,5.1,0.2,7.7,0.1c1.4-0.1,2.8-0.4,4.2-0.9c0.3,0,0.5,0.1,0.7,0.3c0.5,0.5,1,0.9,1.5,1.4c0.3,0.3,0.4,0.6,0.3,1
		c-0.1,0.4-0.4,0.6-0.8,0.6l-0.6,0.1c-0.9,0.1-1.7,0.4-2.3,1c-0.2,0.2-0.5,0.4-0.8,0.4c-0.1,0-0.2,0-0.4-0.1
		c-0.4-0.2-0.8-0.3-1.2-0.3h-1.2c-1.5,0-3,0.1-4.6,0.3c-0.9,0.1-1.8,0.4-2.5,0.8c-0.7,0.3-1.2,1.1-1.2,1.9c0.1,1.8,2.6,6.6,4.3,8.3
		c0.8,0.5,1.7,0.8,2.7,0.7h0.5c0.4,0,0.7,0.2,0.8,0.5c1.7,3.4,4.8,5.8,7.5,5.8h0.2c2.6-0.1,9.7-2.7,14.7-5l0.2-0.1l0.5-0.1l1-0.1
		l0.5-0.1c1.1-0.1,2.2-0.3,3.2-0.8c0.8-0.4,2.1-2,3.1-4c0.2-0.3,0.5-0.5,0.8-0.5h0.1c0.4,0.1,0.7,0.3,0.8,0.7
		c0.1,0.4,0.3,0.8,0.4,1.1c0.9,1.6,2.4,2.4,4.5,2.4h0.4c1.5-0.1,3-0.5,4.5-1l0.8-0.3c1.1-0.4,2.3-0.7,3.4-1c0.7-0.1,1.4-0.1,2-0.1
		l1.3,0.1l0.9,0.1c0.4,0.1,0.9,0.1,1.4,0.1c1.1,0,2.2-0.2,3.2-0.6c1.1-0.5,2.1-1.1,3-1.8l0.3-0.2c0.2-0.1,0.4-0.2,0.6-0.2
		c0.2,0,0.4,0.1,0.6,0.3c3.3,2.9,7.5,4.4,11.8,4.4h0.6c1.2,0.1,2.3-0.4,3.1-1.3c0.4-0.5,0.5-1.2,0.4-1.8c-0.1-0.5,0.1-1,0.6-1.2
		c0,0,0.1,0,0.1,0c0.8-0.1,1.6-0.5,2.3-1c0.5-0.4,0.8-1.1,0.9-1.7c0-0.4-0.2-0.8-0.4-1C181.1,346.9,180.1,346.3,179.1,345.7
		 M137.1,338.5c-0.6,0.8-1.6,1-2.5,2.6c-1.8-0.7-2.1-3-2.4-4.1c1.4-0.3,4.7-0.9,6.5-1.1C138.1,336.6,137.5,337.5,137.1,338.5"/>
	<path class="st10" d="M176.8,346.9c-3.2-1.9-4.5-5.5-6.5-8.3c-0.7-1-2-1.7-2.6-2.7c-2.3-6.3-4.3-12.7-4.9-19.9
		c-0.4-1.8-1-3.6-1.8-5.3c-2.9-4.7-6.7-9.1-10.4-13.4l-1-1.1l-12.9-10.7c-1.6-1.1-3.3-2-5.1-2.7c-3-1-6.2-0.9-9,0.3
		c-2.8,1.5-5.2,3.6-8.2,4.6c-4.2,1.9-9,2.3-12.6,5.5c-2.1,1.8-3.9,4.7-7.1,4.2c-3.4-0.1-6.7,1.1-9.3,3.3c-2.4,2.2-4.6,4.7-7.7,5.3
		c-2.7,1.1-6,0.6-8.8,1.6c-4.4,1.1-7.9,4.6-11.6,7.2c-3.7,2.2-7.3,4.5-12,4.4c-3.1-0.3-5.8-2.3-6.9-5.2c-1-3.3,0.1-6.9,2.7-9.1
		c2.8-3.3,7.2-5.2,9.3-9.1c1.1-2.3,0.9-5.1-0.5-7.2c-2.9-3-7-3.1-10.7-4c-2.4-0.7-4.2-2.5-6.3-3.6c-0.8,1.2-1.1,2.7-1,4.1
		c0.6,3.5,3,6.4,6.3,7.7c1.9,0.8,4.1,0.2,6,0.6c0.6,0.3,1,0.8,1.1,1.4c0,0.6-0.3,1.1-0.6,1.5c-3,2.5-6.2,5-8.8,8.1
		c-2.7,2.9-3,8.1-1.6,11.7c1.8,4.2,5.7,7,10.2,7.5c3.1,0.5,5.8-0.3,8.7-0.9c0.3,0.1,0.6,0.3,0.7,0.6c0.3,2.5-0.1,4.7,0.5,7
		c0.5,1.9,1.2,3.8,2,5.6c0.1,0.7,0,1.5-0.5,2c-1.5,1.1-3.2,2-4.9,2.8l-4.2,0.3l-0.8,0.4c-1.6,1.9-1.6,3.8-2.6,5.8
		c-1.3,2.1-3.7,3.2-5.7,4.4c-0.6,1.1-1.4,2.1-2.3,2.9c-0.7,0.6-1.6,0.9-2.5,0.9c-1.4,1.7-1.8,4-2.2,6.3c2.4,0.2,4.9,1.5,7.2,0.2
		c2-0.9,2.4-3.4,3.9-4.8c1.2-1.3,3-0.3,4.4-0.1c2.1,0.1,3.6-1.4,5.4-2.1c1.2-0.8,2.3-2.2,3.6-3c2.5-1.2,6-0.5,8.6-0.1
		c2,0.5,4.1,0.3,6-0.6c1.7-1,3.2-2.4,5.1-2.8c1.7-0.9,2.5-2.8,3.2-4.3c0.6-1.5,2-2.6,1.9-4.3c-0.4-0.4-0.9-1.2-1.6-1.1
		c-0.8,1.1-1.4,2.3-2.3,3.4c-3.9,5.3-7,5.8-14.9,5.8c-5.8-0.4-11.4,1.9-15.3,6.2c-0.3,0.1-0.6,0.1-0.9-0.2c0-0.8,0.2-1.5,0.7-2.2
		c3.6-5.1,9.3-6.3,15.2-6.5c3.1-0.1,6.2-0.8,9.1-2.2c2.9-1.5,5.2-4,6.5-7.1c0.7-3.4,1-7.1,1.8-10.3c0.3-0.4,0.7-0.5,1.2-0.5
		c0.5,0.1,0.8,0.3,1,0.7c-0.6,3.3-1.7,7.3-0.4,10.6c2.6,3.4,7.4,1.6,10.9,1.4c3.4-0.2,6.8-0.2,10.1,0.2c1.7-0.1,3,0.4,4.4-0.7
		c0.4-0.6,0.5-1.3,0.4-2.1c-0.1-1-0.9-1.6,0-2.4c0.4-0.2,0.9-0.1,1.3,0.2c0.5,1.3,0.7,2.8,1.6,4c1.8,2.2,4.1,3.9,6.7,5.2
		c2.3,1.6,4.2,3.8,4.3,6.5c0,1.4-1.3,2.4-2.4,3c-1.8,1-3.9,1.5-6,1.4c-2.9-1.4-3.6-4.4-5.5-6.6c-1-1.1-2.4-1.3-3.9-1.2
		c-1.5,0.1-3.1,0.3-4.6,0.7c-0.3,0.3-0.5,0.8-0.4,1.3c1,1.8,2.1,3.5,3.1,5.3c1.3,0.8,3-0.4,4.1,0.9c0.9,1.4,1.5,3.1,2.9,4.2
		c1.4,1.3,3.4,1.6,5.2,1c4.1-1.1,8-2.7,11.7-4.6h1.3c1.5-0.2,3.2-0.1,4.2-1.2c1.2-1.6,2.2-3.4,3.1-5.2c0.9-1.2,0.5-3.1,0.1-4.5
		c-1.7-2.2-3-4.8-3.9-7.4c-0.9-0.3-1.7-0.8-2.8-0.8c-0.5,0.2-1.2,0.1-1.4,0.7l4.3,8.4c0.4,0.8,0.5,1.6,0.4,2.5
		c-0.6,1.8-1.6,3.5-3,4.8c-0.3,0.2-0.6,0.3-0.8-0.1c0.5-1.9,1.3-3.9,1.2-6l-4.2-7.5c-0.5-1-1.3-2-1.3-3.1c0.1-0.5,0.4-1,0.9-1.1
		c1.8-0.6,4.1-0.5,5.5-2c1.9-2.9,2.2-5.7,2.7-9.1c0.2-0.3,0.5-0.6,0.9-0.6c0.4,0,0.7,0.3,0.9,0.5c0.6,3.7-0.2,7.4-2.4,10.4
		c-0.2,0.4-0.1,0.9,0.2,1.1c2.1,0.6,4.2,0,6-0.9c2.1-0.1,4.2-0.3,6.3-0.8c0.3,0.1,0.4,0.3,0.5,0.5c-1.3,1.4-2.2,3.2-2.5,5.1
		c-1.6,1.7-3.9,3.2-4.1,5.6c0.3,1.2,1.3,0.1,2,0.2c0.3,0,0.5,0.3,0.5,0.6l-1.6,2.4c-0.9,1.4,0.2,3,0.2,4.4c0.5,1.1,1.6,1.7,2.8,1.6
		c2.5-0.1,4.6-1,6.8-1.8c2.6-0.9,5.3-1.1,8-0.6c2.5-0.2,4.4-1.9,6.3-3.5c1,0.1,2,0.6,2.6,1.5c2.8,3,6.9,4.6,11,4.4l0.4-0.2
		c0.2-0.3,0.2-0.7-0.1-0.9c0,0-0.1,0-0.1-0.1l-2.5-1.3c-1.8-1.1-4-2.6-4.6-4.6c-0.6-1.9-1.5-3.8-2.6-5.5c-0.4-0.9-1.3-1.6-1.6-2.4
		c0.1-0.1,0.2-0.2,0.4-0.2c2.8,1,4.5,3.8,5.8,6.2c2.1,2.9,5,5.3,8.9,4.7l0.3-0.3c0.2-0.2,0.2-0.5,0-0.7L176.8,346.9L176.8,346.9z
		 M134.3,308.7l-0.1,0v0.1l-0.1,0c-0.2,0.2-0.5,0.3-0.7,0.1l-0.1-0.1l0-0.1c-0.4-2.2-1-4.4-1.8-6.6l-0.5-0.9l-0.2-0.3l-0.4-0.6
		c-0.5-0.6-0.6-1.5-0.2-2.2l0.1-0.1c0.5-0.4,1-0.5,1.6-0.3l0.1,0.1c0.8,0.7,1.5,1.5,2,2.5c0.6,1.4,0.9,3,0.8,4.5
		c0,1.3-0.2,2.5-0.5,3.8L134.3,308.7z M154.9,344.4L154.9,344.4c-1.1,0.4-2.3,0.5-3.4,0.4h-0.1l-0.2-0.1l-0.3-0.2
		c-0.2-0.1-0.3-0.4-0.2-0.6c0.6-1.7,2-3,3.8-3.4h0.3l0.4,0.1c0.3,0.1,0.6,0.4,0.6,0.7c0.1,0.3,0.1,0.6,0.1,0.8
		C155.9,343,155.6,343.9,154.9,344.4L154.9,344.4z M161.6,329.6l-0.2,0.5l-0.2,0.5c-0.1,0.4-0.4,0.7-0.8,0.8c-0.2,0.1-0.4,0-0.6-0.1
		c-0.2-0.1-0.3-0.3-0.3-0.6l0-0.5l-0.2-1.7c-0.1-0.7-0.3-1.3-0.7-1.9c-0.5-0.6-1.1-1.2-1.6-1.8c-0.4-0.5-1.1-0.9-1.8-1
		c-0.5,0.2-1,0.5-1.4,1l-0.6,0.7l-0.5,0.7c-0.2,0.2-0.4,0.2-0.6,0.1l-0.1,0c-0.1-0.3-0.2-0.7-0.2-1c0-0.5,0.1-0.9,0.3-1.4l0.5-0.9
		l0.5-1l0.1-0.1c0.2-0.3,0.4-0.6,0.5-0.9l0.2-0.4l0.3-0.8c0.2-0.8,1-1.2,1.8-1c0.1,0,0.2,0.1,0.3,0.2c0.7,0.4,1.2,0.9,1.6,1.6
		l0.3,0.4l0.3,0.5l0.6,0.8c1.8,2,2.6,3.8,2.6,5.7C161.7,328.7,161.7,329.2,161.6,329.6z"/>
	<path class="st10" d="M33.1,353c1.6-1.1,2.8-2.6,3.7-4.4c-0.3-0.6-0.7-1.1-1.3-1.4c-0.4-0.2-0.8-0.1-1.2,0.1
		c-1.2,1-2.4,1.9-3.7,2.7c-0.6,0.4-0.3,1.2-0.5,1.8c0,0.6,0.7,0.9,1,1.3C31.7,353.2,32.4,353.2,33.1,353 M27.4,353.2
		c-1,0.4-1.7,1.2-2,2.2c-0.3,1.7,0.1,3.3-1.2,4.6c-0.1,0.3-0.4,0.7-0.1,1c1.2,0.5,2.5,0.8,3.8,1c0.6-2.1,1.1-4.4,1.9-6.3v-0.6
		C29.1,354.4,28.5,353.4,27.4,353.2 M109.5,347.3c1.1,1.2,1,3,2.3,4c1.6,0.2,3.1-0.3,4.3-1.3c0.7-0.6-0.3-1.4-0.4-2.1
		c-0.7-1-0.2-3.1-1.9-3.1c-1.7,0.2-3.5,0.3-5.2,0.3l-0.5,0.3C107.7,346.4,109.2,346.4,109.5,347.3"/>
	<g>
		<path class="st11" d="M538.7,340.5c0,4.6,3.9,8.3,8.7,8.3c4.8,0,8.7-3.7,8.7-8.3V313h15v30.4c0,10.3-10.7,18.6-23.7,18.6
			c-13.1,0-23.8-8.3-23.8-18.6V313h15.1V340.5z M605.2,360.3h15.2v-79.9h-15.2V360.3z M579.5,360.3h15.2v-79.9h-15.2V360.3z
			 M301.1,297.2h-8.3v63.1h-16.2v-76.2h27.8c12.7,0,22.9,10.1,22.9,22.5c-0.1,10.5-7.3,19.5-17.5,21.9l22.4,31.9h-19.1l-16.2-25
			v-18.2h3.8c6,0,10.8-4.5,10.8-10c-0.1-5.6-4.7-10.1-10.3-10C301.2,297.1,301.1,297.2,301.1,297.2"/>
		<path class="st11" d="M346.5,331c-0.3-5.1,3.7-9.5,8.8-9.8s9.5,3.7,9.8,8.8c0,0.3,0,0.6,0,1H346.5z M380.1,339.8
			c0.1-1,0.2-2.1,0.1-3.2c0.3-16.5-10.7-25.5-24.5-25.5c-14,0.1-25.2,11.5-25.1,25.5c-0.1,14,11.2,25.4,25.1,25.5
			c10.6,0,18.9-4.8,23.1-12.3l-12.4-5.7c-1.8,3.6-5.5,5.9-9.5,5.8c-5.9,0-10.3-4.4-10.3-9.5v-0.5
			C346.6,339.8,380.1,339.8,380.1,339.8z M414.5,348.6c-6.2,0-11.2-5.5-11.2-12.2c0-6.7,5-12.2,11.2-12.2c6.2,0,11.2,5.5,11.2,12.2
			C425.7,343.1,420.7,348.6,414.5,348.6z M440.7,360.3l0-79.9h-15.2v37.8c-4-4.1-9.5-6.4-15.3-6.4c-12.6,0-22.7,11.2-22.7,24.9
			s10.2,24.9,22.7,24.9c5.9,0,11.3-2.5,15.4-6.6v5.3H440.7L440.7,360.3z M492.2,347h-14.6v-49.9h10.1c4.5,0,8.1,4.1,8.1,8.5
			c0,4.5-3.6,8.1-8.1,8.1h-5.3v13.7h9.7c5.3,0,9.5,4.3,9.5,9.5c0,0.1,0,0.2,0,0.2C501.5,342.8,498.1,346.7,492.2,347 M505,318.8
			c4.2-3.8,6.7-9.2,6.7-14.8c0-5.2-2-9.9-5.5-13.7c-3.6-4-10-6.2-18.7-6.2h-26v76.2h33.6c12.9-0.2,23.2-9.9,23.2-21.9
			C518.3,329.7,515.3,323.6,505,318.8"/>
	</g>
</g>
</svg>
