<svg xmlns="http://www.w3.org/2000/svg" xmlns:v="https://svgstorm.com"
viewBox = "0 0 640 151"
width="640"
height="151">
<g fill="None" fill-opacity="0.0" stroke="#000000" stroke-opacity="0.00" stroke-width="0.3"><path d="
M 0.00 151.00 
L 640.00 151.00
L 640.00 0.00
L 0.00 0.00
L 0.00 151.00
M 614.00 6.00 
C 633.73 10.89 624.21 46.29 603.99 39.01 C 583.78 31.73 591.95 0.54 614.00 6.00
M 196.00 106.00 
C 196.03 105.50 196.00 104.50 196.00 104.00
C 194.87 101.33 194.09 96.58 196.00 94.00
C 196.00 93.50 196.00 93.00 196.00 93.00
C 192.73 62.77 236.47 47.00 257.00 65.00
C 256.76 55.66 257.31 49.68 257.00 40.00 C 256.69 30.32 257.60 25.92 257.00 15.00 C 256.40 4.08 265.05 8.38 275.00 7.00 C 284.95 5.62 286.04 12.82 285.00 22.00 C 283.96 31.18 285.45 39.23 285.00 48.00 C 284.55 56.77 285.11 64.51 285.00 73.00 C 284.89 81.49 284.83 89.68 285.00 98.00 C 285.17 106.32 284.48 115.96 285.00 124.00 C 285.52 132.04 286.42 142.99 277.00 141.00 C 267.58 139.01 257.15 146.06 258.00 134.00
C 235.37 153.41 194.83 137.48 196.00 106.00
M 541.00 7.00 
C 541.00 51.67 541.00 96.33 541.00 141.00
C 529.59 140.57 512.70 145.39 514.00 131.00 C 515.30 116.61 513.69 106.71 514.00 93.00 C 514.31 79.29 514.55 69.81 514.00 56.00 C 513.45 42.19 515.71 32.75 514.00 18.00 C 512.29 3.25 528.85 6.78 541.00 7.00
M 582.00 9.00 
C 585.35 15.92 580.60 27.18 582.00 35.00 C 583.40 42.82 581.62 52.84 582.00 61.00 C 582.38 69.16 582.38 78.84 582.00 87.00 C 581.62 95.16 583.40 105.18 582.00 113.00 C 580.60 120.82 585.35 132.08 582.00 139.00
C 579.12 144.96 562.02 138.70 556.00 141.00
C 556.00 96.33 556.00 51.67 556.00 7.00
C 564.19 8.28 576.23 4.41 582.00 9.00
M 61.00 11.00 
C 80.06 13.30 98.29 22.09 100.93 43.07 C 103.56 64.06 94.90 85.05 73.00 88.00
C 84.37 105.58 97.09 122.19 108.00 140.00
C 96.40 140.55 77.99 145.37 71.23 134.77 C 64.47 124.17 61.66 118.14 54.23 107.77 C 46.80 97.40 49.07 81.03 49.00 68.00
C 60.12 69.66 74.11 63.31 72.00 50.00 C 69.89 36.69 53.76 37.21 43.00 38.00
C 43.00 71.67 43.00 105.33 43.00 139.00
C 42.77 142.94 33.58 140.44 30.00 141.00 C 26.42 141.56 18.93 140.58 15.00 141.00
C 15.00 97.33 15.00 53.67 15.00 10.00
C 30.17 10.67 46.66 8.67 61.00 11.00
M 406.00 41.00 
C 407.67 51.52 404.65 62.99 397.00 71.00
C 408.24 74.57 417.08 85.74 416.00 98.00
C 418.23 116.41 410.63 135.13 389.99 138.99 C 369.35 142.85 344.66 140.28 323.00 141.00
C 322.84 127.48 323.21 114.58 323.00 101.00 C 322.79 87.42 323.41 74.81 323.00 61.00 C 322.59 47.19 323.87 35.36 323.00 21.00 C 322.12 6.64 342.80 12.85 354.00 12.00 C 365.20 11.15 379.27 12.59 389.08 16.92 C 398.89 21.25 405.32 30.74 406.00 41.00
M 152.00 58.00 
C 172.58 58.41 186.90 73.78 188.00 94.00
C 188.21 97.86 188.35 102.15 188.00 106.00
C 184.44 109.70 175.32 105.94 170.00 107.00 C 164.68 108.06 156.80 106.40 151.00 107.00 C 145.20 107.60 137.93 106.46 132.00 107.00
C 131.75 107.26 132.00 108.00 132.00 108.00
C 138.66 120.73 155.71 127.69 164.00 111.00
C 171.44 114.70 191.12 119.26 182.70 128.70 C 174.27 138.13 165.80 142.49 153.93 143.93 C 142.06 145.36 129.18 141.84 119.77 135.23 C 110.36 128.62 105.32 117.32 105.00 106.00
C 104.89 103.03 104.89 99.97 105.00 97.00
C 105.82 75.54 120.91 58.44 143.00 58.00
C 145.97 57.64 149.09 57.65 152.00 58.00
M 476.00 62.00 
C 484.60 61.22 493.39 62.58 502.00 62.00
C 502.00 79.33 502.00 96.67 502.00 114.00
C 500.33 144.71 459.99 153.04 437.75 139.25 C 415.52 125.45 420.79 95.95 422.00 77.00
C 421.81 72.90 420.27 68.24 422.00 64.00
C 421.98 64.19 422.20 61.14 423.00 62.00
C 430.88 61.29 440.12 61.29 448.00 62.00
C 452.46 66.29 447.43 78.74 449.00 85.00 C 450.57 91.26 447.67 102.28 449.33 108.67 C 450.99 115.06 455.24 119.68 462.01 119.99 C 468.77 120.31 473.68 115.44 474.93 108.93 C 476.17 102.41 473.46 91.29 475.00 85.00 C 476.54 78.71 471.57 66.26 476.00 62.00 Z"/>
</g>
<g fill="None" fill-opacity="0.0" stroke="#FDF0F2" stroke-opacity="0.17" stroke-width="0.3"><path d="
M 614.00 6.00 
C 591.95 0.54 583.78 31.73 603.99 39.01 C 624.21 46.29 633.73 10.89 614.00 6.00
M 612.00 7.00 
C 631.21 10.61 624.46 41.77 605.00 37.00 C 585.54 32.23 593.25 3.48 612.00 7.00 Z"/>
</g>
<g fill="None" fill-opacity="0.0" stroke="#FCE8EA" stroke-opacity="0.22" stroke-width="0.3"><path d="
M 196.00 93.00 
C 196.25 92.75 197.00 93.00 197.00 93.00
C 197.88 76.70 211.12 60.92 228.00 60.00
C 233.52 59.10 237.73 59.40 243.00 61.00
C 248.75 62.07 253.56 65.02 259.00 67.00
C 259.00 47.67 259.00 28.33 259.00 9.00
C 267.00 9.00 275.00 9.00 283.00 9.00
C 283.00 52.33 283.00 95.67 283.00 139.00
C 275.33 139.00 267.67 139.00 260.00 139.00
C 257.61 137.33 259.73 132.53 259.00 130.00
C 236.61 151.55 198.66 136.64 197.00 106.00
C 197.00 105.99 196.00 106.00 196.00 106.00
C 194.83 137.48 235.37 153.41 258.00 134.00
C 257.15 146.06 267.58 139.01 277.00 141.00 C 286.42 142.99 285.52 132.04 285.00 124.00 C 284.48 115.96 285.17 106.32 285.00 98.00 C 284.83 89.68 284.89 81.49 285.00 73.00 C 285.11 64.51 284.55 56.77 285.00 48.00 C 285.45 39.23 283.96 31.18 285.00 22.00 C 286.04 12.82 284.95 5.62 275.00 7.00 C 265.05 8.38 256.40 4.08 257.00 15.00 C 257.60 25.92 256.69 30.32 257.00 40.00 C 257.31 49.68 256.76 55.66 257.00 65.00
C 236.47 47.00 192.73 62.77 196.00 93.00 Z"/>
</g>
<g fill="None" fill-opacity="0.0" stroke="#FDECED" stroke-opacity="0.22" stroke-width="0.3"><path d="
M 541.00 7.00 
C 528.85 6.78 512.29 3.25 514.00 18.00 C 515.71 32.75 513.45 42.19 514.00 56.00 C 514.55 69.81 514.31 79.29 514.00 93.00 C 513.69 106.71 515.30 116.61 514.00 131.00 C 512.70 145.39 529.59 140.57 541.00 141.00
C 541.00 96.33 541.00 51.67 541.00 7.00
M 540.00 9.00 
C 540.00 52.33 540.00 95.67 540.00 139.00
C 532.00 139.00 524.00 139.00 516.00 139.00
C 516.00 95.67 516.00 52.33 516.00 9.00
C 524.00 9.00 532.00 9.00 540.00 9.00 Z"/>
</g>
<g fill="None" fill-opacity="0.0" stroke="#FFFEFE" stroke-opacity="0.09" stroke-width="0.3"><path d="
M 582.00 139.00 
C 580.25 141.48 572.93 139.93 570.00 140.00 C 567.07 140.07 559.05 141.13 557.00 139.00
C 555.05 117.74 557.01 95.36 557.00 74.00 C 556.99 52.64 555.08 30.27 557.00 9.00
C 558.90 7.02 566.15 7.70 569.00 8.00 C 571.85 8.30 580.15 6.38 582.00 9.00
C 576.23 4.41 564.19 8.28 556.00 7.00
C 556.00 51.67 556.00 96.33 556.00 141.00
C 562.02 138.70 579.12 144.96 582.00 139.00 Z"/>
</g>
<g fill="None" fill-opacity="0.0" stroke="#EC5C67" stroke-opacity="0.84" stroke-width="0.3"><path d="
M 612.00 7.00 
C 593.25 3.48 585.54 32.23 605.00 37.00 C 624.46 41.77 631.21 10.61 612.00 7.00
M 611.00 9.00 
C 626.72 11.43 623.98 37.27 607.00 35.00 C 590.02 32.73 594.03 6.38 611.00 9.00 Z"/>
</g>
<g fill="None" fill-opacity="0.0" stroke="#FBE4E7" stroke-opacity="0.33" stroke-width="0.3"><path d="
M 557.00 9.00 
C 557.00 8.96 558.00 9.00 558.00 9.00
C 565.67 9.00 573.33 9.00 581.00 9.00
C 581.00 52.33 581.00 95.67 581.00 139.00
C 573.33 139.00 565.67 139.00 558.00 139.00
C 557.50 139.00 557.00 139.00 557.00 139.00
C 559.05 141.13 567.07 140.07 570.00 140.00 C 572.93 139.93 580.25 141.48 582.00 139.00
C 585.35 132.08 580.60 120.82 582.00 113.00 C 583.40 105.18 581.62 95.16 582.00 87.00 C 582.38 78.84 582.38 69.16 582.00 61.00 C 581.62 52.84 583.40 42.82 582.00 35.00 C 580.60 27.18 585.35 15.92 582.00 9.00
C 580.15 6.38 571.85 8.30 569.00 8.00 C 566.15 7.70 558.90 7.02 557.00 9.00 Z"/>
</g>
<g fill="None" fill-opacity="0.0" stroke="#E51A30" stroke-opacity="0.99" stroke-width="0.3"><path d="
M 243.00 61.00 
C 238.18 60.10 233.11 59.72 228.00 60.00
C 211.12 60.92 197.88 76.70 197.00 93.00
C 196.77 97.25 196.77 101.75 197.00 106.00
C 198.66 136.64 236.61 151.55 259.00 130.00
C 261.08 132.10 259.50 136.15 260.00 139.00
C 267.67 139.00 275.33 139.00 283.00 139.00
C 283.00 95.67 283.00 52.33 283.00 9.00
C 275.00 9.00 267.00 9.00 259.00 9.00
C 259.00 28.33 259.00 47.67 259.00 67.00
C 253.56 65.02 248.75 62.07 243.00 61.00
M 244.00 119.00 
C 240.96 119.79 238.99 119.77 236.00 119.00
C 228.17 116.97 224.56 111.54 223.00 104.00
C 222.38 101.01 222.35 98.95 223.00 96.00
C 226.29 81.17 242.79 73.09 254.75 85.25 C 266.70 97.42 258.35 115.28 244.00 119.00 Z"/>
</g>
<g fill="None" fill-opacity="0.0" stroke="#E51930" stroke-opacity="0.99" stroke-width="0.3"><path d="
M 540.00 9.00 
C 532.00 9.00 524.00 9.00 516.00 9.00
C 516.00 52.33 516.00 95.67 516.00 139.00
C 524.00 139.00 532.00 139.00 540.00 139.00
C 540.00 95.67 540.00 52.33 540.00 9.00 Z"/>
</g>
<g fill="None" fill-opacity="0.0" stroke="#EE6274" stroke-opacity="0.82" stroke-width="0.3"><path d="
M 557.00 139.00 
C 557.00 139.00 557.50 139.00 558.00 139.00
C 559.92 117.73 558.00 95.37 558.00 74.00 C 558.00 52.63 559.93 30.27 558.00 9.00
C 558.00 9.00 557.00 8.96 557.00 9.00
C 555.08 30.27 556.99 52.64 557.00 74.00 C 557.01 95.36 555.05 117.74 557.00 139.00 Z"/>
</g>
<g fill="None" fill-opacity="0.0" stroke="#E5172F" stroke-opacity="1.00" stroke-width="0.3"><path d="
M 558.00 139.00 
C 565.67 139.00 573.33 139.00 581.00 139.00
C 581.00 95.67 581.00 52.33 581.00 9.00
C 573.33 9.00 565.67 9.00 558.00 9.00
C 559.93 30.27 558.00 52.63 558.00 74.00 C 558.00 95.37 559.92 117.73 558.00 139.00 Z"/>
</g>
<g fill="None" fill-opacity="0.0" stroke="#F6E6E8" stroke-opacity="0.20" stroke-width="0.3"><path d="
M 611.00 9.00 
C 594.03 6.38 590.02 32.73 607.00 35.00 C 623.98 37.27 626.72 11.43 611.00 9.00
M 616.00 31.00 
C 611.48 24.65 618.08 17.78 612.00 12.00
C 620.40 13.40 622.93 26.23 616.00 31.00
M 610.00 14.00 
C 614.77 15.94 614.79 19.48 611.00 23.00
C 613.28 24.97 613.17 28.54 615.00 31.00
C 609.77 30.97 612.64 27.36 608.75 24.25 C 604.85 21.15 605.17 28.75 604.00 31.00
C 601.74 26.25 603.62 19.51 603.00 14.00
C 604.57 11.75 608.37 13.34 610.00 14.00
M 602.00 14.00 
C 601.09 19.83 601.44 24.63 602.00 31.00
C 595.09 28.99 595.47 16.16 602.00 14.00
M 608.00 25.00 
C 609.79 27.86 610.22 31.13 612.00 34.00
C 603.31 36.41 606.66 30.23 608.00 25.00 Z"/>
</g>
<g fill="None" fill-opacity="0.0" stroke="#FEFEFE" stroke-opacity="0.07" stroke-width="0.3"><path d="
M 43.00 139.00 
C 43.00 139.04 42.00 139.00 42.00 139.00
C 39.31 140.99 32.52 140.17 29.00 140.00 C 25.48 139.83 18.35 141.44 16.00 139.00
C 12.17 96.68 18.87 53.41 16.00 11.00
C 29.50 11.67 44.32 9.67 57.00 12.00
C 58.00 12.00 59.00 12.00 60.00 12.00
C 60.27 11.87 60.65 11.07 61.00 11.00
C 46.66 8.67 30.17 10.67 15.00 10.00
C 15.00 53.67 15.00 97.33 15.00 141.00
C 18.93 140.58 26.42 141.56 30.00 141.00 C 33.58 140.44 42.77 142.94 43.00 139.00 Z"/>
</g>
<g fill="None" fill-opacity="0.0" stroke="#F2929C" stroke-opacity="0.68" stroke-width="0.3"><path d="
M 16.00 139.00 
C 16.00 139.04 17.00 139.00 17.00 139.00
C 17.25 138.75 17.00 138.00 17.00 138.00
C 17.00 96.00 17.00 54.00 17.00 12.00
C 30.33 12.00 43.67 12.00 57.00 12.00
C 44.32 9.67 29.50 11.67 16.00 11.00
C 18.87 53.41 12.17 96.68 16.00 139.00 Z"/>
</g>
<g fill="None" fill-opacity="0.0" stroke="#FEEFF0" stroke-opacity="0.20" stroke-width="0.3"><path d="
M 60.00 12.00 
C 78.79 11.92 98.24 25.13 99.00 45.00
C 99.61 49.29 99.69 53.76 99.00 58.00
C 98.18 73.11 85.59 84.69 71.00 87.00
C 80.77 105.03 95.50 120.82 105.00 139.00
C 91.28 140.37 74.22 141.14 69.08 127.92 C 63.94 114.69 55.96 111.56 51.00 99.00
C 47.70 90.28 51.39 78.56 50.00 69.00
C 53.33 69.00 56.67 69.00 60.00 69.00
C 79.26 63.39 76.22 40.04 58.00 36.00
C 52.72 35.46 47.29 36.41 42.00 36.00
C 44.31 70.12 38.92 104.94 42.00 139.00
C 42.00 139.00 43.00 139.04 43.00 139.00
C 43.00 105.33 43.00 71.67 43.00 38.00
C 53.76 37.21 69.89 36.69 72.00 50.00 C 74.11 63.31 60.12 69.66 49.00 68.00
C 49.07 81.03 46.80 97.40 54.23 107.77 C 61.66 118.14 64.47 124.17 71.23 134.77 C 77.99 145.37 96.40 140.55 108.00 140.00
C 97.09 122.19 84.37 105.58 73.00 88.00
C 94.90 85.05 103.56 64.06 100.93 43.07 C 98.29 22.09 80.06 13.30 61.00 11.00
C 60.65 11.07 60.27 11.87 60.00 12.00 Z"/>
</g>
<g fill="None" fill-opacity="0.0" stroke="#E51930" stroke-opacity="1.00" stroke-width="0.3"><path d="
M 17.00 138.00 
C 24.94 137.28 33.05 138.54 41.00 138.00
C 41.67 104.17 39.67 69.01 42.00 36.00
C 44.94 33.06 54.80 35.29 58.00 36.00
C 76.22 40.04 79.26 63.39 60.00 69.00
C 57.50 69.73 54.15 70.52 51.00 70.00
C 51.00 79.67 51.00 89.33 51.00 99.00
C 55.96 111.56 63.94 114.69 69.08 127.92 C 74.22 141.14 91.28 140.37 105.00 139.00
C 95.50 120.82 80.77 105.03 71.00 87.00
C 85.59 84.69 98.18 73.11 99.00 58.00
C 99.23 53.73 99.16 49.27 99.00 45.00
C 98.24 25.13 78.79 11.92 60.00 12.00
C 59.00 12.00 58.00 12.00 57.00 12.00
C 43.67 12.00 30.33 12.00 17.00 12.00
C 17.00 54.00 17.00 96.00 17.00 138.00 Z"/>
</g>
<g fill="None" fill-opacity="0.0" stroke="#FEF7F7" stroke-opacity="0.13" stroke-width="0.3"><path d="
M 416.00 98.00 
C 415.95 98.50 416.00 99.00 416.00 99.00
C 416.00 102.19 415.35 105.52 415.00 108.00
C 414.28 126.92 398.95 135.11 383.00 139.00
C 377.71 140.29 369.95 140.49 364.00 140.00 C 358.05 139.51 349.55 141.14 344.00 140.00 C 338.45 138.86 327.72 142.87 324.00 139.00
C 323.26 130.86 324.22 122.14 324.00 114.00 C 323.78 105.86 323.85 97.02 324.00 89.00 C 324.15 80.98 323.37 71.69 324.00 64.00 C 324.63 56.31 322.48 45.92 324.00 39.00 C 325.52 32.08 320.25 18.56 325.00 14.00
C 340.91 12.56 360.95 12.56 376.00 15.00
C 390.34 15.78 403.03 26.53 405.00 41.00
C 405.01 41.07 406.00 41.00 406.00 41.00
C 405.32 30.74 398.89 21.25 389.08 16.92 C 379.27 12.59 365.20 11.15 354.00 12.00 C 342.80 12.85 322.12 6.64 323.00 21.00 C 323.87 35.36 322.59 47.19 323.00 61.00 C 323.41 74.81 322.79 87.42 323.00 101.00 C 323.21 114.58 322.84 127.48 323.00 141.00
C 344.66 140.28 369.35 142.85 389.99 138.99 C 410.63 135.13 418.23 116.41 416.00 98.00 Z"/>
</g>
<g fill="None" fill-opacity="0.0" stroke="#000000" stroke-opacity="0.00" stroke-width="0.3"><path d="
M 616.00 31.00 
C 622.93 26.23 620.40 13.40 612.00 12.00
C 618.08 17.78 611.48 24.65 616.00 31.00 Z"/>
</g>
<g fill="None" fill-opacity="0.0" stroke="#F4A1AA" stroke-opacity="0.63" stroke-width="0.3"><path d="
M 603.00 14.00 
C 605.24 14.39 607.79 13.49 610.00 14.00
C 608.37 13.34 604.57 11.75 603.00 14.00 Z"/>
</g>
<g fill="None" fill-opacity="0.0" stroke="#F3939D" stroke-opacity="0.68" stroke-width="0.3"><path d="
M 324.00 139.00 
C 324.00 139.04 325.00 139.00 325.00 139.00
C 326.85 118.53 324.31 97.56 325.00 77.00 C 325.69 56.44 325.00 35.59 325.00 15.00
C 325.00 14.50 325.00 14.00 325.00 14.00
C 320.25 18.56 325.52 32.08 324.00 39.00 C 322.48 45.92 324.63 56.31 324.00 64.00 C 323.37 71.69 324.15 80.98 324.00 89.00 C 323.85 97.02 323.78 105.86 324.00 114.00 C 324.22 122.14 323.26 130.86 324.00 139.00 Z"/>
</g>
<g fill="None" fill-opacity="0.0" stroke="#ED6374" stroke-opacity="0.81" stroke-width="0.3"><path d="
M 325.00 15.00 
C 341.85 16.52 359.10 14.08 376.00 15.00
C 360.95 12.56 340.91 12.56 325.00 14.00
C 325.00 14.00 325.00 14.50 325.00 15.00 Z"/>
</g>
<g fill="None" fill-opacity="0.0" stroke="#000000" stroke-opacity="0.00" stroke-width="0.3"><path d="
M 602.00 14.00 
C 595.47 16.16 595.09 28.99 602.00 31.00
C 601.44 24.63 601.09 19.83 602.00 14.00 Z"/>
</g>
<g fill="None" fill-opacity="0.0" stroke="#E84150" stroke-opacity="0.91" stroke-width="0.3"><path d="
M 610.00 14.00 
C 607.79 13.49 605.24 14.39 603.00 14.00
C 603.62 19.51 601.74 26.25 604.00 31.00
C 605.17 28.75 604.85 21.15 608.75 24.25 C 612.64 27.36 609.77 30.97 615.00 31.00
C 613.17 28.54 613.28 24.97 611.00 23.00
C 614.79 19.48 614.77 15.94 610.00 14.00
M 609.00 16.00 
C 611.24 17.34 611.90 19.16 609.00 21.00
C 603.77 24.31 603.54 12.72 609.00 16.00 Z"/>
</g>
<g fill="None" fill-opacity="0.0" stroke="#E51930" stroke-opacity="0.99" stroke-width="0.3"><path d="
M 325.00 139.00 
C 343.87 139.00 364.29 141.26 383.00 139.00
C 398.95 135.11 414.28 126.92 415.00 108.00
C 415.11 105.03 415.11 101.97 415.00 99.00
C 414.54 87.01 407.26 75.11 395.00 72.00
C 401.02 62.92 406.77 52.89 405.00 41.00
C 403.03 26.53 390.34 15.78 376.00 15.00
C 359.10 14.08 341.85 16.52 325.00 15.00
C 325.00 35.59 325.69 56.44 325.00 77.00 C 324.31 97.56 326.85 118.53 325.00 139.00
M 366.00 36.00 
C 366.50 36.00 367.51 35.94 368.00 36.00
C 372.77 36.60 377.27 40.43 379.00 45.00
C 380.06 47.81 379.66 49.32 379.00 52.00
C 377.87 56.56 376.98 58.38 373.30 61.30 C 369.63 64.22 362.26 60.72 359.00 63.00
C 359.00 70.00 359.00 77.00 359.00 84.00
C 364.50 84.65 371.33 82.68 376.00 85.00
C 381.68 86.32 389.67 89.48 389.00 97.00
C 390.13 101.86 389.69 108.95 385.25 112.25 C 380.81 115.54 374.88 119.35 370.00 118.00 C 365.12 116.65 352.03 121.06 350.00 117.00
C 348.14 111.20 350.59 103.12 350.00 97.00 C 349.41 90.88 349.71 83.07 350.00 77.00 C 350.29 70.93 348.64 62.63 350.00 57.00 C 351.36 51.37 346.86 40.49 350.00 36.00
C 351.96 33.21 363.62 34.99 366.00 36.00 Z"/>
</g>
<g fill="None" fill-opacity="0.0" stroke="#F3939E" stroke-opacity="0.67" stroke-width="0.3"><path d="
M 609.00 21.00 
C 608.03 21.16 606.98 20.87 606.00 21.00
C 605.84 18.65 605.45 15.08 609.00 16.00
C 603.54 12.72 603.77 24.31 609.00 21.00 Z"/>
</g>
<g fill="None" fill-opacity="0.0" stroke="#BAB2B3" stroke-opacity="0.13" stroke-width="0.3"><path d="
M 609.00 21.00 
C 611.90 19.16 611.24 17.34 609.00 16.00
C 605.45 15.08 605.84 18.65 606.00 21.00
C 606.98 20.87 608.03 21.16 609.00 21.00 Z"/>
</g>
<g fill="None" fill-opacity="0.0" stroke="#000000" stroke-opacity="0.00" stroke-width="0.3"><path d="
M 608.00 25.00 
C 606.66 30.23 603.31 36.41 612.00 34.00
C 610.22 31.13 609.79 27.86 608.00 25.00 Z"/>
</g>
<g fill="None" fill-opacity="0.0" stroke="#F298A2" stroke-opacity="0.66" stroke-width="0.3"><path d="
M 42.00 36.00 
C 47.29 36.41 52.72 35.46 58.00 36.00
C 54.80 35.29 44.94 33.06 42.00 36.00 Z"/>
</g>
<g fill="None" fill-opacity="0.0" stroke="#F18695" stroke-opacity="0.71" stroke-width="0.3"><path d="
M 350.00 36.00 
C 355.33 36.00 360.67 36.00 366.00 36.00
C 363.62 34.99 351.96 33.21 350.00 36.00 Z"/>
</g>
<g fill="None" fill-opacity="0.0" stroke="#EA4456" stroke-opacity="0.89" stroke-width="0.3"><path d="
M 17.00 138.00 
C 17.00 138.00 17.25 138.75 17.00 139.00
C 25.33 139.00 33.67 139.00 42.00 139.00
C 38.92 104.94 44.31 70.12 42.00 36.00
C 39.67 69.01 41.67 104.17 41.00 138.00
C 33.05 138.54 24.94 137.28 17.00 138.00 Z"/>
</g>
<g fill="None" fill-opacity="0.0" stroke="#FEF3F3" stroke-opacity="0.24" stroke-width="0.3"><path d="
M 350.00 117.00 
C 350.00 117.00 350.95 116.35 351.00 116.00
C 351.89 109.82 350.38 103.21 351.00 97.00 C 351.62 90.79 350.22 83.04 351.00 77.00 C 351.78 70.96 349.48 63.51 351.00 58.00 C 352.52 52.49 347.90 42.43 351.00 38.00
C 352.19 36.31 366.10 35.93 368.00 36.00
C 367.51 35.94 366.50 36.00 366.00 36.00
C 360.67 36.00 355.33 36.00 350.00 36.00
C 346.86 40.49 351.36 51.37 350.00 57.00 C 348.64 62.63 350.29 70.93 350.00 77.00 C 349.71 83.07 349.41 90.88 350.00 97.00 C 350.59 103.12 348.14 111.20 350.00 117.00 Z"/>
</g>
<g fill="None" fill-opacity="0.0" stroke="#FEF3F5" stroke-opacity="0.14" stroke-width="0.3"><path d="
M 351.00 38.00 
C 360.00 39.29 374.36 34.13 377.92 46.08 C 381.49 58.02 366.85 64.08 357.00 61.00
C 357.63 69.69 352.93 88.88 365.00 87.00 C 377.07 85.12 384.53 88.08 389.00 98.00
C 388.97 97.50 389.00 97.00 389.00 97.00
C 389.67 89.48 381.68 86.32 376.00 85.00
C 372.84 84.65 358.58 86.73 358.08 82.92 C 357.59 79.10 356.24 64.93 359.00 63.00
C 362.26 60.72 369.63 64.22 373.30 61.30 C 376.98 58.38 377.87 56.56 379.00 52.00
C 379.23 50.03 379.42 46.94 379.00 45.00
C 377.27 40.43 372.77 36.60 368.00 36.00
C 366.10 35.93 352.19 36.31 351.00 38.00 Z"/>
</g>
<g fill="None" fill-opacity="0.0" stroke="#000000" stroke-opacity="0.00" stroke-width="0.3"><path d="
M 351.00 116.00 
C 364.81 112.94 390.55 121.17 389.00 98.00
C 384.53 88.08 377.07 85.12 365.00 87.00 C 352.93 88.88 357.63 69.69 357.00 61.00
C 366.85 64.08 381.49 58.02 377.92 46.08 C 374.36 34.13 360.00 39.29 351.00 38.00
C 347.90 42.43 352.52 52.49 351.00 58.00 C 349.48 63.51 351.78 70.96 351.00 77.00 C 350.22 83.04 351.62 90.79 351.00 97.00 C 350.38 103.21 351.89 109.82 351.00 116.00 Z"/>
</g>
<g fill="None" fill-opacity="0.0" stroke="#FDE8EA" stroke-opacity="0.23" stroke-width="0.3"><path d="
M 415.00 99.00 
C 415.00 98.98 416.00 99.00 416.00 99.00
C 416.00 99.00 415.95 98.50 416.00 98.00
C 417.08 85.74 408.24 74.57 397.00 71.00
C 404.65 62.99 407.67 51.52 406.00 41.00
C 406.00 41.00 405.01 41.07 405.00 41.00
C 406.77 52.89 401.02 62.92 395.00 72.00
C 407.26 75.11 414.54 87.01 415.00 99.00 Z"/>
</g>
<g fill="None" fill-opacity="0.0" stroke="#EE6978" stroke-opacity="0.80" stroke-width="0.3"><path d="
M 99.00 58.00 
C 99.69 53.76 99.61 49.29 99.00 45.00
C 99.16 49.27 99.23 53.73 99.00 58.00 Z"/>
</g>
<g fill="None" fill-opacity="0.0" stroke="#F28591" stroke-opacity="0.72" stroke-width="0.3"><path d="
M 379.00 52.00 
C 379.66 49.32 380.06 47.81 379.00 45.00
C 379.42 46.94 379.23 50.03 379.00 52.00 Z"/>
</g>
<g fill="None" fill-opacity="0.0" stroke="#FFFFFF" stroke-opacity="0.01" stroke-width="0.3"><path d="
M 143.00 58.00 
C 145.99 57.94 149.01 57.94 152.00 58.00
C 149.09 57.65 145.97 57.64 143.00 58.00 Z"/>
</g>
<g fill="None" fill-opacity="0.0" stroke="#FDEBED" stroke-opacity="0.21" stroke-width="0.3"><path d="
M 105.00 97.00 
C 105.00 96.96 106.00 97.00 106.00 97.00
C 106.45 88.76 109.56 79.81 114.00 73.00
C 115.72 70.36 118.41 67.69 121.00 66.00
C 126.39 62.48 133.38 60.25 140.00 60.00
C 144.87 59.30 150.20 59.31 155.00 60.00
C 173.09 60.69 185.64 76.81 187.00 94.00
C 187.04 94.13 188.00 94.00 188.00 94.00
C 186.90 73.78 172.58 58.41 152.00 58.00
C 149.01 57.94 145.99 57.94 143.00 58.00
C 120.91 58.44 105.82 75.54 105.00 97.00 Z"/>
</g>
<g fill="None" fill-opacity="0.0" stroke="#ED6575" stroke-opacity="0.81" stroke-width="0.3"><path d="
M 140.00 60.00 
C 144.95 59.81 150.05 59.81 155.00 60.00
C 150.20 59.31 144.87 59.30 140.00 60.00 Z"/>
</g>
<g fill="None" fill-opacity="0.0" stroke="#ED6271" stroke-opacity="0.82" stroke-width="0.3"><path d="
M 228.00 60.00 
C 233.11 59.72 238.18 60.10 243.00 61.00
C 237.73 59.40 233.52 59.10 228.00 60.00 Z"/>
</g>
<g fill="None" fill-opacity="0.0" stroke="#E51D32" stroke-opacity="0.99" stroke-width="0.3"><path d="
M 121.00 66.00 
C 119.10 67.45 115.41 71.16 114.00 73.00
C 109.56 79.81 106.45 88.76 106.00 97.00
C 105.84 99.92 105.80 103.08 106.00 106.00
C 107.38 126.24 123.33 139.93 143.00 141.00
C 146.90 141.21 151.10 141.27 155.00 141.00
C 166.70 140.20 179.26 133.20 184.00 122.00
C 177.63 118.81 171.34 115.75 165.00 113.00
C 157.21 127.96 133.64 124.47 131.00 108.00
C 130.80 107.04 131.16 105.97 131.00 105.00
C 149.67 105.00 168.33 105.00 187.00 105.00
C 187.00 101.37 187.29 97.61 187.00 94.00
C 185.64 76.81 173.09 60.69 155.00 60.00
C 150.05 59.81 144.95 59.81 140.00 60.00
C 133.38 60.25 126.39 62.48 121.00 66.00
M 162.00 88.00 
C 162.97 94.34 152.61 92.00 147.00 92.00 C 141.39 92.00 130.98 94.34 132.00 88.00
C 134.52 72.35 159.60 72.24 162.00 88.00 Z"/>
</g>
<g fill="None" fill-opacity="0.0" stroke="#FEF1F3" stroke-opacity="0.17" stroke-width="0.3"><path d="
M 422.00 64.00 
C 421.48 68.26 422.27 72.72 422.00 77.00
C 420.79 95.95 415.52 125.45 437.75 139.25 C 459.99 153.04 500.33 144.71 502.00 114.00
C 502.00 114.04 501.00 114.00 501.00 114.00
C 497.88 153.36 426.16 153.77 424.00 114.00
C 421.43 98.18 422.99 79.64 423.00 63.00
C 423.00 62.50 423.00 62.00 423.00 62.00
C 422.20 61.14 421.98 64.19 422.00 64.00 Z"/>
</g>
<g fill="None" fill-opacity="0.0" stroke="#F6E4E7" stroke-opacity="0.33" stroke-width="0.3"><path d="
M 423.00 63.00 
C 430.85 63.71 439.11 63.00 447.00 63.00
C 447.50 63.00 448.00 63.00 448.00 63.00
C 448.00 62.50 448.00 62.00 448.00 62.00
C 440.12 61.29 430.88 61.29 423.00 62.00
C 423.00 62.00 423.00 62.50 423.00 63.00 Z"/>
</g>
<g fill="None" fill-opacity="0.0" stroke="#FEF7F7" stroke-opacity="0.14" stroke-width="0.3"><path d="
M 448.00 63.00 
C 448.00 77.46 446.69 92.61 448.00 107.00
C 449.52 114.34 451.19 118.98 459.00 121.00
C 461.03 121.25 463.98 121.34 466.00 121.00
C 472.11 119.07 474.53 114.92 476.00 109.00
C 477.84 94.18 475.99 77.95 476.00 63.00
C 476.00 62.50 476.00 62.00 476.00 62.00
C 471.57 66.26 476.54 78.71 475.00 85.00 C 473.46 91.29 476.17 102.41 474.93 108.93 C 473.68 115.44 468.77 120.31 462.01 119.99 C 455.24 119.68 450.99 115.06 449.33 108.67 C 447.67 102.28 450.57 91.26 449.00 85.00 C 447.43 78.74 452.46 66.29 448.00 62.00
C 448.00 62.00 448.00 62.50 448.00 63.00 Z"/>
</g>
<g fill="None" fill-opacity="0.0" stroke="#FBEEEF" stroke-opacity="0.27" stroke-width="0.3"><path d="
M 476.00 63.00 
C 479.69 63.33 485.54 62.37 489.00 63.00 C 492.46 63.63 499.03 61.18 501.00 64.00
C 503.52 67.60 500.06 75.29 501.00 80.00 C 501.94 84.71 500.80 91.86 501.00 97.00 C 501.20 102.14 501.41 108.77 501.00 114.00
C 501.00 114.00 502.00 114.04 502.00 114.00
C 502.00 96.67 502.00 79.33 502.00 62.00
C 493.39 62.58 484.60 61.22 476.00 62.00
C 476.00 62.00 476.00 62.50 476.00 63.00 Z"/>
</g>
<g fill="None" fill-opacity="0.0" stroke="#F39CA5" stroke-opacity="0.65" stroke-width="0.3"><path d="
M 376.00 85.00 
C 371.33 82.68 364.50 84.65 359.00 84.00
C 359.00 77.00 359.00 70.00 359.00 63.00
C 356.24 64.93 357.59 79.10 358.08 82.92 C 358.58 86.73 372.84 84.65 376.00 85.00 Z"/>
</g>
<g fill="None" fill-opacity="0.0" stroke="#EA5164" stroke-opacity="0.86" stroke-width="0.3"><path d="
M 424.00 114.00 
C 423.10 97.38 424.68 80.63 424.00 64.00
C 431.67 64.00 439.33 64.00 447.00 64.00
C 447.00 63.50 447.00 63.00 447.00 63.00
C 439.11 63.00 430.85 63.71 423.00 63.00
C 422.99 79.64 421.43 98.18 424.00 114.00 Z"/>
</g>
<g fill="None" fill-opacity="0.0" stroke="#F0828F" stroke-opacity="0.73" stroke-width="0.3"><path d="
M 447.00 64.00 
C 447.00 77.87 445.32 94.06 448.00 107.00
C 446.69 92.61 448.00 77.46 448.00 63.00
C 448.00 63.00 447.50 63.00 447.00 63.00
C 447.00 63.00 447.00 63.50 447.00 64.00 Z"/>
</g>
<g fill="None" fill-opacity="0.0" stroke="#ED6979" stroke-opacity="0.80" stroke-width="0.3"><path d="
M 476.00 109.00 
C 479.42 95.18 475.52 78.64 477.00 64.00
C 485.00 64.00 493.00 64.00 501.00 64.00
C 499.03 61.18 492.46 63.63 489.00 63.00 C 485.54 62.37 479.69 63.33 476.00 63.00
C 475.99 77.95 477.84 94.18 476.00 109.00 Z"/>
</g>
<g fill="None" fill-opacity="0.0" stroke="#FFFFFF" stroke-opacity="0.00" stroke-width="0.3"><path d="
M 422.00 77.00 
C 422.27 72.72 421.48 68.26 422.00 64.00
C 420.27 68.24 421.81 72.90 422.00 77.00 Z"/>
</g>
<g fill="None" fill-opacity="0.0" stroke="#E51A30" stroke-opacity="0.99" stroke-width="0.3"><path d="
M 424.00 114.00 
C 426.16 153.77 497.88 153.36 501.00 114.00
C 501.41 108.77 501.20 102.14 501.00 97.00 C 500.80 91.86 501.94 84.71 501.00 80.00 C 500.06 75.29 503.52 67.60 501.00 64.00
C 493.00 64.00 485.00 64.00 477.00 64.00
C 475.52 78.64 479.42 95.18 476.00 109.00
C 474.53 114.92 472.11 119.07 466.00 121.00
C 463.19 121.89 461.72 121.71 459.00 121.00
C 451.19 118.98 449.52 114.34 448.00 107.00
C 445.32 94.06 447.00 77.87 447.00 64.00
C 439.33 64.00 431.67 64.00 424.00 64.00
C 424.68 80.63 423.10 97.38 424.00 114.00 Z"/>
</g>
<g fill="None" fill-opacity="0.0" stroke="#FAD8DD" stroke-opacity="0.40" stroke-width="0.3"><path d="
M 114.00 73.00 
C 115.41 71.16 119.10 67.45 121.00 66.00
C 118.41 67.69 115.72 70.36 114.00 73.00 Z"/>
</g>
<g fill="None" fill-opacity="0.0" stroke="#EF7D8A" stroke-opacity="0.75" stroke-width="0.3"><path d="
M 51.00 99.00 
C 51.00 89.33 51.00 79.67 51.00 70.00
C 54.15 70.52 57.50 69.73 60.00 69.00
C 56.67 69.00 53.33 69.00 50.00 69.00
C 51.39 78.56 47.70 90.28 51.00 99.00 Z"/>
</g>
<g fill="None" fill-opacity="0.0" stroke="#FBE3E6" stroke-opacity="0.27" stroke-width="0.3"><path d="
M 132.00 88.00 
C 132.17 88.97 131.86 90.02 132.00 91.00
C 142.00 91.00 152.00 91.00 162.00 91.00
C 162.00 90.00 162.00 89.00 162.00 88.00
C 159.60 72.24 134.52 72.35 132.00 88.00
M 161.00 90.00 
C 151.67 90.00 142.33 90.00 133.00 90.00
C 134.98 74.63 159.01 74.62 161.00 90.00 Z"/>
</g>
<g fill="None" fill-opacity="0.0" stroke="#000000" stroke-opacity="0.00" stroke-width="0.3"><path d="
M 161.00 90.00 
C 159.01 74.62 134.98 74.63 133.00 90.00
C 142.33 90.00 151.67 90.00 161.00 90.00 Z"/>
</g>
<g fill="None" fill-opacity="0.0" stroke="#FDE9EB" stroke-opacity="0.22" stroke-width="0.3"><path d="
M 223.00 96.00 
C 222.74 98.50 222.77 101.50 223.00 104.00
C 224.56 111.54 228.17 116.97 236.00 119.00
C 238.37 119.32 241.63 119.32 244.00 119.00
C 258.35 115.28 266.70 97.42 254.75 85.25 C 242.79 73.09 226.29 81.17 223.00 96.00
M 242.00 81.00 
C 263.19 82.78 263.93 116.82 240.98 117.98 C 218.02 119.13 218.70 79.04 242.00 81.00 Z"/>
</g>
<g fill="None" fill-opacity="0.0" stroke="#000000" stroke-opacity="0.00" stroke-width="0.3"><path d="
M 242.00 81.00 
C 218.70 79.04 218.02 119.13 240.98 117.98 C 263.93 116.82 263.19 82.78 242.00 81.00 Z"/>
</g>
<g fill="None" fill-opacity="0.0" stroke="#E94F61" stroke-opacity="0.87" stroke-width="0.3"><path d="
M 162.00 88.00 
C 162.00 89.00 162.00 90.00 162.00 91.00
C 152.00 91.00 142.00 91.00 132.00 91.00
C 131.86 90.02 132.17 88.97 132.00 88.00
C 130.98 94.34 141.39 92.00 147.00 92.00 C 152.61 92.00 162.97 94.34 162.00 88.00 Z"/>
</g>
<g fill="None" fill-opacity="0.0" stroke="#F6B4BB" stroke-opacity="0.56" stroke-width="0.3"><path d="
M 196.00 94.00 
C 196.00 97.33 196.00 100.67 196.00 104.00
C 196.00 104.50 196.03 105.50 196.00 106.00
C 196.00 106.00 197.00 105.99 197.00 106.00
C 196.77 101.75 196.77 97.25 197.00 93.00
C 197.00 93.00 196.25 92.75 196.00 93.00
C 196.00 93.00 196.00 93.50 196.00 94.00 Z"/>
</g>
<g fill="None" fill-opacity="0.0" stroke="#FAD9DD" stroke-opacity="0.39" stroke-width="0.3"><path d="
M 187.00 105.00 
C 187.00 105.50 187.00 106.00 187.00 106.00
C 187.50 106.00 188.00 106.00 188.00 106.00
C 188.35 102.15 188.21 97.86 188.00 94.00
C 188.00 94.00 187.04 94.13 187.00 94.00
C 187.29 97.61 187.00 101.37 187.00 105.00 Z"/>
</g>
<g fill="None" fill-opacity="0.0" stroke="#FFFFFF" stroke-opacity="0.03" stroke-width="0.3"><path d="
M 196.00 104.00 
C 196.00 100.67 196.00 97.33 196.00 94.00
C 194.09 96.58 194.87 101.33 196.00 104.00 Z"/>
</g>
<g fill="None" fill-opacity="0.0" stroke="#F2939E" stroke-opacity="0.68" stroke-width="0.3"><path d="
M 223.00 104.00 
C 222.77 101.50 222.74 98.50 223.00 96.00
C 222.35 98.95 222.38 101.01 223.00 104.00 Z"/>
</g>
<g fill="None" fill-opacity="0.0" stroke="#F9D0D5" stroke-opacity="0.44" stroke-width="0.3"><path d="
M 105.00 106.00 
C 105.00 106.05 106.00 106.00 106.00 106.00
C 105.80 103.08 105.84 99.92 106.00 97.00
C 106.00 97.00 105.00 96.96 105.00 97.00
C 104.89 99.97 104.89 103.03 105.00 106.00 Z"/>
</g>
<g fill="None" fill-opacity="0.0" stroke="#FCDEE1" stroke-opacity="0.29" stroke-width="0.3"><path d="
M 389.00 98.00 
C 390.55 121.17 364.81 112.94 351.00 116.00
C 350.95 116.35 350.00 117.00 350.00 117.00
C 352.03 121.06 365.12 116.65 370.00 118.00 C 374.88 119.35 380.81 115.54 385.25 112.25 C 389.69 108.95 390.13 101.86 389.00 97.00
C 389.00 97.00 388.97 97.50 389.00 98.00 Z"/>
</g>
<g fill="None" fill-opacity="0.0" stroke="#F49EA7" stroke-opacity="0.64" stroke-width="0.3"><path d="
M 415.00 108.00 
C 415.35 105.52 416.00 102.19 416.00 99.00
C 416.00 99.00 415.00 98.98 415.00 99.00
C 415.11 101.97 415.11 105.03 415.00 108.00 Z"/>
</g>
<g fill="None" fill-opacity="0.0" stroke="#F6B5BC" stroke-opacity="0.56" stroke-width="0.3"><path d="
M 131.00 108.00 
C 131.01 108.07 132.00 108.00 132.00 108.00
C 132.00 108.00 131.75 107.26 132.00 107.00
C 135.44 103.45 143.71 106.85 149.00 106.00 C 154.29 105.15 162.21 106.32 168.00 106.00 C 173.79 105.68 181.08 106.00 187.00 106.00
C 187.00 106.00 187.00 105.50 187.00 105.00
C 168.33 105.00 149.67 105.00 131.00 105.00
C 131.16 105.97 130.80 107.04 131.00 108.00 Z"/>
</g>
<g fill="None" fill-opacity="0.0" stroke="#FDEDEF" stroke-opacity="0.19" stroke-width="0.3"><path d="
M 132.00 108.00 
C 132.00 108.00 131.01 108.07 131.00 108.00
C 133.64 124.47 157.21 127.96 165.00 113.00
C 171.34 115.75 177.63 118.81 184.00 122.00
C 179.26 133.20 166.70 140.20 155.00 141.00
C 150.95 141.72 146.97 141.64 143.00 141.00
C 123.33 139.93 107.38 126.24 106.00 106.00
C 106.00 106.00 105.00 106.05 105.00 106.00
C 105.32 117.32 110.36 128.62 119.77 135.23 C 129.18 141.84 142.06 145.36 153.93 143.93 C 165.80 142.49 174.27 138.13 182.70 128.70 C 191.12 119.26 171.44 114.70 164.00 111.00
C 155.71 127.69 138.66 120.73 132.00 108.00 Z"/>
</g>
<g fill="None" fill-opacity="0.0" stroke="#FFFFFF" stroke-opacity="0.10" stroke-width="0.3"><path d="
M 132.00 107.00 
C 137.93 106.46 145.20 107.60 151.00 107.00 C 156.80 106.40 164.68 108.06 170.00 107.00 C 175.32 105.94 184.44 109.70 188.00 106.00
C 188.00 106.00 187.50 106.00 187.00 106.00
C 181.08 106.00 173.79 105.68 168.00 106.00 C 162.21 106.32 154.29 105.15 149.00 106.00 C 143.71 106.85 135.44 103.45 132.00 107.00 Z"/>
</g>
<g fill="None" fill-opacity="0.0" stroke="#EF7482" stroke-opacity="0.77" stroke-width="0.3"><path d="
M 244.00 119.00 
C 241.63 119.32 238.37 119.32 236.00 119.00
C 238.99 119.77 240.96 119.79 244.00 119.00 Z"/>
</g>
<g fill="None" fill-opacity="0.0" stroke="#F3919C" stroke-opacity="0.68" stroke-width="0.3"><path d="
M 466.00 121.00 
C 463.98 121.34 461.03 121.25 459.00 121.00
C 461.72 121.71 463.19 121.89 466.00 121.00 Z"/>
</g>
<g fill="None" fill-opacity="0.0" stroke="#EC6676" stroke-opacity="0.81" stroke-width="0.3"><path d="
M 260.00 139.00 
C 259.50 136.15 261.08 132.10 259.00 130.00
C 259.73 132.53 257.61 137.33 260.00 139.00 Z"/>
</g>
<g fill="None" fill-opacity="0.0" stroke="#FADCDE" stroke-opacity="0.38" stroke-width="0.3"><path d="
M 42.00 139.00 
C 33.67 139.00 25.33 139.00 17.00 139.00
C 17.00 139.00 16.00 139.04 16.00 139.00
C 18.35 141.44 25.48 139.83 29.00 140.00 C 32.52 140.17 39.31 140.99 42.00 139.00 Z"/>
</g>
<g fill="None" fill-opacity="0.0" stroke="#FADCDF" stroke-opacity="0.38" stroke-width="0.3"><path d="
M 383.00 139.00 
C 364.29 141.26 343.87 139.00 325.00 139.00
C 325.00 139.00 324.00 139.04 324.00 139.00
C 327.72 142.87 338.45 138.86 344.00 140.00 C 349.55 141.14 358.05 139.51 364.00 140.00 C 369.95 140.49 377.71 140.29 383.00 139.00 Z"/>
</g>
<g fill="None" fill-opacity="0.0" stroke="#F28996" stroke-opacity="0.71" stroke-width="0.3"><path d="
M 155.00 141.00 
C 151.10 141.27 146.90 141.21 143.00 141.00
C 146.97 141.64 150.95 141.72 155.00 141.00 Z"/>
</g>
<g fill="#000000" fill-opacity="0.00" stroke="None">
<path d="
M 0.00 151.00 
L 640.00 151.00
L 640.00 0.00
L 0.00 0.00
L 0.00 151.00
M 614.00 6.00 
C 633.73 10.89 624.21 46.29 603.99 39.01 C 583.78 31.73 591.95 0.54 614.00 6.00
M 196.00 106.00 
C 196.03 105.50 196.00 104.50 196.00 104.00
C 194.87 101.33 194.09 96.58 196.00 94.00
C 196.00 93.50 196.00 93.00 196.00 93.00
C 192.73 62.77 236.47 47.00 257.00 65.00
C 256.76 55.66 257.31 49.68 257.00 40.00 C 256.69 30.32 257.60 25.92 257.00 15.00 C 256.40 4.08 265.05 8.38 275.00 7.00 C 284.95 5.62 286.04 12.82 285.00 22.00 C 283.96 31.18 285.45 39.23 285.00 48.00 C 284.55 56.77 285.11 64.51 285.00 73.00 C 284.89 81.49 284.83 89.68 285.00 98.00 C 285.17 106.32 284.48 115.96 285.00 124.00 C 285.52 132.04 286.42 142.99 277.00 141.00 C 267.58 139.01 257.15 146.06 258.00 134.00
C 235.37 153.41 194.83 137.48 196.00 106.00
M 541.00 7.00 
C 541.00 51.67 541.00 96.33 541.00 141.00
C 529.59 140.57 512.70 145.39 514.00 131.00 C 515.30 116.61 513.69 106.71 514.00 93.00 C 514.31 79.29 514.55 69.81 514.00 56.00 C 513.45 42.19 515.71 32.75 514.00 18.00 C 512.29 3.25 528.85 6.78 541.00 7.00
M 582.00 9.00 
C 585.35 15.92 580.60 27.18 582.00 35.00 C 583.40 42.82 581.62 52.84 582.00 61.00 C 582.38 69.16 582.38 78.84 582.00 87.00 C 581.62 95.16 583.40 105.18 582.00 113.00 C 580.60 120.82 585.35 132.08 582.00 139.00
C 579.12 144.96 562.02 138.70 556.00 141.00
C 556.00 96.33 556.00 51.67 556.00 7.00
C 564.19 8.28 576.23 4.41 582.00 9.00
M 61.00 11.00 
C 80.06 13.30 98.29 22.09 100.93 43.07 C 103.56 64.06 94.90 85.05 73.00 88.00
C 84.37 105.58 97.09 122.19 108.00 140.00
C 96.40 140.55 77.99 145.37 71.23 134.77 C 64.47 124.17 61.66 118.14 54.23 107.77 C 46.80 97.40 49.07 81.03 49.00 68.00
C 60.12 69.66 74.11 63.31 72.00 50.00 C 69.89 36.69 53.76 37.21 43.00 38.00
C 43.00 71.67 43.00 105.33 43.00 139.00
C 42.77 142.94 33.58 140.44 30.00 141.00 C 26.42 141.56 18.93 140.58 15.00 141.00
C 15.00 97.33 15.00 53.67 15.00 10.00
C 30.17 10.67 46.66 8.67 61.00 11.00
M 406.00 41.00 
C 407.67 51.52 404.65 62.99 397.00 71.00
C 408.24 74.57 417.08 85.74 416.00 98.00
C 418.23 116.41 410.63 135.13 389.99 138.99 C 369.35 142.85 344.66 140.28 323.00 141.00
C 322.84 127.48 323.21 114.58 323.00 101.00 C 322.79 87.42 323.41 74.81 323.00 61.00 C 322.59 47.19 323.87 35.36 323.00 21.00 C 322.12 6.64 342.80 12.85 354.00 12.00 C 365.20 11.15 379.27 12.59 389.08 16.92 C 398.89 21.25 405.32 30.74 406.00 41.00
M 152.00 58.00 
C 172.58 58.41 186.90 73.78 188.00 94.00
C 188.21 97.86 188.35 102.15 188.00 106.00
C 184.44 109.70 175.32 105.94 170.00 107.00 C 164.68 108.06 156.80 106.40 151.00 107.00 C 145.20 107.60 137.93 106.46 132.00 107.00
C 131.75 107.26 132.00 108.00 132.00 108.00
C 138.66 120.73 155.71 127.69 164.00 111.00
C 171.44 114.70 191.12 119.26 182.70 128.70 C 174.27 138.13 165.80 142.49 153.93 143.93 C 142.06 145.36 129.18 141.84 119.77 135.23 C 110.36 128.62 105.32 117.32 105.00 106.00
C 104.89 103.03 104.89 99.97 105.00 97.00
C 105.82 75.54 120.91 58.44 143.00 58.00
C 145.97 57.64 149.09 57.65 152.00 58.00
M 476.00 62.00 
C 484.60 61.22 493.39 62.58 502.00 62.00
C 502.00 79.33 502.00 96.67 502.00 114.00
C 500.33 144.71 459.99 153.04 437.75 139.25 C 415.52 125.45 420.79 95.95 422.00 77.00
C 421.81 72.90 420.27 68.24 422.00 64.00
C 421.98 64.19 422.20 61.14 423.00 62.00
C 430.88 61.29 440.12 61.29 448.00 62.00
C 452.46 66.29 447.43 78.74 449.00 85.00 C 450.57 91.26 447.67 102.28 449.33 108.67 C 450.99 115.06 455.24 119.68 462.01 119.99 C 468.77 120.31 473.68 115.44 474.93 108.93 C 476.17 102.41 473.46 91.29 475.00 85.00 C 476.54 78.71 471.57 66.26 476.00 62.00 Z"/>
</g>
<g fill="#FDF0F2" fill-opacity="0.17" stroke="None">
<path d="
M 614.00 6.00 
C 591.95 0.54 583.78 31.73 603.99 39.01 C 624.21 46.29 633.73 10.89 614.00 6.00
M 612.00 7.00 
C 631.21 10.61 624.46 41.77 605.00 37.00 C 585.54 32.23 593.25 3.48 612.00 7.00 Z"/>
</g>
<g fill="#FCE8EA" fill-opacity="0.22" stroke="None">
<path d="
M 196.00 93.00 
C 196.25 92.75 197.00 93.00 197.00 93.00
C 197.88 76.70 211.12 60.92 228.00 60.00
C 233.52 59.10 237.73 59.40 243.00 61.00
C 248.75 62.07 253.56 65.02 259.00 67.00
C 259.00 47.67 259.00 28.33 259.00 9.00
C 267.00 9.00 275.00 9.00 283.00 9.00
C 283.00 52.33 283.00 95.67 283.00 139.00
C 275.33 139.00 267.67 139.00 260.00 139.00
C 257.61 137.33 259.73 132.53 259.00 130.00
C 236.61 151.55 198.66 136.64 197.00 106.00
C 197.00 105.99 196.00 106.00 196.00 106.00
C 194.83 137.48 235.37 153.41 258.00 134.00
C 257.15 146.06 267.58 139.01 277.00 141.00 C 286.42 142.99 285.52 132.04 285.00 124.00 C 284.48 115.96 285.17 106.32 285.00 98.00 C 284.83 89.68 284.89 81.49 285.00 73.00 C 285.11 64.51 284.55 56.77 285.00 48.00 C 285.45 39.23 283.96 31.18 285.00 22.00 C 286.04 12.82 284.95 5.62 275.00 7.00 C 265.05 8.38 256.40 4.08 257.00 15.00 C 257.60 25.92 256.69 30.32 257.00 40.00 C 257.31 49.68 256.76 55.66 257.00 65.00
C 236.47 47.00 192.73 62.77 196.00 93.00 Z"/>
</g>
<g fill="#FDECED" fill-opacity="0.22" stroke="None">
<path d="
M 541.00 7.00 
C 528.85 6.78 512.29 3.25 514.00 18.00 C 515.71 32.75 513.45 42.19 514.00 56.00 C 514.55 69.81 514.31 79.29 514.00 93.00 C 513.69 106.71 515.30 116.61 514.00 131.00 C 512.70 145.39 529.59 140.57 541.00 141.00
C 541.00 96.33 541.00 51.67 541.00 7.00
M 540.00 9.00 
C 540.00 52.33 540.00 95.67 540.00 139.00
C 532.00 139.00 524.00 139.00 516.00 139.00
C 516.00 95.67 516.00 52.33 516.00 9.00
C 524.00 9.00 532.00 9.00 540.00 9.00 Z"/>
</g>
<g fill="#FFFEFE" fill-opacity="0.09" stroke="None">
<path d="
M 582.00 139.00 
C 580.25 141.48 572.93 139.93 570.00 140.00 C 567.07 140.07 559.05 141.13 557.00 139.00
C 555.05 117.74 557.01 95.36 557.00 74.00 C 556.99 52.64 555.08 30.27 557.00 9.00
C 558.90 7.02 566.15 7.70 569.00 8.00 C 571.85 8.30 580.15 6.38 582.00 9.00
C 576.23 4.41 564.19 8.28 556.00 7.00
C 556.00 51.67 556.00 96.33 556.00 141.00
C 562.02 138.70 579.12 144.96 582.00 139.00 Z"/>
</g>
<g fill="#EC5C67" fill-opacity="0.84" stroke="None">
<path d="
M 612.00 7.00 
C 593.25 3.48 585.54 32.23 605.00 37.00 C 624.46 41.77 631.21 10.61 612.00 7.00
M 611.00 9.00 
C 626.72 11.43 623.98 37.27 607.00 35.00 C 590.02 32.73 594.03 6.38 611.00 9.00 Z"/>
</g>
<g fill="#FBE4E7" fill-opacity="0.33" stroke="None">
<path d="
M 557.00 9.00 
C 557.00 8.96 558.00 9.00 558.00 9.00
C 565.67 9.00 573.33 9.00 581.00 9.00
C 581.00 52.33 581.00 95.67 581.00 139.00
C 573.33 139.00 565.67 139.00 558.00 139.00
C 557.50 139.00 557.00 139.00 557.00 139.00
C 559.05 141.13 567.07 140.07 570.00 140.00 C 572.93 139.93 580.25 141.48 582.00 139.00
C 585.35 132.08 580.60 120.82 582.00 113.00 C 583.40 105.18 581.62 95.16 582.00 87.00 C 582.38 78.84 582.38 69.16 582.00 61.00 C 581.62 52.84 583.40 42.82 582.00 35.00 C 580.60 27.18 585.35 15.92 582.00 9.00
C 580.15 6.38 571.85 8.30 569.00 8.00 C 566.15 7.70 558.90 7.02 557.00 9.00 Z"/>
</g>
<g fill="#E51A30" fill-opacity="0.99" stroke="None">
<path d="
M 243.00 61.00 
C 238.18 60.10 233.11 59.72 228.00 60.00
C 211.12 60.92 197.88 76.70 197.00 93.00
C 196.77 97.25 196.77 101.75 197.00 106.00
C 198.66 136.64 236.61 151.55 259.00 130.00
C 261.08 132.10 259.50 136.15 260.00 139.00
C 267.67 139.00 275.33 139.00 283.00 139.00
C 283.00 95.67 283.00 52.33 283.00 9.00
C 275.00 9.00 267.00 9.00 259.00 9.00
C 259.00 28.33 259.00 47.67 259.00 67.00
C 253.56 65.02 248.75 62.07 243.00 61.00
M 244.00 119.00 
C 240.96 119.79 238.99 119.77 236.00 119.00
C 228.17 116.97 224.56 111.54 223.00 104.00
C 222.38 101.01 222.35 98.95 223.00 96.00
C 226.29 81.17 242.79 73.09 254.75 85.25 C 266.70 97.42 258.35 115.28 244.00 119.00 Z"/>
</g>
<g fill="#E51930" fill-opacity="0.99" stroke="None">
<path d="
M 540.00 9.00 
C 532.00 9.00 524.00 9.00 516.00 9.00
C 516.00 52.33 516.00 95.67 516.00 139.00
C 524.00 139.00 532.00 139.00 540.00 139.00
C 540.00 95.67 540.00 52.33 540.00 9.00 Z"/>
</g>
<g fill="#EE6274" fill-opacity="0.82" stroke="None">
<path d="
M 557.00 139.00 
C 557.00 139.00 557.50 139.00 558.00 139.00
C 559.92 117.73 558.00 95.37 558.00 74.00 C 558.00 52.63 559.93 30.27 558.00 9.00
C 558.00 9.00 557.00 8.96 557.00 9.00
C 555.08 30.27 556.99 52.64 557.00 74.00 C 557.01 95.36 555.05 117.74 557.00 139.00 Z"/>
</g>
<g fill="#E5172F" fill-opacity="1.00" stroke="None">
<path d="
M 558.00 139.00 
C 565.67 139.00 573.33 139.00 581.00 139.00
C 581.00 95.67 581.00 52.33 581.00 9.00
C 573.33 9.00 565.67 9.00 558.00 9.00
C 559.93 30.27 558.00 52.63 558.00 74.00 C 558.00 95.37 559.92 117.73 558.00 139.00 Z"/>
</g>
<g fill="#F6E6E8" fill-opacity="0.20" stroke="None">
<path d="
M 611.00 9.00 
C 594.03 6.38 590.02 32.73 607.00 35.00 C 623.98 37.27 626.72 11.43 611.00 9.00
M 616.00 31.00 
C 611.48 24.65 618.08 17.78 612.00 12.00
C 620.40 13.40 622.93 26.23 616.00 31.00
M 610.00 14.00 
C 614.77 15.94 614.79 19.48 611.00 23.00
C 613.28 24.97 613.17 28.54 615.00 31.00
C 609.77 30.97 612.64 27.36 608.75 24.25 C 604.85 21.15 605.17 28.75 604.00 31.00
C 601.74 26.25 603.62 19.51 603.00 14.00
C 604.57 11.75 608.37 13.34 610.00 14.00
M 602.00 14.00 
C 601.09 19.83 601.44 24.63 602.00 31.00
C 595.09 28.99 595.47 16.16 602.00 14.00
M 608.00 25.00 
C 609.79 27.86 610.22 31.13 612.00 34.00
C 603.31 36.41 606.66 30.23 608.00 25.00 Z"/>
</g>
<g fill="#FEFEFE" fill-opacity="0.07" stroke="None">
<path d="
M 43.00 139.00 
C 43.00 139.04 42.00 139.00 42.00 139.00
C 39.31 140.99 32.52 140.17 29.00 140.00 C 25.48 139.83 18.35 141.44 16.00 139.00
C 12.17 96.68 18.87 53.41 16.00 11.00
C 29.50 11.67 44.32 9.67 57.00 12.00
C 58.00 12.00 59.00 12.00 60.00 12.00
C 60.27 11.87 60.65 11.07 61.00 11.00
C 46.66 8.67 30.17 10.67 15.00 10.00
C 15.00 53.67 15.00 97.33 15.00 141.00
C 18.93 140.58 26.42 141.56 30.00 141.00 C 33.58 140.44 42.77 142.94 43.00 139.00 Z"/>
</g>
<g fill="#F2929C" fill-opacity="0.68" stroke="None">
<path d="
M 16.00 139.00 
C 16.00 139.04 17.00 139.00 17.00 139.00
C 17.25 138.75 17.00 138.00 17.00 138.00
C 17.00 96.00 17.00 54.00 17.00 12.00
C 30.33 12.00 43.67 12.00 57.00 12.00
C 44.32 9.67 29.50 11.67 16.00 11.00
C 18.87 53.41 12.17 96.68 16.00 139.00 Z"/>
</g>
<g fill="#FEEFF0" fill-opacity="0.20" stroke="None">
<path d="
M 60.00 12.00 
C 78.79 11.92 98.24 25.13 99.00 45.00
C 99.61 49.29 99.69 53.76 99.00 58.00
C 98.18 73.11 85.59 84.69 71.00 87.00
C 80.77 105.03 95.50 120.82 105.00 139.00
C 91.28 140.37 74.22 141.14 69.08 127.92 C 63.94 114.69 55.96 111.56 51.00 99.00
C 47.70 90.28 51.39 78.56 50.00 69.00
C 53.33 69.00 56.67 69.00 60.00 69.00
C 79.26 63.39 76.22 40.04 58.00 36.00
C 52.72 35.46 47.29 36.41 42.00 36.00
C 44.31 70.12 38.92 104.94 42.00 139.00
C 42.00 139.00 43.00 139.04 43.00 139.00
C 43.00 105.33 43.00 71.67 43.00 38.00
C 53.76 37.21 69.89 36.69 72.00 50.00 C 74.11 63.31 60.12 69.66 49.00 68.00
C 49.07 81.03 46.80 97.40 54.23 107.77 C 61.66 118.14 64.47 124.17 71.23 134.77 C 77.99 145.37 96.40 140.55 108.00 140.00
C 97.09 122.19 84.37 105.58 73.00 88.00
C 94.90 85.05 103.56 64.06 100.93 43.07 C 98.29 22.09 80.06 13.30 61.00 11.00
C 60.65 11.07 60.27 11.87 60.00 12.00 Z"/>
</g>
<g fill="#E51930" fill-opacity="1.00" stroke="None">
<path d="
M 17.00 138.00 
C 24.94 137.28 33.05 138.54 41.00 138.00
C 41.67 104.17 39.67 69.01 42.00 36.00
C 44.94 33.06 54.80 35.29 58.00 36.00
C 76.22 40.04 79.26 63.39 60.00 69.00
C 57.50 69.73 54.15 70.52 51.00 70.00
C 51.00 79.67 51.00 89.33 51.00 99.00
C 55.96 111.56 63.94 114.69 69.08 127.92 C 74.22 141.14 91.28 140.37 105.00 139.00
C 95.50 120.82 80.77 105.03 71.00 87.00
C 85.59 84.69 98.18 73.11 99.00 58.00
C 99.23 53.73 99.16 49.27 99.00 45.00
C 98.24 25.13 78.79 11.92 60.00 12.00
C 59.00 12.00 58.00 12.00 57.00 12.00
C 43.67 12.00 30.33 12.00 17.00 12.00
C 17.00 54.00 17.00 96.00 17.00 138.00 Z"/>
</g>
<g fill="#FEF7F7" fill-opacity="0.13" stroke="None">
<path d="
M 416.00 98.00 
C 415.95 98.50 416.00 99.00 416.00 99.00
C 416.00 102.19 415.35 105.52 415.00 108.00
C 414.28 126.92 398.95 135.11 383.00 139.00
C 377.71 140.29 369.95 140.49 364.00 140.00 C 358.05 139.51 349.55 141.14 344.00 140.00 C 338.45 138.86 327.72 142.87 324.00 139.00
C 323.26 130.86 324.22 122.14 324.00 114.00 C 323.78 105.86 323.85 97.02 324.00 89.00 C 324.15 80.98 323.37 71.69 324.00 64.00 C 324.63 56.31 322.48 45.92 324.00 39.00 C 325.52 32.08 320.25 18.56 325.00 14.00
C 340.91 12.56 360.95 12.56 376.00 15.00
C 390.34 15.78 403.03 26.53 405.00 41.00
C 405.01 41.07 406.00 41.00 406.00 41.00
C 405.32 30.74 398.89 21.25 389.08 16.92 C 379.27 12.59 365.20 11.15 354.00 12.00 C 342.80 12.85 322.12 6.64 323.00 21.00 C 323.87 35.36 322.59 47.19 323.00 61.00 C 323.41 74.81 322.79 87.42 323.00 101.00 C 323.21 114.58 322.84 127.48 323.00 141.00
C 344.66 140.28 369.35 142.85 389.99 138.99 C 410.63 135.13 418.23 116.41 416.00 98.00 Z"/>
</g>
<g fill="#000000" fill-opacity="0.00" stroke="None">
<path d="
M 616.00 31.00 
C 622.93 26.23 620.40 13.40 612.00 12.00
C 618.08 17.78 611.48 24.65 616.00 31.00 Z"/>
</g>
<g fill="#F4A1AA" fill-opacity="0.63" stroke="None">
<path d="
M 603.00 14.00 
C 605.24 14.39 607.79 13.49 610.00 14.00
C 608.37 13.34 604.57 11.75 603.00 14.00 Z"/>
</g>
<g fill="#F3939D" fill-opacity="0.68" stroke="None">
<path d="
M 324.00 139.00 
C 324.00 139.04 325.00 139.00 325.00 139.00
C 326.85 118.53 324.31 97.56 325.00 77.00 C 325.69 56.44 325.00 35.59 325.00 15.00
C 325.00 14.50 325.00 14.00 325.00 14.00
C 320.25 18.56 325.52 32.08 324.00 39.00 C 322.48 45.92 324.63 56.31 324.00 64.00 C 323.37 71.69 324.15 80.98 324.00 89.00 C 323.85 97.02 323.78 105.86 324.00 114.00 C 324.22 122.14 323.26 130.86 324.00 139.00 Z"/>
</g>
<g fill="#ED6374" fill-opacity="0.81" stroke="None">
<path d="
M 325.00 15.00 
C 341.85 16.52 359.10 14.08 376.00 15.00
C 360.95 12.56 340.91 12.56 325.00 14.00
C 325.00 14.00 325.00 14.50 325.00 15.00 Z"/>
</g>
<g fill="#000000" fill-opacity="0.00" stroke="None">
<path d="
M 602.00 14.00 
C 595.47 16.16 595.09 28.99 602.00 31.00
C 601.44 24.63 601.09 19.83 602.00 14.00 Z"/>
</g>
<g fill="#E84150" fill-opacity="0.91" stroke="None">
<path d="
M 610.00 14.00 
C 607.79 13.49 605.24 14.39 603.00 14.00
C 603.62 19.51 601.74 26.25 604.00 31.00
C 605.17 28.75 604.85 21.15 608.75 24.25 C 612.64 27.36 609.77 30.97 615.00 31.00
C 613.17 28.54 613.28 24.97 611.00 23.00
C 614.79 19.48 614.77 15.94 610.00 14.00
M 609.00 16.00 
C 611.24 17.34 611.90 19.16 609.00 21.00
C 603.77 24.31 603.54 12.72 609.00 16.00 Z"/>
</g>
<g fill="#E51930" fill-opacity="0.99" stroke="None">
<path d="
M 325.00 139.00 
C 343.87 139.00 364.29 141.26 383.00 139.00
C 398.95 135.11 414.28 126.92 415.00 108.00
C 415.11 105.03 415.11 101.97 415.00 99.00
C 414.54 87.01 407.26 75.11 395.00 72.00
C 401.02 62.92 406.77 52.89 405.00 41.00
C 403.03 26.53 390.34 15.78 376.00 15.00
C 359.10 14.08 341.85 16.52 325.00 15.00
C 325.00 35.59 325.69 56.44 325.00 77.00 C 324.31 97.56 326.85 118.53 325.00 139.00
M 366.00 36.00 
C 366.50 36.00 367.51 35.94 368.00 36.00
C 372.77 36.60 377.27 40.43 379.00 45.00
C 380.06 47.81 379.66 49.32 379.00 52.00
C 377.87 56.56 376.98 58.38 373.30 61.30 C 369.63 64.22 362.26 60.72 359.00 63.00
C 359.00 70.00 359.00 77.00 359.00 84.00
C 364.50 84.65 371.33 82.68 376.00 85.00
C 381.68 86.32 389.67 89.48 389.00 97.00
C 390.13 101.86 389.69 108.95 385.25 112.25 C 380.81 115.54 374.88 119.35 370.00 118.00 C 365.12 116.65 352.03 121.06 350.00 117.00
C 348.14 111.20 350.59 103.12 350.00 97.00 C 349.41 90.88 349.71 83.07 350.00 77.00 C 350.29 70.93 348.64 62.63 350.00 57.00 C 351.36 51.37 346.86 40.49 350.00 36.00
C 351.96 33.21 363.62 34.99 366.00 36.00 Z"/>
</g>
<g fill="#F3939E" fill-opacity="0.67" stroke="None">
<path d="
M 609.00 21.00 
C 608.03 21.16 606.98 20.87 606.00 21.00
C 605.84 18.65 605.45 15.08 609.00 16.00
C 603.54 12.72 603.77 24.31 609.00 21.00 Z"/>
</g>
<g fill="#BAB2B3" fill-opacity="0.13" stroke="None">
<path d="
M 609.00 21.00 
C 611.90 19.16 611.24 17.34 609.00 16.00
C 605.45 15.08 605.84 18.65 606.00 21.00
C 606.98 20.87 608.03 21.16 609.00 21.00 Z"/>
</g>
<g fill="#000000" fill-opacity="0.00" stroke="None">
<path d="
M 608.00 25.00 
C 606.66 30.23 603.31 36.41 612.00 34.00
C 610.22 31.13 609.79 27.86 608.00 25.00 Z"/>
</g>
<g fill="#F298A2" fill-opacity="0.66" stroke="None">
<path d="
M 42.00 36.00 
C 47.29 36.41 52.72 35.46 58.00 36.00
C 54.80 35.29 44.94 33.06 42.00 36.00 Z"/>
</g>
<g fill="#F18695" fill-opacity="0.71" stroke="None">
<path d="
M 350.00 36.00 
C 355.33 36.00 360.67 36.00 366.00 36.00
C 363.62 34.99 351.96 33.21 350.00 36.00 Z"/>
</g>
<g fill="#EA4456" fill-opacity="0.89" stroke="None">
<path d="
M 17.00 138.00 
C 17.00 138.00 17.25 138.75 17.00 139.00
C 25.33 139.00 33.67 139.00 42.00 139.00
C 38.92 104.94 44.31 70.12 42.00 36.00
C 39.67 69.01 41.67 104.17 41.00 138.00
C 33.05 138.54 24.94 137.28 17.00 138.00 Z"/>
</g>
<g fill="#FEF3F3" fill-opacity="0.24" stroke="None">
<path d="
M 350.00 117.00 
C 350.00 117.00 350.95 116.35 351.00 116.00
C 351.89 109.82 350.38 103.21 351.00 97.00 C 351.62 90.79 350.22 83.04 351.00 77.00 C 351.78 70.96 349.48 63.51 351.00 58.00 C 352.52 52.49 347.90 42.43 351.00 38.00
C 352.19 36.31 366.10 35.93 368.00 36.00
C 367.51 35.94 366.50 36.00 366.00 36.00
C 360.67 36.00 355.33 36.00 350.00 36.00
C 346.86 40.49 351.36 51.37 350.00 57.00 C 348.64 62.63 350.29 70.93 350.00 77.00 C 349.71 83.07 349.41 90.88 350.00 97.00 C 350.59 103.12 348.14 111.20 350.00 117.00 Z"/>
</g>
<g fill="#FEF3F5" fill-opacity="0.14" stroke="None">
<path d="
M 351.00 38.00 
C 360.00 39.29 374.36 34.13 377.92 46.08 C 381.49 58.02 366.85 64.08 357.00 61.00
C 357.63 69.69 352.93 88.88 365.00 87.00 C 377.07 85.12 384.53 88.08 389.00 98.00
C 388.97 97.50 389.00 97.00 389.00 97.00
C 389.67 89.48 381.68 86.32 376.00 85.00
C 372.84 84.65 358.58 86.73 358.08 82.92 C 357.59 79.10 356.24 64.93 359.00 63.00
C 362.26 60.72 369.63 64.22 373.30 61.30 C 376.98 58.38 377.87 56.56 379.00 52.00
C 379.23 50.03 379.42 46.94 379.00 45.00
C 377.27 40.43 372.77 36.60 368.00 36.00
C 366.10 35.93 352.19 36.31 351.00 38.00 Z"/>
</g>
<g fill="#000000" fill-opacity="0.00" stroke="None">
<path d="
M 351.00 116.00 
C 364.81 112.94 390.55 121.17 389.00 98.00
C 384.53 88.08 377.07 85.12 365.00 87.00 C 352.93 88.88 357.63 69.69 357.00 61.00
C 366.85 64.08 381.49 58.02 377.92 46.08 C 374.36 34.13 360.00 39.29 351.00 38.00
C 347.90 42.43 352.52 52.49 351.00 58.00 C 349.48 63.51 351.78 70.96 351.00 77.00 C 350.22 83.04 351.62 90.79 351.00 97.00 C 350.38 103.21 351.89 109.82 351.00 116.00 Z"/>
</g>
<g fill="#FDE8EA" fill-opacity="0.23" stroke="None">
<path d="
M 415.00 99.00 
C 415.00 98.98 416.00 99.00 416.00 99.00
C 416.00 99.00 415.95 98.50 416.00 98.00
C 417.08 85.74 408.24 74.57 397.00 71.00
C 404.65 62.99 407.67 51.52 406.00 41.00
C 406.00 41.00 405.01 41.07 405.00 41.00
C 406.77 52.89 401.02 62.92 395.00 72.00
C 407.26 75.11 414.54 87.01 415.00 99.00 Z"/>
</g>
<g fill="#EE6978" fill-opacity="0.80" stroke="None">
<path d="
M 99.00 58.00 
C 99.69 53.76 99.61 49.29 99.00 45.00
C 99.16 49.27 99.23 53.73 99.00 58.00 Z"/>
</g>
<g fill="#F28591" fill-opacity="0.72" stroke="None">
<path d="
M 379.00 52.00 
C 379.66 49.32 380.06 47.81 379.00 45.00
C 379.42 46.94 379.23 50.03 379.00 52.00 Z"/>
</g>
<g fill="#FFFFFF" fill-opacity="0.01" stroke="None">
<path d="
M 143.00 58.00 
C 145.99 57.94 149.01 57.94 152.00 58.00
C 149.09 57.65 145.97 57.64 143.00 58.00 Z"/>
</g>
<g fill="#FDEBED" fill-opacity="0.21" stroke="None">
<path d="
M 105.00 97.00 
C 105.00 96.96 106.00 97.00 106.00 97.00
C 106.45 88.76 109.56 79.81 114.00 73.00
C 115.72 70.36 118.41 67.69 121.00 66.00
C 126.39 62.48 133.38 60.25 140.00 60.00
C 144.87 59.30 150.20 59.31 155.00 60.00
C 173.09 60.69 185.64 76.81 187.00 94.00
C 187.04 94.13 188.00 94.00 188.00 94.00
C 186.90 73.78 172.58 58.41 152.00 58.00
C 149.01 57.94 145.99 57.94 143.00 58.00
C 120.91 58.44 105.82 75.54 105.00 97.00 Z"/>
</g>
<g fill="#ED6575" fill-opacity="0.81" stroke="None">
<path d="
M 140.00 60.00 
C 144.95 59.81 150.05 59.81 155.00 60.00
C 150.20 59.31 144.87 59.30 140.00 60.00 Z"/>
</g>
<g fill="#ED6271" fill-opacity="0.82" stroke="None">
<path d="
M 228.00 60.00 
C 233.11 59.72 238.18 60.10 243.00 61.00
C 237.73 59.40 233.52 59.10 228.00 60.00 Z"/>
</g>
<g fill="#E51D32" fill-opacity="0.99" stroke="None">
<path d="
M 121.00 66.00 
C 119.10 67.45 115.41 71.16 114.00 73.00
C 109.56 79.81 106.45 88.76 106.00 97.00
C 105.84 99.92 105.80 103.08 106.00 106.00
C 107.38 126.24 123.33 139.93 143.00 141.00
C 146.90 141.21 151.10 141.27 155.00 141.00
C 166.70 140.20 179.26 133.20 184.00 122.00
C 177.63 118.81 171.34 115.75 165.00 113.00
C 157.21 127.96 133.64 124.47 131.00 108.00
C 130.80 107.04 131.16 105.97 131.00 105.00
C 149.67 105.00 168.33 105.00 187.00 105.00
C 187.00 101.37 187.29 97.61 187.00 94.00
C 185.64 76.81 173.09 60.69 155.00 60.00
C 150.05 59.81 144.95 59.81 140.00 60.00
C 133.38 60.25 126.39 62.48 121.00 66.00
M 162.00 88.00 
C 162.97 94.34 152.61 92.00 147.00 92.00 C 141.39 92.00 130.98 94.34 132.00 88.00
C 134.52 72.35 159.60 72.24 162.00 88.00 Z"/>
</g>
<g fill="#FEF1F3" fill-opacity="0.17" stroke="None">
<path d="
M 422.00 64.00 
C 421.48 68.26 422.27 72.72 422.00 77.00
C 420.79 95.95 415.52 125.45 437.75 139.25 C 459.99 153.04 500.33 144.71 502.00 114.00
C 502.00 114.04 501.00 114.00 501.00 114.00
C 497.88 153.36 426.16 153.77 424.00 114.00
C 421.43 98.18 422.99 79.64 423.00 63.00
C 423.00 62.50 423.00 62.00 423.00 62.00
C 422.20 61.14 421.98 64.19 422.00 64.00 Z"/>
</g>
<g fill="#F6E4E7" fill-opacity="0.33" stroke="None">
<path d="
M 423.00 63.00 
C 430.85 63.71 439.11 63.00 447.00 63.00
C 447.50 63.00 448.00 63.00 448.00 63.00
C 448.00 62.50 448.00 62.00 448.00 62.00
C 440.12 61.29 430.88 61.29 423.00 62.00
C 423.00 62.00 423.00 62.50 423.00 63.00 Z"/>
</g>
<g fill="#FEF7F7" fill-opacity="0.14" stroke="None">
<path d="
M 448.00 63.00 
C 448.00 77.46 446.69 92.61 448.00 107.00
C 449.52 114.34 451.19 118.98 459.00 121.00
C 461.03 121.25 463.98 121.34 466.00 121.00
C 472.11 119.07 474.53 114.92 476.00 109.00
C 477.84 94.18 475.99 77.95 476.00 63.00
C 476.00 62.50 476.00 62.00 476.00 62.00
C 471.57 66.26 476.54 78.71 475.00 85.00 C 473.46 91.29 476.17 102.41 474.93 108.93 C 473.68 115.44 468.77 120.31 462.01 119.99 C 455.24 119.68 450.99 115.06 449.33 108.67 C 447.67 102.28 450.57 91.26 449.00 85.00 C 447.43 78.74 452.46 66.29 448.00 62.00
C 448.00 62.00 448.00 62.50 448.00 63.00 Z"/>
</g>
<g fill="#FBEEEF" fill-opacity="0.27" stroke="None">
<path d="
M 476.00 63.00 
C 479.69 63.33 485.54 62.37 489.00 63.00 C 492.46 63.63 499.03 61.18 501.00 64.00
C 503.52 67.60 500.06 75.29 501.00 80.00 C 501.94 84.71 500.80 91.86 501.00 97.00 C 501.20 102.14 501.41 108.77 501.00 114.00
C 501.00 114.00 502.00 114.04 502.00 114.00
C 502.00 96.67 502.00 79.33 502.00 62.00
C 493.39 62.58 484.60 61.22 476.00 62.00
C 476.00 62.00 476.00 62.50 476.00 63.00 Z"/>
</g>
<g fill="#F39CA5" fill-opacity="0.65" stroke="None">
<path d="
M 376.00 85.00 
C 371.33 82.68 364.50 84.65 359.00 84.00
C 359.00 77.00 359.00 70.00 359.00 63.00
C 356.24 64.93 357.59 79.10 358.08 82.92 C 358.58 86.73 372.84 84.65 376.00 85.00 Z"/>
</g>
<g fill="#EA5164" fill-opacity="0.86" stroke="None">
<path d="
M 424.00 114.00 
C 423.10 97.38 424.68 80.63 424.00 64.00
C 431.67 64.00 439.33 64.00 447.00 64.00
C 447.00 63.50 447.00 63.00 447.00 63.00
C 439.11 63.00 430.85 63.71 423.00 63.00
C 422.99 79.64 421.43 98.18 424.00 114.00 Z"/>
</g>
<g fill="#F0828F" fill-opacity="0.73" stroke="None">
<path d="
M 447.00 64.00 
C 447.00 77.87 445.32 94.06 448.00 107.00
C 446.69 92.61 448.00 77.46 448.00 63.00
C 448.00 63.00 447.50 63.00 447.00 63.00
C 447.00 63.00 447.00 63.50 447.00 64.00 Z"/>
</g>
<g fill="#ED6979" fill-opacity="0.80" stroke="None">
<path d="
M 476.00 109.00 
C 479.42 95.18 475.52 78.64 477.00 64.00
C 485.00 64.00 493.00 64.00 501.00 64.00
C 499.03 61.18 492.46 63.63 489.00 63.00 C 485.54 62.37 479.69 63.33 476.00 63.00
C 475.99 77.95 477.84 94.18 476.00 109.00 Z"/>
</g>
<g fill="#FFFFFF" fill-opacity="0.00" stroke="None">
<path d="
M 422.00 77.00 
C 422.27 72.72 421.48 68.26 422.00 64.00
C 420.27 68.24 421.81 72.90 422.00 77.00 Z"/>
</g>
<g fill="#E51A30" fill-opacity="0.99" stroke="None">
<path d="
M 424.00 114.00 
C 426.16 153.77 497.88 153.36 501.00 114.00
C 501.41 108.77 501.20 102.14 501.00 97.00 C 500.80 91.86 501.94 84.71 501.00 80.00 C 500.06 75.29 503.52 67.60 501.00 64.00
C 493.00 64.00 485.00 64.00 477.00 64.00
C 475.52 78.64 479.42 95.18 476.00 109.00
C 474.53 114.92 472.11 119.07 466.00 121.00
C 463.19 121.89 461.72 121.71 459.00 121.00
C 451.19 118.98 449.52 114.34 448.00 107.00
C 445.32 94.06 447.00 77.87 447.00 64.00
C 439.33 64.00 431.67 64.00 424.00 64.00
C 424.68 80.63 423.10 97.38 424.00 114.00 Z"/>
</g>
<g fill="#FAD8DD" fill-opacity="0.40" stroke="None">
<path d="
M 114.00 73.00 
C 115.41 71.16 119.10 67.45 121.00 66.00
C 118.41 67.69 115.72 70.36 114.00 73.00 Z"/>
</g>
<g fill="#EF7D8A" fill-opacity="0.75" stroke="None">
<path d="
M 51.00 99.00 
C 51.00 89.33 51.00 79.67 51.00 70.00
C 54.15 70.52 57.50 69.73 60.00 69.00
C 56.67 69.00 53.33 69.00 50.00 69.00
C 51.39 78.56 47.70 90.28 51.00 99.00 Z"/>
</g>
<g fill="#FBE3E6" fill-opacity="0.27" stroke="None">
<path d="
M 132.00 88.00 
C 132.17 88.97 131.86 90.02 132.00 91.00
C 142.00 91.00 152.00 91.00 162.00 91.00
C 162.00 90.00 162.00 89.00 162.00 88.00
C 159.60 72.24 134.52 72.35 132.00 88.00
M 161.00 90.00 
C 151.67 90.00 142.33 90.00 133.00 90.00
C 134.98 74.63 159.01 74.62 161.00 90.00 Z"/>
</g>
<g fill="#000000" fill-opacity="0.00" stroke="None">
<path d="
M 161.00 90.00 
C 159.01 74.62 134.98 74.63 133.00 90.00
C 142.33 90.00 151.67 90.00 161.00 90.00 Z"/>
</g>
<g fill="#FDE9EB" fill-opacity="0.22" stroke="None">
<path d="
M 223.00 96.00 
C 222.74 98.50 222.77 101.50 223.00 104.00
C 224.56 111.54 228.17 116.97 236.00 119.00
C 238.37 119.32 241.63 119.32 244.00 119.00
C 258.35 115.28 266.70 97.42 254.75 85.25 C 242.79 73.09 226.29 81.17 223.00 96.00
M 242.00 81.00 
C 263.19 82.78 263.93 116.82 240.98 117.98 C 218.02 119.13 218.70 79.04 242.00 81.00 Z"/>
</g>
<g fill="#000000" fill-opacity="0.00" stroke="None">
<path d="
M 242.00 81.00 
C 218.70 79.04 218.02 119.13 240.98 117.98 C 263.93 116.82 263.19 82.78 242.00 81.00 Z"/>
</g>
<g fill="#E94F61" fill-opacity="0.87" stroke="None">
<path d="
M 162.00 88.00 
C 162.00 89.00 162.00 90.00 162.00 91.00
C 152.00 91.00 142.00 91.00 132.00 91.00
C 131.86 90.02 132.17 88.97 132.00 88.00
C 130.98 94.34 141.39 92.00 147.00 92.00 C 152.61 92.00 162.97 94.34 162.00 88.00 Z"/>
</g>
<g fill="#F6B4BB" fill-opacity="0.56" stroke="None">
<path d="
M 196.00 94.00 
C 196.00 97.33 196.00 100.67 196.00 104.00
C 196.00 104.50 196.03 105.50 196.00 106.00
C 196.00 106.00 197.00 105.99 197.00 106.00
C 196.77 101.75 196.77 97.25 197.00 93.00
C 197.00 93.00 196.25 92.75 196.00 93.00
C 196.00 93.00 196.00 93.50 196.00 94.00 Z"/>
</g>
<g fill="#FAD9DD" fill-opacity="0.39" stroke="None">
<path d="
M 187.00 105.00 
C 187.00 105.50 187.00 106.00 187.00 106.00
C 187.50 106.00 188.00 106.00 188.00 106.00
C 188.35 102.15 188.21 97.86 188.00 94.00
C 188.00 94.00 187.04 94.13 187.00 94.00
C 187.29 97.61 187.00 101.37 187.00 105.00 Z"/>
</g>
<g fill="#FFFFFF" fill-opacity="0.03" stroke="None">
<path d="
M 196.00 104.00 
C 196.00 100.67 196.00 97.33 196.00 94.00
C 194.09 96.58 194.87 101.33 196.00 104.00 Z"/>
</g>
<g fill="#F2939E" fill-opacity="0.68" stroke="None">
<path d="
M 223.00 104.00 
C 222.77 101.50 222.74 98.50 223.00 96.00
C 222.35 98.95 222.38 101.01 223.00 104.00 Z"/>
</g>
<g fill="#F9D0D5" fill-opacity="0.44" stroke="None">
<path d="
M 105.00 106.00 
C 105.00 106.05 106.00 106.00 106.00 106.00
C 105.80 103.08 105.84 99.92 106.00 97.00
C 106.00 97.00 105.00 96.96 105.00 97.00
C 104.89 99.97 104.89 103.03 105.00 106.00 Z"/>
</g>
<g fill="#FCDEE1" fill-opacity="0.29" stroke="None">
<path d="
M 389.00 98.00 
C 390.55 121.17 364.81 112.94 351.00 116.00
C 350.95 116.35 350.00 117.00 350.00 117.00
C 352.03 121.06 365.12 116.65 370.00 118.00 C 374.88 119.35 380.81 115.54 385.25 112.25 C 389.69 108.95 390.13 101.86 389.00 97.00
C 389.00 97.00 388.97 97.50 389.00 98.00 Z"/>
</g>
<g fill="#F49EA7" fill-opacity="0.64" stroke="None">
<path d="
M 415.00 108.00 
C 415.35 105.52 416.00 102.19 416.00 99.00
C 416.00 99.00 415.00 98.98 415.00 99.00
C 415.11 101.97 415.11 105.03 415.00 108.00 Z"/>
</g>
<g fill="#F6B5BC" fill-opacity="0.56" stroke="None">
<path d="
M 131.00 108.00 
C 131.01 108.07 132.00 108.00 132.00 108.00
C 132.00 108.00 131.75 107.26 132.00 107.00
C 135.44 103.45 143.71 106.85 149.00 106.00 C 154.29 105.15 162.21 106.32 168.00 106.00 C 173.79 105.68 181.08 106.00 187.00 106.00
C 187.00 106.00 187.00 105.50 187.00 105.00
C 168.33 105.00 149.67 105.00 131.00 105.00
C 131.16 105.97 130.80 107.04 131.00 108.00 Z"/>
</g>
<g fill="#FDEDEF" fill-opacity="0.19" stroke="None">
<path d="
M 132.00 108.00 
C 132.00 108.00 131.01 108.07 131.00 108.00
C 133.64 124.47 157.21 127.96 165.00 113.00
C 171.34 115.75 177.63 118.81 184.00 122.00
C 179.26 133.20 166.70 140.20 155.00 141.00
C 150.95 141.72 146.97 141.64 143.00 141.00
C 123.33 139.93 107.38 126.24 106.00 106.00
C 106.00 106.00 105.00 106.05 105.00 106.00
C 105.32 117.32 110.36 128.62 119.77 135.23 C 129.18 141.84 142.06 145.36 153.93 143.93 C 165.80 142.49 174.27 138.13 182.70 128.70 C 191.12 119.26 171.44 114.70 164.00 111.00
C 155.71 127.69 138.66 120.73 132.00 108.00 Z"/>
</g>
<g fill="#FFFFFF" fill-opacity="0.10" stroke="None">
<path d="
M 132.00 107.00 
C 137.93 106.46 145.20 107.60 151.00 107.00 C 156.80 106.40 164.68 108.06 170.00 107.00 C 175.32 105.94 184.44 109.70 188.00 106.00
C 188.00 106.00 187.50 106.00 187.00 106.00
C 181.08 106.00 173.79 105.68 168.00 106.00 C 162.21 106.32 154.29 105.15 149.00 106.00 C 143.71 106.85 135.44 103.45 132.00 107.00 Z"/>
</g>
<g fill="#EF7482" fill-opacity="0.77" stroke="None">
<path d="
M 244.00 119.00 
C 241.63 119.32 238.37 119.32 236.00 119.00
C 238.99 119.77 240.96 119.79 244.00 119.00 Z"/>
</g>
<g fill="#F3919C" fill-opacity="0.68" stroke="None">
<path d="
M 466.00 121.00 
C 463.98 121.34 461.03 121.25 459.00 121.00
C 461.72 121.71 463.19 121.89 466.00 121.00 Z"/>
</g>
<g fill="#EC6676" fill-opacity="0.81" stroke="None">
<path d="
M 260.00 139.00 
C 259.50 136.15 261.08 132.10 259.00 130.00
C 259.73 132.53 257.61 137.33 260.00 139.00 Z"/>
</g>
<g fill="#FADCDE" fill-opacity="0.38" stroke="None">
<path d="
M 42.00 139.00 
C 33.67 139.00 25.33 139.00 17.00 139.00
C 17.00 139.00 16.00 139.04 16.00 139.00
C 18.35 141.44 25.48 139.83 29.00 140.00 C 32.52 140.17 39.31 140.99 42.00 139.00 Z"/>
</g>
<g fill="#FADCDF" fill-opacity="0.38" stroke="None">
<path d="
M 383.00 139.00 
C 364.29 141.26 343.87 139.00 325.00 139.00
C 325.00 139.00 324.00 139.04 324.00 139.00
C 327.72 142.87 338.45 138.86 344.00 140.00 C 349.55 141.14 358.05 139.51 364.00 140.00 C 369.95 140.49 377.71 140.29 383.00 139.00 Z"/>
</g>
<g fill="#F28996" fill-opacity="0.71" stroke="None">
<path d="
M 155.00 141.00 
C 151.10 141.27 146.90 141.21 143.00 141.00
C 146.97 141.64 150.95 141.72 155.00 141.00 Z"/>
</g>
</svg>