<svg xmlns="http://www.w3.org/2000/svg" xmlns:v="https://svgstorm.com"
viewBox = "0 0 640 264"
width="640"
height="264">
<g fill="None" fill-opacity="0.0" stroke="#000000" stroke-opacity="0.00" stroke-width="0.3"><path d="
M 0.00 264.00 
L 640.00 264.00
L 640.00 0.00
L 0.00 0.00
L 0.00 264.00
M 614.00 54.00 
C 633.73 58.89 624.21 94.29 603.99 87.01 C 583.78 79.73 591.95 48.54 614.00 54.00
M 196.00 154.00 
C 196.03 153.50 196.00 152.50 196.00 152.00
C 194.54 148.57 195.28 145.30 196.00 142.00
C 196.00 141.00 195.97 140.00 196.00 139.00
C 197.00 109.55 235.11 95.78 257.00 113.00
C 256.76 103.66 257.31 97.68 257.00 88.00 C 256.69 78.32 257.60 73.92 257.00 63.00 C 256.40 52.08 265.05 56.38 275.00 55.00 C 284.95 53.62 286.04 60.82 285.00 70.00 C 283.96 79.18 285.45 87.23 285.00 96.00 C 284.55 104.77 285.11 112.51 285.00 121.00 C 284.89 129.49 284.83 137.68 285.00 146.00 C 285.17 154.32 284.48 163.96 285.00 172.00 C 285.52 180.04 286.42 190.99 277.00 189.00 C 267.58 187.01 257.15 194.06 258.00 182.00
C 235.37 201.41 194.83 185.48 196.00 154.00
M 541.00 56.00 
C 542.93 77.39 541.04 99.46 541.00 121.00 C 540.96 142.54 542.94 165.52 541.00 187.00
C 540.68 192.40 528.07 186.80 522.00 189.00 C 515.93 191.20 512.17 182.92 514.00 176.00 C 515.83 169.08 513.20 161.97 514.00 155.00 C 514.80 148.03 513.69 140.99 514.00 134.00 C 514.31 127.01 513.93 118.90 514.00 112.00 C 514.07 105.10 514.16 97.59 514.00 91.00 C 513.84 84.41 514.50 76.00 514.00 70.00 C 513.50 64.00 512.98 52.98 520.00 55.00 C 527.02 57.02 536.38 51.19 541.00 56.00
M 582.00 57.00 
C 585.35 63.92 580.60 75.18 582.00 83.00 C 583.40 90.82 581.62 100.84 582.00 109.00 C 582.38 117.16 582.38 126.84 582.00 135.00 C 581.62 143.16 583.40 153.18 582.00 161.00 C 580.60 168.82 585.35 180.08 582.00 187.00
C 580.10 190.93 563.00 189.45 558.00 189.00
C 553.85 188.76 556.53 174.27 556.00 169.00 C 555.47 163.73 556.23 152.45 556.00 146.00 C 555.77 139.55 556.05 131.05 556.00 124.00 C 555.95 116.95 555.91 108.29 556.00 101.00 C 556.09 93.71 555.70 86.40 556.00 79.00 C 556.30 71.60 555.33 63.42 556.00 56.00
C 558.89 53.00 580.59 54.08 582.00 57.00
M 66.00 88.00 
C 64.45 87.17 61.77 86.51 60.00 86.00
C 54.47 85.12 48.56 86.66 43.00 86.00
C 39.86 90.49 44.44 100.31 43.00 106.00 C 41.56 111.69 43.69 119.76 43.00 126.00 C 42.31 132.24 43.40 139.48 43.00 146.00 C 42.60 152.52 43.39 159.31 43.00 166.00 C 42.61 172.69 43.61 180.26 43.00 187.00
C 42.77 190.94 33.58 188.44 30.00 189.00 C 26.42 189.56 18.93 188.58 15.00 189.00
C 15.00 145.33 15.00 101.67 15.00 58.00
C 40.49 58.50 77.76 52.66 94.30 74.70 C 110.84 96.73 99.64 132.01 73.00 136.00
C 84.37 153.58 97.09 170.19 108.00 188.00
C 96.40 188.55 77.99 193.37 71.23 182.77 C 64.47 172.17 61.66 166.14 54.23 155.77 C 46.80 145.40 49.07 129.03 49.00 116.00
C 65.56 120.92 80.99 99.61 66.00 88.00
M 369.00 61.00 
C 370.00 61.00 371.00 61.03 372.00 61.00
C 389.43 60.53 403.33 72.23 406.00 89.00
C 406.57 92.58 406.47 94.47 406.00 98.00
C 404.96 105.80 402.97 113.26 397.00 119.00
C 407.54 122.39 416.24 132.51 416.00 144.00
C 415.98 144.50 416.00 145.50 416.00 146.00
C 417.24 148.91 418.05 155.22 416.00 158.00
C 416.00 158.50 416.00 159.00 416.00 159.00
C 416.77 170.42 408.73 177.64 399.30 183.30 C 389.88 188.97 376.25 189.65 364.00 189.00 C 351.75 188.35 335.60 189.49 323.00 189.00
C 322.94 177.38 323.08 165.60 323.00 154.00 C 322.92 142.40 323.16 130.54 323.00 119.00 C 322.84 107.46 323.33 95.39 323.00 84.00 C 322.67 72.61 319.94 57.54 334.00 60.00 C 348.06 62.46 356.40 57.33 369.00 61.00
M 152.00 106.00 
C 172.58 106.41 186.90 121.78 188.00 142.00
C 188.21 145.86 188.35 150.15 188.00 154.00
C 184.44 157.70 175.32 153.94 170.00 155.00 C 164.68 156.06 156.80 154.40 151.00 155.00 C 145.20 155.60 137.93 154.46 132.00 155.00
C 131.75 155.26 132.00 156.00 132.00 156.00
C 138.66 168.74 155.71 175.69 164.00 159.00
C 171.44 162.70 191.12 167.26 182.70 176.70 C 174.27 186.13 165.80 190.49 153.93 191.93 C 142.06 193.36 129.18 189.84 119.77 183.23 C 110.36 176.62 105.32 165.32 105.00 154.00
C 104.86 150.40 104.76 146.59 105.00 143.00
C 106.40 122.38 122.01 106.42 143.00 106.00
C 145.97 105.64 149.09 105.65 152.00 106.00
M 476.00 110.00 
C 484.60 109.22 493.39 110.58 502.00 110.00
C 502.00 127.33 502.00 144.67 502.00 162.00
C 500.33 192.70 459.99 201.04 437.75 187.25 C 415.52 173.45 420.79 143.96 422.00 125.00
C 421.81 120.90 420.27 116.24 422.00 112.00
C 421.98 112.19 422.20 109.14 423.00 110.00
C 430.88 109.29 440.12 109.29 448.00 110.00
C 452.46 114.30 447.43 126.74 449.00 133.00 C 450.57 139.26 447.67 150.28 449.33 156.67 C 450.99 163.06 455.24 167.68 462.01 167.99 C 468.77 168.31 473.68 163.44 474.93 156.93 C 476.17 150.41 473.46 139.29 475.00 133.00 C 476.54 126.71 471.57 114.26 476.00 110.00 Z"/>
</g>
<g fill="None" fill-opacity="0.0" stroke="#FCE4E6" stroke-opacity="0.12" stroke-width="0.3"><path d="
M 614.00 54.00 
C 591.95 48.54 583.78 79.73 603.99 87.01 C 624.21 94.29 633.73 58.89 614.00 54.00
M 613.00 55.00 
C 631.46 59.29 624.04 90.86 604.78 85.22 C 585.52 79.58 593.19 50.39 613.00 55.00 Z"/>
</g>
<g fill="None" fill-opacity="0.0" stroke="#FCEEEF" stroke-opacity="0.08" stroke-width="0.3"><path d="
M 196.00 139.00 
C 196.27 138.75 197.00 139.00 197.00 139.00
C 198.82 112.21 232.47 97.62 254.00 113.00
C 255.34 113.37 256.56 113.84 258.00 114.00
C 257.53 106.70 258.63 99.28 258.00 92.00 C 257.37 84.72 259.21 77.24 258.00 70.00 C 256.79 62.76 258.29 53.99 266.00 56.00 C 273.71 58.01 282.57 52.21 283.99 60.01 C 285.41 67.80 283.38 74.50 284.00 82.00 C 284.62 89.50 283.76 96.67 284.00 104.00 C 284.24 111.33 283.99 118.85 284.00 126.00 C 284.01 133.15 284.20 141.15 284.00 148.00 C 283.80 154.85 284.56 163.77 284.00 170.00 C 283.44 176.23 287.00 187.27 279.99 187.99 C 272.98 188.71 265.14 188.30 259.00 187.00
C 258.73 184.02 259.20 180.98 259.00 178.00
C 252.98 183.39 246.12 187.56 238.00 188.00
C 234.25 188.61 230.72 188.72 227.00 188.00
C 210.25 186.67 197.61 169.97 197.00 154.00
C 197.00 154.02 196.00 154.00 196.00 154.00
C 194.83 185.48 235.37 201.41 258.00 182.00
C 257.15 194.06 267.58 187.01 277.00 189.00 C 286.42 190.99 285.52 180.04 285.00 172.00 C 284.48 163.96 285.17 154.32 285.00 146.00 C 284.83 137.68 284.89 129.49 285.00 121.00 C 285.11 112.51 284.55 104.77 285.00 96.00 C 285.45 87.23 283.96 79.18 285.00 70.00 C 286.04 60.82 284.95 53.62 275.00 55.00 C 265.05 56.38 256.40 52.08 257.00 63.00 C 257.60 73.92 256.69 78.32 257.00 88.00 C 257.31 97.68 256.76 103.66 257.00 113.00
C 235.11 95.78 197.00 109.55 196.00 139.00 Z"/>
</g>
<g fill="None" fill-opacity="0.0" stroke="#FCFCFC" stroke-opacity="0.02" stroke-width="0.3"><path d="
M 541.00 187.00 
C 541.00 187.04 540.00 187.00 540.00 187.00
C 536.24 189.78 514.39 191.83 515.00 183.00 C 515.62 174.16 514.71 160.74 515.00 151.00 C 515.29 141.26 514.87 130.20 515.00 120.00 C 515.13 109.80 514.93 98.42 515.00 88.00 C 515.07 77.58 514.95 66.48 515.00 56.00
C 523.33 56.00 531.67 56.00 540.00 56.00
C 540.50 56.00 541.00 56.00 541.00 56.00
C 536.38 51.19 527.02 57.02 520.00 55.00 C 512.98 52.98 513.50 64.00 514.00 70.00 C 514.50 76.00 513.84 84.41 514.00 91.00 C 514.16 97.59 514.07 105.10 514.00 112.00 C 513.93 118.90 514.31 127.01 514.00 134.00 C 513.69 140.99 514.80 148.03 514.00 155.00 C 513.20 161.97 515.83 169.08 514.00 176.00 C 512.17 182.92 515.93 191.20 522.00 189.00 C 528.07 186.80 540.68 192.40 541.00 187.00 Z"/>
</g>
<g fill="None" fill-opacity="0.0" stroke="#FFFDFD" stroke-opacity="0.02" stroke-width="0.3"><path d="
M 556.00 56.00 
C 556.00 55.96 557.00 56.00 557.00 56.00
C 560.54 56.00 566.72 55.50 570.00 56.00 C 573.28 56.50 580.02 54.20 582.00 57.00
C 580.59 54.08 558.89 53.00 556.00 56.00 Z"/>
</g>
<g fill="None" fill-opacity="0.0" stroke="#EB505D" stroke-opacity="0.78" stroke-width="0.3"><path d="
M 613.00 55.00 
C 593.19 50.39 585.52 79.58 604.78 85.22 C 624.04 90.86 631.46 59.29 613.00 55.00
M 613.00 58.00 
C 628.03 61.50 620.14 88.45 604.78 82.22 C 589.42 75.99 596.19 54.09 613.00 58.00 Z"/>
</g>
<g fill="None" fill-opacity="0.0" stroke="#F2949F" stroke-opacity="0.45" stroke-width="0.3"><path d="
M 254.00 113.00 
C 255.47 114.05 256.57 116.45 259.00 116.00
C 259.00 96.33 259.00 76.67 259.00 57.00
C 267.00 57.00 275.00 57.00 283.00 57.00
C 283.00 100.33 283.00 143.67 283.00 187.00
C 275.33 187.00 267.67 187.00 260.00 187.00
C 259.50 187.00 259.00 187.00 259.00 187.00
C 265.14 188.30 272.98 188.71 279.99 187.99 C 287.00 187.27 283.44 176.23 284.00 170.00 C 284.56 163.77 283.80 154.85 284.00 148.00 C 284.20 141.15 284.01 133.15 284.00 126.00 C 283.99 118.85 284.24 111.33 284.00 104.00 C 283.76 96.67 284.62 89.50 284.00 82.00 C 283.38 74.50 285.41 67.80 283.99 60.01 C 282.57 52.21 273.71 58.01 266.00 56.00 C 258.29 53.99 256.79 62.76 258.00 70.00 C 259.21 77.24 257.37 84.72 258.00 92.00 C 258.63 99.28 257.53 106.70 258.00 114.00
C 256.56 113.84 255.34 113.37 254.00 113.00 Z"/>
</g>
<g fill="None" fill-opacity="0.0" stroke="#F496A3" stroke-opacity="0.44" stroke-width="0.3"><path d="
M 540.00 187.00 
C 534.87 184.44 519.40 190.86 516.00 186.00
C 512.73 181.33 517.41 170.96 516.00 165.00 C 514.59 159.04 516.49 150.56 516.00 144.00 C 515.51 137.44 515.99 128.70 516.00 122.00 C 516.01 115.30 515.42 107.51 516.00 101.00 C 516.58 94.49 514.45 85.99 516.00 80.00 C 517.55 74.01 512.65 62.79 516.00 58.00
C 517.90 55.29 523.60 57.56 527.00 57.00 C 530.40 56.44 536.36 57.33 540.00 57.00
C 540.00 56.50 540.00 56.00 540.00 56.00
C 531.67 56.00 523.33 56.00 515.00 56.00
C 514.95 66.48 515.07 77.58 515.00 88.00 C 514.93 98.42 515.13 109.80 515.00 120.00 C 514.87 130.20 515.29 141.26 515.00 151.00 C 514.71 160.74 515.62 174.16 515.00 183.00 C 514.39 191.83 536.24 189.78 540.00 187.00 Z"/>
</g>
<g fill="None" fill-opacity="0.0" stroke="#FAD1D6" stroke-opacity="0.20" stroke-width="0.3"><path d="
M 540.00 57.00 
C 540.00 78.58 539.27 100.44 540.00 122.00 C 540.73 143.56 538.05 165.54 540.00 187.00
C 540.00 187.00 541.00 187.04 541.00 187.00
C 542.94 165.52 540.96 142.54 541.00 121.00 C 541.04 99.46 542.93 77.39 541.00 56.00
C 541.00 56.00 540.50 56.00 540.00 56.00
C 540.00 56.00 540.00 56.50 540.00 57.00 Z"/>
</g>
<g fill="None" fill-opacity="0.0" stroke="#FFDEE6" stroke-opacity="0.12" stroke-width="0.3"><path d="
M 558.00 189.00 
C 557.96 189.00 558.00 188.00 558.00 188.00
C 557.88 187.74 557.05 187.35 557.00 187.00
C 553.96 165.85 558.14 143.40 557.00 122.00 C 555.86 100.60 556.99 78.46 557.00 57.00
C 557.00 56.50 557.00 56.00 557.00 56.00
C 557.00 56.00 556.00 55.96 556.00 56.00
C 555.33 63.42 556.30 71.60 556.00 79.00 C 555.70 86.40 556.09 93.71 556.00 101.00 C 555.91 108.29 555.95 116.95 556.00 124.00 C 556.05 131.05 555.77 139.55 556.00 146.00 C 556.23 152.45 555.47 163.73 556.00 169.00 C 556.53 174.27 553.85 188.76 558.00 189.00 Z"/>
</g>
<g fill="None" fill-opacity="0.0" stroke="#F7B1B8" stroke-opacity="0.33" stroke-width="0.3"><path d="
M 557.00 57.00 
C 557.25 57.25 558.00 57.00 558.00 57.00
C 565.67 57.00 573.33 57.00 581.00 57.00
C 581.00 100.33 581.00 143.67 581.00 187.00
C 573.33 187.00 565.67 187.00 558.00 187.00
C 557.50 187.00 557.00 187.00 557.00 187.00
C 557.05 187.35 557.88 187.74 558.00 188.00
C 561.15 188.45 567.00 188.33 570.00 188.00 C 573.00 187.67 580.14 189.63 582.00 187.00
C 585.35 180.08 580.60 168.82 582.00 161.00 C 583.40 153.18 581.62 143.16 582.00 135.00 C 582.38 126.84 582.38 117.16 582.00 109.00 C 581.62 100.84 583.40 90.82 582.00 83.00 C 580.60 75.18 585.35 63.92 582.00 57.00
C 580.02 54.20 573.28 56.50 570.00 56.00 C 566.72 55.50 560.54 56.00 557.00 56.00
C 557.00 56.00 557.00 56.50 557.00 57.00 Z"/>
</g>
<g fill="None" fill-opacity="0.0" stroke="#E51A30" stroke-opacity="0.99" stroke-width="0.3"><path d="
M 254.00 113.00 
C 232.47 97.62 198.82 112.21 197.00 139.00
C 196.67 143.90 196.81 149.09 197.00 154.00
C 197.61 169.97 210.25 186.67 227.00 188.00
C 230.55 188.28 234.44 188.19 238.00 188.00
C 246.12 187.56 252.98 183.39 259.00 178.00
C 260.53 180.05 260.25 184.22 260.00 187.00
C 267.67 187.00 275.33 187.00 283.00 187.00
C 283.00 143.67 283.00 100.33 283.00 57.00
C 275.00 57.00 267.00 57.00 259.00 57.00
C 259.00 76.67 259.00 96.33 259.00 116.00
C 256.57 116.45 255.47 114.05 254.00 113.00
M 259.00 144.00 
C 259.56 146.71 259.55 148.34 259.00 151.00
C 259.38 160.45 251.24 165.45 241.98 166.98 C 232.71 168.50 225.00 161.01 223.00 152.00
C 222.27 148.73 222.16 146.25 223.00 143.00
C 227.82 124.40 258.19 122.62 259.00 144.00 Z"/>
</g>
<g fill="None" fill-opacity="0.0" stroke="#E72C41" stroke-opacity="0.90" stroke-width="0.3"><path d="
M 516.00 58.00 
C 523.67 58.00 531.33 58.00 539.00 58.00
C 539.00 100.67 539.00 143.33 539.00 186.00
C 531.33 186.00 523.67 186.00 516.00 186.00
C 519.40 190.86 534.87 184.44 540.00 187.00
C 538.05 165.54 540.73 143.56 540.00 122.00 C 539.27 100.44 540.00 78.58 540.00 57.00
C 536.36 57.33 530.40 56.44 527.00 57.00 C 523.60 57.56 517.90 55.29 516.00 58.00 Z"/>
</g>
<g fill="None" fill-opacity="0.0" stroke="#EA3F55" stroke-opacity="0.82" stroke-width="0.3"><path d="
M 557.00 187.00 
C 557.00 187.00 557.50 187.00 558.00 187.00
C 559.92 165.73 558.00 143.37 558.00 122.00 C 558.00 100.63 559.93 78.27 558.00 57.00
C 558.00 57.00 557.25 57.25 557.00 57.00
C 556.99 78.46 555.86 100.60 557.00 122.00 C 558.14 143.40 553.96 165.85 557.00 187.00 Z"/>
</g>
<g fill="None" fill-opacity="0.0" stroke="#E5162E" stroke-opacity="1.00" stroke-width="0.3"><path d="
M 558.00 187.00 
C 565.67 187.00 573.33 187.00 581.00 187.00
C 581.00 143.67 581.00 100.33 581.00 57.00
C 573.33 57.00 565.67 57.00 558.00 57.00
C 559.93 78.27 558.00 100.63 558.00 122.00 C 558.00 143.37 559.92 165.73 558.00 187.00 Z"/>
</g>
<g fill="None" fill-opacity="0.0" stroke="#FBDEE1" stroke-opacity="0.14" stroke-width="0.3"><path d="
M 43.00 187.00 
C 43.00 187.04 42.00 187.00 42.00 187.00
C 33.78 187.00 25.18 187.74 17.00 187.00
C 12.23 182.41 17.42 170.13 16.00 163.00 C 14.58 155.87 16.65 144.97 16.00 137.00 C 15.35 129.03 16.30 119.34 16.00 111.00 C 15.70 102.66 16.16 93.50 16.00 85.00 C 15.84 76.50 16.12 67.54 16.00 59.00
C 29.50 59.67 44.32 57.67 57.00 60.00
C 77.58 60.41 95.48 69.99 99.00 91.00 C 102.51 112.02 93.12 131.73 71.00 135.00
C 81.67 152.73 94.80 169.42 106.00 187.00
C 93.96 186.55 77.60 190.59 71.23 179.77 C 64.86 168.95 61.88 164.15 55.08 153.92 C 48.27 143.69 49.74 129.70 50.00 117.00
C 64.11 120.53 78.18 107.01 72.00 93.00
C 71.25 91.61 67.40 88.75 66.00 88.00
C 80.99 99.61 65.56 120.92 49.00 116.00
C 49.07 129.03 46.80 145.40 54.23 155.77 C 61.66 166.14 64.47 172.17 71.23 182.77 C 77.99 193.37 96.40 188.55 108.00 188.00
C 97.09 170.19 84.37 153.58 73.00 136.00
C 99.64 132.01 110.84 96.73 94.30 74.70 C 77.76 52.66 40.49 58.50 15.00 58.00
C 15.00 101.67 15.00 145.33 15.00 189.00
C 18.93 188.58 26.42 189.56 30.00 189.00 C 33.58 188.44 42.77 190.94 43.00 187.00 Z"/>
</g>
<g fill="None" fill-opacity="0.0" stroke="#E5152E" stroke-opacity="1.00" stroke-width="0.3"><path d="
M 516.00 186.00 
C 523.67 186.00 531.33 186.00 539.00 186.00
C 539.00 143.33 539.00 100.67 539.00 58.00
C 531.33 58.00 523.67 58.00 516.00 58.00
C 512.65 62.79 517.55 74.01 516.00 80.00 C 514.45 85.99 516.58 94.49 516.00 101.00 C 515.42 107.51 516.01 115.30 516.00 122.00 C 515.99 128.70 515.51 137.44 516.00 144.00 C 516.49 150.56 514.59 159.04 516.00 165.00 C 517.41 170.96 512.73 181.33 516.00 186.00 Z"/>
</g>
<g fill="None" fill-opacity="0.0" stroke="#F3DCDE" stroke-opacity="0.12" stroke-width="0.3"><path d="
M 613.00 58.00 
C 596.19 54.09 589.42 75.99 604.78 82.22 C 620.14 88.45 628.03 61.50 613.00 58.00
M 616.00 79.00 
C 611.48 72.65 618.08 65.78 612.00 60.00
C 620.40 61.40 622.93 74.23 616.00 79.00
M 615.00 80.00 
C 609.49 81.00 611.55 71.01 606.00 72.00
C 605.71 74.74 607.35 80.11 603.00 80.00
C 603.00 73.67 603.00 67.33 603.00 61.00
C 618.31 57.96 610.45 72.39 615.00 80.00
M 602.00 62.00 
C 601.09 67.83 601.44 72.63 602.00 79.00
C 595.09 76.99 595.47 64.16 602.00 62.00
M 608.00 73.00 
C 609.79 75.87 610.22 79.13 612.00 82.00
C 603.31 84.41 606.66 78.23 608.00 73.00 Z"/>
</g>
<g fill="None" fill-opacity="0.0" stroke="#EC5E6E" stroke-opacity="0.68" stroke-width="0.3"><path d="
M 17.00 187.00 
C 16.96 187.00 17.00 186.00 17.00 186.00
C 17.00 144.00 17.00 102.00 17.00 60.00
C 30.33 60.00 43.67 60.00 57.00 60.00
C 44.32 57.67 29.50 59.67 16.00 59.00
C 16.12 67.54 15.84 76.50 16.00 85.00 C 16.16 93.50 15.70 102.66 16.00 111.00 C 16.30 119.34 15.35 129.03 16.00 137.00 C 16.65 144.97 14.58 155.87 16.00 163.00 C 17.42 170.13 12.23 182.41 17.00 187.00 Z"/>
</g>
<g fill="None" fill-opacity="0.0" stroke="#E51930" stroke-opacity="0.99" stroke-width="0.3"><path d="
M 17.00 186.00 
C 24.94 185.28 33.05 186.54 41.00 186.00
C 41.67 152.17 39.67 117.01 42.00 84.00
C 44.96 81.04 54.78 83.33 58.00 84.00
C 63.69 85.18 69.83 86.88 72.00 93.00
C 78.18 107.01 64.11 120.53 50.00 117.00
C 49.74 129.70 48.27 143.69 55.08 153.92 C 61.88 164.15 64.86 168.95 71.23 179.77 C 77.60 190.59 93.96 186.55 106.00 187.00
C 94.80 169.42 81.67 152.73 71.00 135.00
C 93.12 131.73 102.51 112.02 99.00 91.00 C 95.48 69.99 77.58 60.41 57.00 60.00
C 43.67 60.00 30.33 60.00 17.00 60.00
C 17.00 102.00 17.00 144.00 17.00 186.00 Z"/>
</g>
<g fill="None" fill-opacity="0.0" stroke="#FBEEEE" stroke-opacity="0.07" stroke-width="0.3"><path d="
M 416.00 159.00 
C 415.75 159.25 415.00 159.00 415.00 159.00
C 413.94 174.57 397.44 185.85 383.00 187.00
C 377.66 188.03 369.98 188.60 364.00 188.00 C 358.02 187.40 349.57 189.19 344.00 188.00 C 338.43 186.81 327.75 190.90 324.00 187.00
C 322.15 166.59 323.97 145.55 324.00 125.00 C 324.03 104.45 322.15 82.50 324.00 62.00
C 327.96 57.88 339.95 61.99 346.00 61.00 C 352.05 60.01 362.55 61.00 369.00 61.00
C 356.40 57.33 348.06 62.46 334.00 60.00 C 319.94 57.54 322.67 72.61 323.00 84.00 C 323.33 95.39 322.84 107.46 323.00 119.00 C 323.16 130.54 322.92 142.40 323.00 154.00 C 323.08 165.60 322.94 177.38 323.00 189.00
C 335.60 189.49 351.75 188.35 364.00 189.00 C 376.25 189.65 389.88 188.97 399.30 183.30 C 408.73 177.64 416.77 170.42 416.00 159.00 Z"/>
</g>
<g fill="None" fill-opacity="0.0" stroke="#000000" stroke-opacity="0.00" stroke-width="0.3"><path d="
M 616.00 79.00 
C 622.93 74.23 620.40 61.40 612.00 60.00
C 618.08 65.78 611.48 72.65 616.00 79.00 Z"/>
</g>
<g fill="None" fill-opacity="0.0" stroke="#F7BABD" stroke-opacity="0.29" stroke-width="0.3"><path d="
M 324.00 62.00 
C 324.00 61.96 325.00 62.00 325.00 62.00
C 340.67 62.00 356.33 62.00 372.00 62.00
C 371.75 61.73 372.00 61.00 372.00 61.00
C 371.00 61.03 370.00 61.00 369.00 61.00
C 362.55 61.00 352.05 60.01 346.00 61.00 C 339.95 61.99 327.96 57.88 324.00 62.00 Z"/>
</g>
<g fill="None" fill-opacity="0.0" stroke="#FCDFE2" stroke-opacity="0.14" stroke-width="0.3"><path d="
M 372.00 62.00 
C 372.96 62.00 374.05 61.87 375.00 62.00
C 388.95 63.93 403.95 73.57 405.00 89.00
C 405.01 89.06 406.00 89.00 406.00 89.00
C 403.33 72.23 389.43 60.53 372.00 61.00
C 372.00 61.00 371.75 61.73 372.00 62.00 Z"/>
</g>
<g fill="None" fill-opacity="0.0" stroke="#EA4754" stroke-opacity="0.82" stroke-width="0.3"><path d="
M 615.00 80.00 
C 610.45 72.39 618.31 57.96 603.00 61.00
C 603.00 67.33 603.00 73.67 603.00 80.00
C 607.35 80.11 605.71 74.74 606.00 72.00
C 611.55 71.01 609.49 81.00 615.00 80.00
M 609.00 64.00 
C 611.51 65.55 611.45 67.49 609.00 69.00
C 603.67 72.30 603.63 60.68 609.00 64.00 Z"/>
</g>
<g fill="None" fill-opacity="0.0" stroke="#ED5F6F" stroke-opacity="0.68" stroke-width="0.3"><path d="
M 324.00 187.00 
C 324.00 187.04 325.00 187.00 325.00 187.00
C 326.85 166.53 324.31 145.56 325.00 125.00 C 325.69 104.44 325.00 83.59 325.00 63.00
C 325.00 62.50 325.00 62.00 325.00 62.00
C 325.00 62.00 324.00 61.96 324.00 62.00
C 322.15 82.50 324.03 104.45 324.00 125.00 C 323.97 145.55 322.15 166.59 324.00 187.00 Z"/>
</g>
<g fill="None" fill-opacity="0.0" stroke="#E93E53" stroke-opacity="0.82" stroke-width="0.3"><path d="
M 325.00 63.00 
C 341.41 64.48 359.39 62.14 375.00 62.00
C 374.05 61.87 372.96 62.00 372.00 62.00
C 356.33 62.00 340.67 62.00 325.00 62.00
C 325.00 62.00 325.00 62.50 325.00 63.00 Z"/>
</g>
<g fill="None" fill-opacity="0.0" stroke="#E51930" stroke-opacity="0.99" stroke-width="0.3"><path d="
M 325.00 63.00 
C 325.00 83.59 325.69 104.44 325.00 125.00 C 324.31 145.56 326.85 166.53 325.00 187.00
C 344.13 187.00 363.94 188.51 383.00 187.00
C 397.44 185.85 413.94 174.57 415.00 159.00
C 415.33 154.18 415.38 148.81 415.00 144.00
C 414.11 132.81 407.09 124.52 397.00 120.00
C 393.54 118.45 394.44 118.85 398.00 115.00
C 401.92 109.55 404.53 104.84 405.00 98.00
C 405.20 95.09 405.20 91.91 405.00 89.00
C 403.95 73.57 388.95 63.93 375.00 62.00
C 359.39 62.14 341.41 64.48 325.00 63.00
M 368.00 85.00 
C 373.20 86.08 377.02 87.82 379.00 93.00
C 380.08 95.81 379.66 97.32 379.00 100.00
C 377.53 105.93 374.93 108.53 369.00 110.00
C 366.02 110.74 362.60 111.00 359.00 111.00
C 359.63 117.94 358.53 125.04 359.00 132.00
C 364.50 132.65 371.33 130.68 376.00 133.00
C 381.65 134.47 388.86 138.07 389.00 145.00
C 389.69 147.78 389.68 149.27 389.00 152.00
C 388.87 158.45 381.47 163.41 376.00 165.00
C 371.77 166.23 353.40 168.53 350.00 165.00
C 347.58 138.22 351.82 110.84 350.00 84.00
C 355.83 84.66 362.99 82.68 368.00 85.00 Z"/>
</g>
<g fill="None" fill-opacity="0.0" stroke="#000000" stroke-opacity="0.00" stroke-width="0.3"><path d="
M 602.00 62.00 
C 595.47 64.16 595.09 76.99 602.00 79.00
C 601.44 72.63 601.09 67.83 602.00 62.00 Z"/>
</g>
<g fill="None" fill-opacity="0.0" stroke="#ED6272" stroke-opacity="0.67" stroke-width="0.3"><path d="
M 609.00 69.00 
C 608.02 69.12 606.99 68.90 606.00 69.00
C 605.84 66.65 605.45 63.08 609.00 64.00
C 603.63 60.68 603.67 72.30 609.00 69.00 Z"/>
</g>
<g fill="None" fill-opacity="0.0" stroke="#B5A0A3" stroke-opacity="0.11" stroke-width="0.3"><path d="
M 609.00 69.00 
C 611.45 67.49 611.51 65.55 609.00 64.00
C 605.45 63.08 605.84 66.65 606.00 69.00
C 606.99 68.90 608.02 69.12 609.00 69.00 Z"/>
</g>
<g fill="None" fill-opacity="0.0" stroke="#000000" stroke-opacity="0.00" stroke-width="0.3"><path d="
M 608.00 73.00 
C 606.66 78.23 603.31 84.41 612.00 82.00
C 610.22 79.13 609.79 75.87 608.00 73.00 Z"/>
</g>
<g fill="None" fill-opacity="0.0" stroke="#ED6474" stroke-opacity="0.66" stroke-width="0.3"><path d="
M 42.00 84.00 
C 47.30 84.36 52.71 83.52 58.00 84.00
C 54.78 83.33 44.96 81.04 42.00 84.00 Z"/>
</g>
<g fill="None" fill-opacity="0.0" stroke="#E72E43" stroke-opacity="0.89" stroke-width="0.3"><path d="
M 17.00 186.00 
C 17.00 186.00 16.96 187.00 17.00 187.00
C 25.18 187.74 33.78 187.00 42.00 187.00
C 38.92 152.95 44.31 118.12 42.00 84.00
C 39.67 117.01 41.67 152.17 41.00 186.00
C 33.05 186.54 24.94 185.28 17.00 186.00 Z"/>
</g>
<g fill="None" fill-opacity="0.0" stroke="#FBC9CE" stroke-opacity="0.24" stroke-width="0.3"><path d="
M 42.00 187.00 
C 42.00 187.00 43.00 187.04 43.00 187.00
C 43.61 180.26 42.61 172.69 43.00 166.00 C 43.39 159.31 42.60 152.52 43.00 146.00 C 43.40 139.48 42.31 132.24 43.00 126.00 C 43.69 119.76 41.56 111.69 43.00 106.00 C 44.44 100.31 39.86 90.49 43.00 86.00
C 45.13 82.95 57.36 85.23 60.00 86.00
C 61.77 86.51 64.45 87.17 66.00 88.00
C 67.40 88.75 71.25 91.61 72.00 93.00
C 69.83 86.88 63.69 85.18 58.00 84.00
C 52.71 83.52 47.30 84.36 42.00 84.00
C 44.31 118.12 38.92 152.95 42.00 187.00 Z"/>
</g>
<g fill="None" fill-opacity="0.0" stroke="#FAC8CC" stroke-opacity="0.24" stroke-width="0.3"><path d="
M 350.00 165.00 
C 350.00 165.04 351.00 165.00 351.00 165.00
C 351.25 164.75 351.00 164.00 351.00 164.00
C 351.00 157.74 350.76 151.24 351.00 145.00 C 351.24 138.76 350.40 131.05 351.00 125.00 C 351.60 118.95 349.55 111.50 351.00 106.00 C 352.45 100.50 347.92 90.40 351.00 86.00
C 352.73 83.53 364.86 84.71 368.00 85.00
C 362.99 82.68 355.83 84.66 350.00 84.00
C 351.82 110.84 347.58 138.22 350.00 165.00 Z"/>
</g>
<g fill="None" fill-opacity="0.0" stroke="#FFFFFF" stroke-opacity="0.01" stroke-width="0.3"><path d="
M 43.00 86.00 
C 48.56 86.66 54.47 85.12 60.00 86.00
C 57.36 85.23 45.13 82.95 43.00 86.00 Z"/>
</g>
<g fill="None" fill-opacity="0.0" stroke="#FDECEE" stroke-opacity="0.08" stroke-width="0.3"><path d="
M 351.00 86.00 
C 360.00 87.29 374.36 82.13 377.92 94.08 C 381.49 106.02 366.85 112.08 357.00 109.00
C 357.63 117.69 352.93 136.88 365.00 135.00 C 377.07 133.12 384.53 136.08 389.00 146.00
C 389.00 145.50 389.00 145.00 389.00 145.00
C 388.86 138.07 381.65 134.47 376.00 133.00
C 370.10 132.21 363.92 133.59 358.00 133.00
C 358.00 125.67 358.00 118.33 358.00 111.00
C 360.21 108.70 365.87 110.39 369.00 110.00
C 374.93 108.53 377.53 105.93 379.00 100.00
C 379.23 98.03 379.42 94.93 379.00 93.00
C 377.02 87.82 373.20 86.08 368.00 85.00
C 364.86 84.71 352.73 83.53 351.00 86.00 Z"/>
</g>
<g fill="None" fill-opacity="0.0" stroke="#000000" stroke-opacity="0.00" stroke-width="0.3"><path d="
M 351.00 164.00 
C 366.80 162.57 381.93 167.61 389.00 151.00
C 389.00 149.33 389.00 147.67 389.00 146.00
C 384.53 136.08 377.07 133.12 365.00 135.00 C 352.93 136.88 357.63 117.69 357.00 109.00
C 366.85 112.08 381.49 106.02 377.92 94.08 C 374.36 82.13 360.00 87.29 351.00 86.00
C 347.92 90.40 352.45 100.50 351.00 106.00 C 349.55 111.50 351.60 118.95 351.00 125.00 C 350.40 131.05 351.24 138.76 351.00 145.00 C 350.76 151.24 351.00 157.74 351.00 164.00 Z"/>
</g>
<g fill="None" fill-opacity="0.0" stroke="#F9B9C0" stroke-opacity="0.30" stroke-width="0.3"><path d="
M 405.00 98.00 
C 405.01 97.94 406.00 98.00 406.00 98.00
C 406.47 94.47 406.57 92.58 406.00 89.00
C 406.00 89.00 405.01 89.06 405.00 89.00
C 405.20 91.91 405.20 95.09 405.00 98.00 Z"/>
</g>
<g fill="None" fill-opacity="0.0" stroke="#EC5768" stroke-opacity="0.72" stroke-width="0.3"><path d="
M 379.00 100.00 
C 379.66 97.32 380.08 95.81 379.00 93.00
C 379.42 94.93 379.23 98.03 379.00 100.00 Z"/>
</g>
<g fill="None" fill-opacity="0.0" stroke="#FDE2E4" stroke-opacity="0.13" stroke-width="0.3"><path d="
M 398.00 115.00 
C 396.11 117.62 394.72 117.72 397.00 120.00
C 407.09 124.52 414.11 132.81 415.00 144.00
C 415.04 144.13 416.00 144.00 416.00 144.00
C 416.24 132.51 407.54 122.39 397.00 119.00
C 402.97 113.26 404.96 105.80 406.00 98.00
C 406.00 98.00 405.01 97.94 405.00 98.00
C 404.53 104.84 401.92 109.55 398.00 115.00 Z"/>
</g>
<g fill="None" fill-opacity="0.0" stroke="#FFFFFF" stroke-opacity="0.01" stroke-width="0.3"><path d="
M 143.00 106.00 
C 145.99 105.94 149.01 105.94 152.00 106.00
C 149.09 105.65 145.97 105.64 143.00 106.00 Z"/>
</g>
<g fill="None" fill-opacity="0.0" stroke="#FCDBDF" stroke-opacity="0.15" stroke-width="0.3"><path d="
M 105.00 143.00 
C 105.00 142.96 106.00 143.00 106.00 143.00
C 107.22 125.11 121.70 108.61 140.00 107.00
C 144.76 106.58 150.23 106.62 155.00 107.00
C 173.14 108.44 186.05 124.42 187.00 142.00
C 187.00 142.01 188.00 142.00 188.00 142.00
C 186.90 121.78 172.58 106.41 152.00 106.00
C 149.01 105.94 145.99 105.94 143.00 106.00
C 122.01 106.42 106.40 122.38 105.00 143.00 Z"/>
</g>
<g fill="None" fill-opacity="0.0" stroke="#E51C32" stroke-opacity="0.98" stroke-width="0.3"><path d="
M 106.00 143.00 
C 105.76 146.57 105.81 150.43 106.00 154.00
C 107.07 173.65 123.31 189.00 143.00 189.00
C 146.99 189.00 151.01 189.15 155.00 189.00
C 166.31 188.57 172.02 184.38 180.25 176.25 C 188.48 168.12 171.90 164.31 165.00 161.00
C 161.95 165.08 158.06 169.14 153.00 170.00
C 150.20 170.79 148.73 170.68 146.00 170.00
C 140.69 168.68 132.58 164.54 132.00 158.00
C 131.69 156.80 130.22 154.85 131.00 153.00
C 149.67 153.00 168.33 153.00 187.00 153.00
C 187.00 149.35 187.20 145.64 187.00 142.00
C 186.05 124.42 173.14 108.44 155.00 107.00
C 150.92 107.07 143.99 107.04 140.00 107.00
C 121.70 108.61 107.22 125.11 106.00 143.00
M 162.00 136.00 
C 166.75 138.33 156.47 140.75 154.00 140.00 C 151.53 139.25 142.48 139.25 140.00 140.00 C 137.52 140.75 127.21 138.35 132.00 136.00
C 136.19 120.74 157.83 120.79 162.00 136.00 Z"/>
</g>
<g fill="None" fill-opacity="0.0" stroke="#E94255" stroke-opacity="0.81" stroke-width="0.3"><path d="
M 155.00 107.00 
C 150.23 106.62 144.76 106.58 140.00 107.00
C 143.99 107.04 150.92 107.07 155.00 107.00 Z"/>
</g>
<g fill="None" fill-opacity="0.0" stroke="#F3919B" stroke-opacity="0.47" stroke-width="0.3"><path d="
M 358.00 111.00 
C 358.00 110.96 359.00 111.00 359.00 111.00
C 362.60 111.00 366.02 110.74 369.00 110.00
C 365.87 110.39 360.21 108.70 358.00 111.00 Z"/>
</g>
<g fill="None" fill-opacity="0.0" stroke="#FBDADD" stroke-opacity="0.16" stroke-width="0.3"><path d="
M 422.00 112.00 
C 421.48 116.26 422.27 120.72 422.00 125.00
C 420.79 143.96 415.52 173.45 437.75 187.25 C 459.99 201.04 500.33 192.70 502.00 162.00
C 502.00 162.04 501.00 162.00 501.00 162.00
C 499.15 189.21 464.88 199.32 440.92 187.08 C 416.97 174.83 422.99 135.07 423.00 111.00
C 423.00 110.50 423.00 110.00 423.00 110.00
C 422.20 109.14 421.98 112.19 422.00 112.00 Z"/>
</g>
<g fill="None" fill-opacity="0.0" stroke="#E7B0B5" stroke-opacity="0.33" stroke-width="0.3"><path d="
M 423.00 111.00 
C 430.85 111.71 439.11 111.00 447.00 111.00
C 447.50 111.00 448.00 111.00 448.00 111.00
C 448.00 110.50 448.00 110.00 448.00 110.00
C 440.12 109.29 430.88 109.29 423.00 110.00
C 423.00 110.00 423.00 110.50 423.00 111.00 Z"/>
</g>
<g fill="None" fill-opacity="0.0" stroke="#FDE8E9" stroke-opacity="0.11" stroke-width="0.3"><path d="
M 448.00 111.00 
C 448.00 125.41 446.53 140.68 448.00 155.00
C 449.47 161.64 452.05 166.80 459.00 169.00
C 460.94 169.32 464.07 169.34 466.00 169.00
C 472.13 167.01 474.47 162.92 476.00 157.00
C 477.97 142.26 475.99 125.89 476.00 111.00
C 476.00 110.50 476.00 110.00 476.00 110.00
C 471.57 114.26 476.54 126.71 475.00 133.00 C 473.46 139.29 476.17 150.41 474.93 156.93 C 473.68 163.44 468.77 168.31 462.01 167.99 C 455.24 167.68 450.99 163.06 449.33 156.67 C 447.67 150.28 450.57 139.26 449.00 133.00 C 447.43 126.74 452.46 114.30 448.00 110.00
C 448.00 110.00 448.00 110.50 448.00 111.00 Z"/>
</g>
<g fill="None" fill-opacity="0.0" stroke="#F4C0C5" stroke-opacity="0.27" stroke-width="0.3"><path d="
M 476.00 111.00 
C 479.69 111.33 485.54 110.37 489.00 111.00 C 492.46 111.63 499.03 109.18 501.00 112.00
C 503.52 115.60 500.05 123.29 501.00 128.00 C 501.95 132.71 500.78 139.85 501.00 145.00 C 501.22 150.15 501.36 156.76 501.00 162.00
C 501.00 162.00 502.00 162.04 502.00 162.00
C 502.00 144.67 502.00 127.33 502.00 110.00
C 493.39 110.58 484.60 109.22 476.00 110.00
C 476.00 110.00 476.00 110.50 476.00 111.00 Z"/>
</g>
<g fill="None" fill-opacity="0.0" stroke="#ED6877" stroke-opacity="0.64" stroke-width="0.3"><path d="
M 376.00 133.00 
C 371.33 130.68 364.50 132.65 359.00 132.00
C 358.53 125.04 359.63 117.94 359.00 111.00
C 359.00 111.00 358.00 110.96 358.00 111.00
C 358.00 118.33 358.00 125.67 358.00 133.00
C 363.92 133.59 370.10 132.21 376.00 133.00 Z"/>
</g>
<g fill="None" fill-opacity="0.0" stroke="#E51930" stroke-opacity="0.99" stroke-width="0.3"><path d="
M 501.00 162.00 
C 501.36 156.76 501.22 150.15 501.00 145.00 C 500.78 139.85 501.95 132.71 501.00 128.00 C 500.05 123.29 503.52 115.60 501.00 112.00
C 493.00 112.00 485.00 112.00 477.00 112.00
C 476.33 126.83 478.33 142.99 476.00 157.00
C 474.47 162.92 472.13 167.01 466.00 169.00
C 463.21 169.90 461.73 169.86 459.00 169.00
C 452.05 166.80 449.47 161.64 448.00 155.00
C 445.23 142.51 445.79 124.36 447.00 111.00
C 439.11 111.00 430.85 111.71 423.00 111.00
C 422.99 135.07 416.97 174.83 440.92 187.08 C 464.88 199.32 499.15 189.21 501.00 162.00 Z"/>
</g>
<g fill="None" fill-opacity="0.0" stroke="#EC5366" stroke-opacity="0.73" stroke-width="0.3"><path d="
M 448.00 155.00 
C 446.53 140.68 448.00 125.41 448.00 111.00
C 448.00 111.00 447.50 111.00 447.00 111.00
C 445.79 124.36 445.23 142.51 448.00 155.00 Z"/>
</g>
<g fill="None" fill-opacity="0.0" stroke="#EA4457" stroke-opacity="0.80" stroke-width="0.3"><path d="
M 476.00 157.00 
C 478.33 142.99 476.33 126.83 477.00 112.00
C 485.00 112.00 493.00 112.00 501.00 112.00
C 499.03 109.18 492.46 111.63 489.00 111.00 C 485.54 110.37 479.69 111.33 476.00 111.00
C 475.99 125.89 477.97 142.26 476.00 157.00 Z"/>
</g>
<g fill="None" fill-opacity="0.0" stroke="#FFFFFF" stroke-opacity="0.00" stroke-width="0.3"><path d="
M 422.00 125.00 
C 422.27 120.72 421.48 116.26 422.00 112.00
C 420.27 116.24 421.81 120.90 422.00 125.00 Z"/>
</g>
<g fill="None" fill-opacity="0.0" stroke="#EC5565" stroke-opacity="0.73" stroke-width="0.3"><path d="
M 397.00 120.00 
C 394.72 117.72 396.11 117.62 398.00 115.00
C 394.44 118.85 393.54 118.45 397.00 120.00 Z"/>
</g>
<g fill="None" fill-opacity="0.0" stroke="#FBDADE" stroke-opacity="0.16" stroke-width="0.3"><path d="
M 132.00 136.00 
C 131.87 136.46 131.77 137.84 132.00 138.00
C 132.34 138.23 133.00 138.00 133.00 138.00
C 138.69 122.84 155.30 122.83 161.00 138.00
C 161.50 138.00 162.00 138.00 162.00 138.00
C 162.23 137.84 162.13 136.47 162.00 136.00
C 157.83 120.79 136.19 120.74 132.00 136.00 Z"/>
</g>
<g fill="None" fill-opacity="0.0" stroke="#000000" stroke-opacity="0.00" stroke-width="0.3"><path d="
M 133.00 138.00 
C 142.33 138.00 151.67 138.00 161.00 138.00
C 155.30 122.83 138.69 122.84 133.00 138.00 Z"/>
</g>
<g fill="None" fill-opacity="0.0" stroke="#FCE1E4" stroke-opacity="0.13" stroke-width="0.3"><path d="
M 223.00 143.00 
C 222.64 145.73 222.72 149.26 223.00 152.00
C 225.00 161.01 232.71 168.50 241.98 166.98 C 251.24 165.45 259.38 160.45 259.00 151.00
C 258.98 150.50 259.00 149.50 259.00 149.00
C 256.51 154.70 253.92 162.55 246.77 164.77 C 239.62 167.00 230.03 165.93 226.25 158.75 C 222.47 151.58 222.03 143.15 227.25 136.25 C 232.48 129.36 238.55 129.18 247.07 130.93 C 255.59 132.67 255.47 143.23 259.00 148.00
C 259.00 146.67 259.05 145.33 259.00 144.00
C 258.19 122.62 227.82 124.40 223.00 143.00 Z"/>
</g>
<g fill="None" fill-opacity="0.0" stroke="#000000" stroke-opacity="0.00" stroke-width="0.3"><path d="
M 259.00 149.00 
C 259.00 148.50 259.00 148.00 259.00 148.00
C 255.47 143.23 255.59 132.67 247.07 130.93 C 238.55 129.18 232.48 129.36 227.25 136.25 C 222.03 143.15 222.47 151.58 226.25 158.75 C 230.03 165.93 239.62 167.00 246.77 164.77 C 253.92 162.55 256.51 154.70 259.00 149.00 Z"/>
</g>
<g fill="None" fill-opacity="0.0" stroke="#E73449" stroke-opacity="0.87" stroke-width="0.3"><path d="
M 162.00 136.00 
C 162.13 136.47 162.23 137.84 162.00 138.00
C 159.58 140.52 150.61 138.99 147.00 139.00 C 143.39 139.01 134.39 140.49 132.00 138.00
C 131.77 137.84 131.87 136.46 132.00 136.00
C 127.21 138.35 137.52 140.75 140.00 140.00 C 142.48 139.25 151.53 139.25 154.00 140.00 C 156.47 140.75 166.75 138.33 162.00 136.00 Z"/>
</g>
<g fill="None" fill-opacity="0.0" stroke="#E4A9B2" stroke-opacity="0.36" stroke-width="0.3"><path d="
M 162.00 138.00 
C 162.00 138.00 161.50 138.00 161.00 138.00
C 151.67 138.00 142.33 138.00 133.00 138.00
C 133.00 138.00 132.34 138.23 132.00 138.00
C 134.39 140.49 143.39 139.01 147.00 139.00 C 150.61 138.99 159.58 140.52 162.00 138.00 Z"/>
</g>
<g fill="None" fill-opacity="0.0" stroke="#F1828F" stroke-opacity="0.53" stroke-width="0.3"><path d="
M 196.00 142.00 
C 196.00 145.33 196.00 148.67 196.00 152.00
C 196.00 152.50 196.03 153.50 196.00 154.00
C 196.00 154.00 197.00 154.02 197.00 154.00
C 196.81 149.09 196.67 143.90 197.00 139.00
C 197.00 139.00 196.27 138.75 196.00 139.00
C 195.97 140.00 196.00 141.00 196.00 142.00 Z"/>
</g>
<g fill="None" fill-opacity="0.0" stroke="#F4A2AC" stroke-opacity="0.39" stroke-width="0.3"><path d="
M 187.00 153.00 
C 187.00 153.50 187.00 154.00 187.00 154.00
C 187.50 154.00 188.00 154.00 188.00 154.00
C 188.35 150.15 188.21 145.86 188.00 142.00
C 188.00 142.00 187.00 142.01 187.00 142.00
C 187.20 145.64 187.00 149.35 187.00 153.00 Z"/>
</g>
<g fill="None" fill-opacity="0.0" stroke="#FFFFFF" stroke-opacity="0.03" stroke-width="0.3"><path d="
M 196.00 152.00 
C 196.00 148.67 196.00 145.33 196.00 142.00
C 195.28 145.30 194.54 148.57 196.00 152.00 Z"/>
</g>
<g fill="None" fill-opacity="0.0" stroke="#F49FA9" stroke-opacity="0.41" stroke-width="0.3"><path d="
M 105.00 154.00 
C 105.00 154.05 106.00 154.00 106.00 154.00
C 105.81 150.43 105.76 146.57 106.00 143.00
C 106.00 143.00 105.00 142.96 105.00 143.00
C 104.76 146.59 104.86 150.40 105.00 154.00 Z"/>
</g>
<g fill="None" fill-opacity="0.0" stroke="#EC5E6D" stroke-opacity="0.69" stroke-width="0.3"><path d="
M 223.00 152.00 
C 222.72 149.26 222.64 145.73 223.00 143.00
C 222.16 146.25 222.27 148.73 223.00 152.00 Z"/>
</g>
<g fill="None" fill-opacity="0.0" stroke="#F5A6B1" stroke-opacity="0.37" stroke-width="0.3"><path d="
M 259.00 148.00 
C 259.00 148.00 259.00 148.50 259.00 149.00
C 259.00 149.50 258.98 150.50 259.00 151.00
C 259.55 148.34 259.56 146.71 259.00 144.00
C 259.05 145.33 259.00 146.67 259.00 148.00 Z"/>
</g>
<g fill="None" fill-opacity="0.0" stroke="#F07C89" stroke-opacity="0.56" stroke-width="0.3"><path d="
M 415.00 159.00 
C 415.00 159.00 415.75 159.25 416.00 159.00
C 416.00 159.00 416.00 158.50 416.00 158.00
C 416.00 154.00 416.00 150.00 416.00 146.00
C 416.00 145.50 415.98 144.50 416.00 144.00
C 416.00 144.00 415.04 144.13 415.00 144.00
C 415.38 148.81 415.33 154.18 415.00 159.00 Z"/>
</g>
<g fill="None" fill-opacity="0.0" stroke="#F5A7B0" stroke-opacity="0.37" stroke-width="0.3"><path d="
M 389.00 146.00 
C 389.00 147.67 389.00 149.33 389.00 151.00
C 389.00 151.50 389.00 152.00 389.00 152.00
C 389.68 149.27 389.69 147.78 389.00 145.00
C 389.00 145.00 389.00 145.50 389.00 146.00 Z"/>
</g>
<g fill="None" fill-opacity="0.0" stroke="#FFF6F8" stroke-opacity="0.04" stroke-width="0.3"><path d="
M 416.00 158.00 
C 418.05 155.22 417.24 148.91 416.00 146.00
C 416.00 150.00 416.00 154.00 416.00 158.00 Z"/>
</g>
<g fill="None" fill-opacity="0.0" stroke="#FDE6E8" stroke-opacity="0.09" stroke-width="0.3"><path d="
M 351.00 164.00 
C 351.00 164.00 351.25 164.75 351.00 165.00
C 358.99 165.00 368.12 166.25 376.00 165.00
C 381.47 163.41 388.87 158.45 389.00 152.00
C 389.00 152.00 389.00 151.50 389.00 151.00
C 381.93 167.61 366.80 162.57 351.00 164.00 Z"/>
</g>
<g fill="None" fill-opacity="0.0" stroke="#F17A88" stroke-opacity="0.56" stroke-width="0.3"><path d="
M 132.00 158.00 
C 131.96 157.50 132.00 156.50 132.00 156.00
C 132.00 156.00 131.75 155.26 132.00 155.00
C 135.44 151.45 143.71 154.85 149.00 154.00 C 154.29 153.15 162.21 154.32 168.00 154.00 C 173.79 153.68 181.08 154.00 187.00 154.00
C 187.00 154.00 187.00 153.50 187.00 153.00
C 168.33 153.00 149.67 153.00 131.00 153.00
C 130.22 154.85 131.69 156.80 132.00 158.00 Z"/>
</g>
<g fill="None" fill-opacity="0.0" stroke="#FCDEE1" stroke-opacity="0.15" stroke-width="0.3"><path d="
M 132.00 156.00 
C 132.00 156.50 131.96 157.50 132.00 158.00
C 132.58 164.54 140.69 168.68 146.00 170.00
C 148.09 170.24 150.92 170.30 153.00 170.00
C 158.06 169.14 161.95 165.08 165.00 161.00
C 171.90 164.31 188.48 168.12 180.25 176.25 C 172.02 184.38 166.31 188.57 155.00 189.00
C 151.09 189.56 146.80 189.37 143.00 189.00
C 123.31 189.00 107.07 173.65 106.00 154.00
C 106.00 154.00 105.00 154.05 105.00 154.00
C 105.32 165.32 110.36 176.62 119.77 183.23 C 129.18 189.84 142.06 193.36 153.93 191.93 C 165.80 190.49 174.27 186.13 182.70 176.70 C 191.12 167.26 171.44 162.70 164.00 159.00
C 155.71 175.69 138.66 168.74 132.00 156.00 Z"/>
</g>
<g fill="None" fill-opacity="0.0" stroke="#EBEAEA" stroke-opacity="0.10" stroke-width="0.3"><path d="
M 132.00 155.00 
C 137.93 154.46 145.20 155.60 151.00 155.00 C 156.80 154.40 164.68 156.06 170.00 155.00 C 175.32 153.94 184.44 157.70 188.00 154.00
C 188.00 154.00 187.50 154.00 187.00 154.00
C 181.08 154.00 173.79 153.68 168.00 154.00 C 162.21 154.32 154.29 153.15 149.00 154.00 C 143.71 154.85 135.44 151.45 132.00 155.00 Z"/>
</g>
<g fill="None" fill-opacity="0.0" stroke="#F17E8C" stroke-opacity="0.55" stroke-width="0.3"><path d="
M 376.00 165.00 
C 368.12 166.25 358.99 165.00 351.00 165.00
C 351.00 165.00 350.00 165.04 350.00 165.00
C 353.40 168.53 371.77 166.23 376.00 165.00 Z"/>
</g>
<g fill="None" fill-opacity="0.0" stroke="#EC5F70" stroke-opacity="0.68" stroke-width="0.3"><path d="
M 466.00 169.00 
C 464.07 169.34 460.94 169.32 459.00 169.00
C 461.73 169.86 463.21 169.90 466.00 169.00 Z"/>
</g>
<g fill="None" fill-opacity="0.0" stroke="#F18692" stroke-opacity="0.51" stroke-width="0.3"><path d="
M 153.00 170.00 
C 150.92 170.30 148.09 170.24 146.00 170.00
C 148.73 170.68 150.20 170.79 153.00 170.00 Z"/>
</g>
<g fill="None" fill-opacity="0.0" stroke="#E94255" stroke-opacity="0.81" stroke-width="0.3"><path d="
M 259.00 187.00 
C 259.00 187.00 259.50 187.00 260.00 187.00
C 260.25 184.22 260.53 180.05 259.00 178.00
C 259.20 180.98 258.73 184.02 259.00 187.00 Z"/>
</g>
<g fill="None" fill-opacity="0.0" stroke="#F5A5AD" stroke-opacity="0.38" stroke-width="0.3"><path d="
M 383.00 187.00 
C 363.94 188.51 344.13 187.00 325.00 187.00
C 325.00 187.00 324.00 187.04 324.00 187.00
C 327.75 190.90 338.43 186.81 344.00 188.00 C 349.57 189.19 358.02 187.40 364.00 188.00 C 369.98 188.60 377.66 188.03 383.00 187.00 Z"/>
</g>
<g fill="None" fill-opacity="0.0" stroke="#EEEDED" stroke-opacity="0.05" stroke-width="0.3"><path d="
M 558.00 188.00 
C 558.00 188.00 557.96 189.00 558.00 189.00
C 563.00 189.45 580.10 190.93 582.00 187.00
C 580.14 189.63 573.00 187.67 570.00 188.00 C 567.00 188.33 561.15 188.45 558.00 188.00 Z"/>
</g>
<g fill="None" fill-opacity="0.0" stroke="#F18693" stroke-opacity="0.51" stroke-width="0.3"><path d="
M 238.00 188.00 
C 234.44 188.19 230.55 188.28 227.00 188.00
C 230.72 188.72 234.25 188.61 238.00 188.00 Z"/>
</g>
<g fill="None" fill-opacity="0.0" stroke="#EC5A6B" stroke-opacity="0.71" stroke-width="0.3"><path d="
M 155.00 189.00 
C 151.01 189.15 146.99 189.00 143.00 189.00
C 146.80 189.37 151.09 189.56 155.00 189.00 Z"/>
</g>
<g fill="#000000" fill-opacity="0.00" stroke="None">
<path d="
M 0.00 264.00 
L 640.00 264.00
L 640.00 0.00
L 0.00 0.00
L 0.00 264.00
M 614.00 54.00 
C 633.73 58.89 624.21 94.29 603.99 87.01 C 583.78 79.73 591.95 48.54 614.00 54.00
M 196.00 154.00 
C 196.03 153.50 196.00 152.50 196.00 152.00
C 194.54 148.57 195.28 145.30 196.00 142.00
C 196.00 141.00 195.97 140.00 196.00 139.00
C 197.00 109.55 235.11 95.78 257.00 113.00
C 256.76 103.66 257.31 97.68 257.00 88.00 C 256.69 78.32 257.60 73.92 257.00 63.00 C 256.40 52.08 265.05 56.38 275.00 55.00 C 284.95 53.62 286.04 60.82 285.00 70.00 C 283.96 79.18 285.45 87.23 285.00 96.00 C 284.55 104.77 285.11 112.51 285.00 121.00 C 284.89 129.49 284.83 137.68 285.00 146.00 C 285.17 154.32 284.48 163.96 285.00 172.00 C 285.52 180.04 286.42 190.99 277.00 189.00 C 267.58 187.01 257.15 194.06 258.00 182.00
C 235.37 201.41 194.83 185.48 196.00 154.00
M 541.00 56.00 
C 542.93 77.39 541.04 99.46 541.00 121.00 C 540.96 142.54 542.94 165.52 541.00 187.00
C 540.68 192.40 528.07 186.80 522.00 189.00 C 515.93 191.20 512.17 182.92 514.00 176.00 C 515.83 169.08 513.20 161.97 514.00 155.00 C 514.80 148.03 513.69 140.99 514.00 134.00 C 514.31 127.01 513.93 118.90 514.00 112.00 C 514.07 105.10 514.16 97.59 514.00 91.00 C 513.84 84.41 514.50 76.00 514.00 70.00 C 513.50 64.00 512.98 52.98 520.00 55.00 C 527.02 57.02 536.38 51.19 541.00 56.00
M 582.00 57.00 
C 585.35 63.92 580.60 75.18 582.00 83.00 C 583.40 90.82 581.62 100.84 582.00 109.00 C 582.38 117.16 582.38 126.84 582.00 135.00 C 581.62 143.16 583.40 153.18 582.00 161.00 C 580.60 168.82 585.35 180.08 582.00 187.00
C 580.10 190.93 563.00 189.45 558.00 189.00
C 553.85 188.76 556.53 174.27 556.00 169.00 C 555.47 163.73 556.23 152.45 556.00 146.00 C 555.77 139.55 556.05 131.05 556.00 124.00 C 555.95 116.95 555.91 108.29 556.00 101.00 C 556.09 93.71 555.70 86.40 556.00 79.00 C 556.30 71.60 555.33 63.42 556.00 56.00
C 558.89 53.00 580.59 54.08 582.00 57.00
M 66.00 88.00 
C 64.45 87.17 61.77 86.51 60.00 86.00
C 54.47 85.12 48.56 86.66 43.00 86.00
C 39.86 90.49 44.44 100.31 43.00 106.00 C 41.56 111.69 43.69 119.76 43.00 126.00 C 42.31 132.24 43.40 139.48 43.00 146.00 C 42.60 152.52 43.39 159.31 43.00 166.00 C 42.61 172.69 43.61 180.26 43.00 187.00
C 42.77 190.94 33.58 188.44 30.00 189.00 C 26.42 189.56 18.93 188.58 15.00 189.00
C 15.00 145.33 15.00 101.67 15.00 58.00
C 40.49 58.50 77.76 52.66 94.30 74.70 C 110.84 96.73 99.64 132.01 73.00 136.00
C 84.37 153.58 97.09 170.19 108.00 188.00
C 96.40 188.55 77.99 193.37 71.23 182.77 C 64.47 172.17 61.66 166.14 54.23 155.77 C 46.80 145.40 49.07 129.03 49.00 116.00
C 65.56 120.92 80.99 99.61 66.00 88.00
M 369.00 61.00 
C 370.00 61.00 371.00 61.03 372.00 61.00
C 389.43 60.53 403.33 72.23 406.00 89.00
C 406.57 92.58 406.47 94.47 406.00 98.00
C 404.96 105.80 402.97 113.26 397.00 119.00
C 407.54 122.39 416.24 132.51 416.00 144.00
C 415.98 144.50 416.00 145.50 416.00 146.00
C 417.24 148.91 418.05 155.22 416.00 158.00
C 416.00 158.50 416.00 159.00 416.00 159.00
C 416.77 170.42 408.73 177.64 399.30 183.30 C 389.88 188.97 376.25 189.65 364.00 189.00 C 351.75 188.35 335.60 189.49 323.00 189.00
C 322.94 177.38 323.08 165.60 323.00 154.00 C 322.92 142.40 323.16 130.54 323.00 119.00 C 322.84 107.46 323.33 95.39 323.00 84.00 C 322.67 72.61 319.94 57.54 334.00 60.00 C 348.06 62.46 356.40 57.33 369.00 61.00
M 152.00 106.00 
C 172.58 106.41 186.90 121.78 188.00 142.00
C 188.21 145.86 188.35 150.15 188.00 154.00
C 184.44 157.70 175.32 153.94 170.00 155.00 C 164.68 156.06 156.80 154.40 151.00 155.00 C 145.20 155.60 137.93 154.46 132.00 155.00
C 131.75 155.26 132.00 156.00 132.00 156.00
C 138.66 168.74 155.71 175.69 164.00 159.00
C 171.44 162.70 191.12 167.26 182.70 176.70 C 174.27 186.13 165.80 190.49 153.93 191.93 C 142.06 193.36 129.18 189.84 119.77 183.23 C 110.36 176.62 105.32 165.32 105.00 154.00
C 104.86 150.40 104.76 146.59 105.00 143.00
C 106.40 122.38 122.01 106.42 143.00 106.00
C 145.97 105.64 149.09 105.65 152.00 106.00
M 476.00 110.00 
C 484.60 109.22 493.39 110.58 502.00 110.00
C 502.00 127.33 502.00 144.67 502.00 162.00
C 500.33 192.70 459.99 201.04 437.75 187.25 C 415.52 173.45 420.79 143.96 422.00 125.00
C 421.81 120.90 420.27 116.24 422.00 112.00
C 421.98 112.19 422.20 109.14 423.00 110.00
C 430.88 109.29 440.12 109.29 448.00 110.00
C 452.46 114.30 447.43 126.74 449.00 133.00 C 450.57 139.26 447.67 150.28 449.33 156.67 C 450.99 163.06 455.24 167.68 462.01 167.99 C 468.77 168.31 473.68 163.44 474.93 156.93 C 476.17 150.41 473.46 139.29 475.00 133.00 C 476.54 126.71 471.57 114.26 476.00 110.00 Z"/>
</g>
<g fill="#FCE4E6" fill-opacity="0.12" stroke="None">
<path d="
M 614.00 54.00 
C 591.95 48.54 583.78 79.73 603.99 87.01 C 624.21 94.29 633.73 58.89 614.00 54.00
M 613.00 55.00 
C 631.46 59.29 624.04 90.86 604.78 85.22 C 585.52 79.58 593.19 50.39 613.00 55.00 Z"/>
</g>
<g fill="#FCEEEF" fill-opacity="0.08" stroke="None">
<path d="
M 196.00 139.00 
C 196.27 138.75 197.00 139.00 197.00 139.00
C 198.82 112.21 232.47 97.62 254.00 113.00
C 255.34 113.37 256.56 113.84 258.00 114.00
C 257.53 106.70 258.63 99.28 258.00 92.00 C 257.37 84.72 259.21 77.24 258.00 70.00 C 256.79 62.76 258.29 53.99 266.00 56.00 C 273.71 58.01 282.57 52.21 283.99 60.01 C 285.41 67.80 283.38 74.50 284.00 82.00 C 284.62 89.50 283.76 96.67 284.00 104.00 C 284.24 111.33 283.99 118.85 284.00 126.00 C 284.01 133.15 284.20 141.15 284.00 148.00 C 283.80 154.85 284.56 163.77 284.00 170.00 C 283.44 176.23 287.00 187.27 279.99 187.99 C 272.98 188.71 265.14 188.30 259.00 187.00
C 258.73 184.02 259.20 180.98 259.00 178.00
C 252.98 183.39 246.12 187.56 238.00 188.00
C 234.25 188.61 230.72 188.72 227.00 188.00
C 210.25 186.67 197.61 169.97 197.00 154.00
C 197.00 154.02 196.00 154.00 196.00 154.00
C 194.83 185.48 235.37 201.41 258.00 182.00
C 257.15 194.06 267.58 187.01 277.00 189.00 C 286.42 190.99 285.52 180.04 285.00 172.00 C 284.48 163.96 285.17 154.32 285.00 146.00 C 284.83 137.68 284.89 129.49 285.00 121.00 C 285.11 112.51 284.55 104.77 285.00 96.00 C 285.45 87.23 283.96 79.18 285.00 70.00 C 286.04 60.82 284.95 53.62 275.00 55.00 C 265.05 56.38 256.40 52.08 257.00 63.00 C 257.60 73.92 256.69 78.32 257.00 88.00 C 257.31 97.68 256.76 103.66 257.00 113.00
C 235.11 95.78 197.00 109.55 196.00 139.00 Z"/>
</g>
<g fill="#FCFCFC" fill-opacity="0.02" stroke="None">
<path d="
M 541.00 187.00 
C 541.00 187.04 540.00 187.00 540.00 187.00
C 536.24 189.78 514.39 191.83 515.00 183.00 C 515.62 174.16 514.71 160.74 515.00 151.00 C 515.29 141.26 514.87 130.20 515.00 120.00 C 515.13 109.80 514.93 98.42 515.00 88.00 C 515.07 77.58 514.95 66.48 515.00 56.00
C 523.33 56.00 531.67 56.00 540.00 56.00
C 540.50 56.00 541.00 56.00 541.00 56.00
C 536.38 51.19 527.02 57.02 520.00 55.00 C 512.98 52.98 513.50 64.00 514.00 70.00 C 514.50 76.00 513.84 84.41 514.00 91.00 C 514.16 97.59 514.07 105.10 514.00 112.00 C 513.93 118.90 514.31 127.01 514.00 134.00 C 513.69 140.99 514.80 148.03 514.00 155.00 C 513.20 161.97 515.83 169.08 514.00 176.00 C 512.17 182.92 515.93 191.20 522.00 189.00 C 528.07 186.80 540.68 192.40 541.00 187.00 Z"/>
</g>
<g fill="#FFFDFD" fill-opacity="0.02" stroke="None">
<path d="
M 556.00 56.00 
C 556.00 55.96 557.00 56.00 557.00 56.00
C 560.54 56.00 566.72 55.50 570.00 56.00 C 573.28 56.50 580.02 54.20 582.00 57.00
C 580.59 54.08 558.89 53.00 556.00 56.00 Z"/>
</g>
<g fill="#EB505D" fill-opacity="0.78" stroke="None">
<path d="
M 613.00 55.00 
C 593.19 50.39 585.52 79.58 604.78 85.22 C 624.04 90.86 631.46 59.29 613.00 55.00
M 613.00 58.00 
C 628.03 61.50 620.14 88.45 604.78 82.22 C 589.42 75.99 596.19 54.09 613.00 58.00 Z"/>
</g>
<g fill="#F2949F" fill-opacity="0.45" stroke="None">
<path d="
M 254.00 113.00 
C 255.47 114.05 256.57 116.45 259.00 116.00
C 259.00 96.33 259.00 76.67 259.00 57.00
C 267.00 57.00 275.00 57.00 283.00 57.00
C 283.00 100.33 283.00 143.67 283.00 187.00
C 275.33 187.00 267.67 187.00 260.00 187.00
C 259.50 187.00 259.00 187.00 259.00 187.00
C 265.14 188.30 272.98 188.71 279.99 187.99 C 287.00 187.27 283.44 176.23 284.00 170.00 C 284.56 163.77 283.80 154.85 284.00 148.00 C 284.20 141.15 284.01 133.15 284.00 126.00 C 283.99 118.85 284.24 111.33 284.00 104.00 C 283.76 96.67 284.62 89.50 284.00 82.00 C 283.38 74.50 285.41 67.80 283.99 60.01 C 282.57 52.21 273.71 58.01 266.00 56.00 C 258.29 53.99 256.79 62.76 258.00 70.00 C 259.21 77.24 257.37 84.72 258.00 92.00 C 258.63 99.28 257.53 106.70 258.00 114.00
C 256.56 113.84 255.34 113.37 254.00 113.00 Z"/>
</g>
<g fill="#F496A3" fill-opacity="0.44" stroke="None">
<path d="
M 540.00 187.00 
C 534.87 184.44 519.40 190.86 516.00 186.00
C 512.73 181.33 517.41 170.96 516.00 165.00 C 514.59 159.04 516.49 150.56 516.00 144.00 C 515.51 137.44 515.99 128.70 516.00 122.00 C 516.01 115.30 515.42 107.51 516.00 101.00 C 516.58 94.49 514.45 85.99 516.00 80.00 C 517.55 74.01 512.65 62.79 516.00 58.00
C 517.90 55.29 523.60 57.56 527.00 57.00 C 530.40 56.44 536.36 57.33 540.00 57.00
C 540.00 56.50 540.00 56.00 540.00 56.00
C 531.67 56.00 523.33 56.00 515.00 56.00
C 514.95 66.48 515.07 77.58 515.00 88.00 C 514.93 98.42 515.13 109.80 515.00 120.00 C 514.87 130.20 515.29 141.26 515.00 151.00 C 514.71 160.74 515.62 174.16 515.00 183.00 C 514.39 191.83 536.24 189.78 540.00 187.00 Z"/>
</g>
<g fill="#FAD1D6" fill-opacity="0.20" stroke="None">
<path d="
M 540.00 57.00 
C 540.00 78.58 539.27 100.44 540.00 122.00 C 540.73 143.56 538.05 165.54 540.00 187.00
C 540.00 187.00 541.00 187.04 541.00 187.00
C 542.94 165.52 540.96 142.54 541.00 121.00 C 541.04 99.46 542.93 77.39 541.00 56.00
C 541.00 56.00 540.50 56.00 540.00 56.00
C 540.00 56.00 540.00 56.50 540.00 57.00 Z"/>
</g>
<g fill="#FFDEE6" fill-opacity="0.12" stroke="None">
<path d="
M 558.00 189.00 
C 557.96 189.00 558.00 188.00 558.00 188.00
C 557.88 187.74 557.05 187.35 557.00 187.00
C 553.96 165.85 558.14 143.40 557.00 122.00 C 555.86 100.60 556.99 78.46 557.00 57.00
C 557.00 56.50 557.00 56.00 557.00 56.00
C 557.00 56.00 556.00 55.96 556.00 56.00
C 555.33 63.42 556.30 71.60 556.00 79.00 C 555.70 86.40 556.09 93.71 556.00 101.00 C 555.91 108.29 555.95 116.95 556.00 124.00 C 556.05 131.05 555.77 139.55 556.00 146.00 C 556.23 152.45 555.47 163.73 556.00 169.00 C 556.53 174.27 553.85 188.76 558.00 189.00 Z"/>
</g>
<g fill="#F7B1B8" fill-opacity="0.33" stroke="None">
<path d="
M 557.00 57.00 
C 557.25 57.25 558.00 57.00 558.00 57.00
C 565.67 57.00 573.33 57.00 581.00 57.00
C 581.00 100.33 581.00 143.67 581.00 187.00
C 573.33 187.00 565.67 187.00 558.00 187.00
C 557.50 187.00 557.00 187.00 557.00 187.00
C 557.05 187.35 557.88 187.74 558.00 188.00
C 561.15 188.45 567.00 188.33 570.00 188.00 C 573.00 187.67 580.14 189.63 582.00 187.00
C 585.35 180.08 580.60 168.82 582.00 161.00 C 583.40 153.18 581.62 143.16 582.00 135.00 C 582.38 126.84 582.38 117.16 582.00 109.00 C 581.62 100.84 583.40 90.82 582.00 83.00 C 580.60 75.18 585.35 63.92 582.00 57.00
C 580.02 54.20 573.28 56.50 570.00 56.00 C 566.72 55.50 560.54 56.00 557.00 56.00
C 557.00 56.00 557.00 56.50 557.00 57.00 Z"/>
</g>
<g fill="#E51A30" fill-opacity="0.99" stroke="None">
<path d="
M 254.00 113.00 
C 232.47 97.62 198.82 112.21 197.00 139.00
C 196.67 143.90 196.81 149.09 197.00 154.00
C 197.61 169.97 210.25 186.67 227.00 188.00
C 230.55 188.28 234.44 188.19 238.00 188.00
C 246.12 187.56 252.98 183.39 259.00 178.00
C 260.53 180.05 260.25 184.22 260.00 187.00
C 267.67 187.00 275.33 187.00 283.00 187.00
C 283.00 143.67 283.00 100.33 283.00 57.00
C 275.00 57.00 267.00 57.00 259.00 57.00
C 259.00 76.67 259.00 96.33 259.00 116.00
C 256.57 116.45 255.47 114.05 254.00 113.00
M 259.00 144.00 
C 259.56 146.71 259.55 148.34 259.00 151.00
C 259.38 160.45 251.24 165.45 241.98 166.98 C 232.71 168.50 225.00 161.01 223.00 152.00
C 222.27 148.73 222.16 146.25 223.00 143.00
C 227.82 124.40 258.19 122.62 259.00 144.00 Z"/>
</g>
<g fill="#E72C41" fill-opacity="0.90" stroke="None">
<path d="
M 516.00 58.00 
C 523.67 58.00 531.33 58.00 539.00 58.00
C 539.00 100.67 539.00 143.33 539.00 186.00
C 531.33 186.00 523.67 186.00 516.00 186.00
C 519.40 190.86 534.87 184.44 540.00 187.00
C 538.05 165.54 540.73 143.56 540.00 122.00 C 539.27 100.44 540.00 78.58 540.00 57.00
C 536.36 57.33 530.40 56.44 527.00 57.00 C 523.60 57.56 517.90 55.29 516.00 58.00 Z"/>
</g>
<g fill="#EA3F55" fill-opacity="0.82" stroke="None">
<path d="
M 557.00 187.00 
C 557.00 187.00 557.50 187.00 558.00 187.00
C 559.92 165.73 558.00 143.37 558.00 122.00 C 558.00 100.63 559.93 78.27 558.00 57.00
C 558.00 57.00 557.25 57.25 557.00 57.00
C 556.99 78.46 555.86 100.60 557.00 122.00 C 558.14 143.40 553.96 165.85 557.00 187.00 Z"/>
</g>
<g fill="#E5162E" fill-opacity="1.00" stroke="None">
<path d="
M 558.00 187.00 
C 565.67 187.00 573.33 187.00 581.00 187.00
C 581.00 143.67 581.00 100.33 581.00 57.00
C 573.33 57.00 565.67 57.00 558.00 57.00
C 559.93 78.27 558.00 100.63 558.00 122.00 C 558.00 143.37 559.92 165.73 558.00 187.00 Z"/>
</g>
<g fill="#FBDEE1" fill-opacity="0.14" stroke="None">
<path d="
M 43.00 187.00 
C 43.00 187.04 42.00 187.00 42.00 187.00
C 33.78 187.00 25.18 187.74 17.00 187.00
C 12.23 182.41 17.42 170.13 16.00 163.00 C 14.58 155.87 16.65 144.97 16.00 137.00 C 15.35 129.03 16.30 119.34 16.00 111.00 C 15.70 102.66 16.16 93.50 16.00 85.00 C 15.84 76.50 16.12 67.54 16.00 59.00
C 29.50 59.67 44.32 57.67 57.00 60.00
C 77.58 60.41 95.48 69.99 99.00 91.00 C 102.51 112.02 93.12 131.73 71.00 135.00
C 81.67 152.73 94.80 169.42 106.00 187.00
C 93.96 186.55 77.60 190.59 71.23 179.77 C 64.86 168.95 61.88 164.15 55.08 153.92 C 48.27 143.69 49.74 129.70 50.00 117.00
C 64.11 120.53 78.18 107.01 72.00 93.00
C 71.25 91.61 67.40 88.75 66.00 88.00
C 80.99 99.61 65.56 120.92 49.00 116.00
C 49.07 129.03 46.80 145.40 54.23 155.77 C 61.66 166.14 64.47 172.17 71.23 182.77 C 77.99 193.37 96.40 188.55 108.00 188.00
C 97.09 170.19 84.37 153.58 73.00 136.00
C 99.64 132.01 110.84 96.73 94.30 74.70 C 77.76 52.66 40.49 58.50 15.00 58.00
C 15.00 101.67 15.00 145.33 15.00 189.00
C 18.93 188.58 26.42 189.56 30.00 189.00 C 33.58 188.44 42.77 190.94 43.00 187.00 Z"/>
</g>
<g fill="#E5152E" fill-opacity="1.00" stroke="None">
<path d="
M 516.00 186.00 
C 523.67 186.00 531.33 186.00 539.00 186.00
C 539.00 143.33 539.00 100.67 539.00 58.00
C 531.33 58.00 523.67 58.00 516.00 58.00
C 512.65 62.79 517.55 74.01 516.00 80.00 C 514.45 85.99 516.58 94.49 516.00 101.00 C 515.42 107.51 516.01 115.30 516.00 122.00 C 515.99 128.70 515.51 137.44 516.00 144.00 C 516.49 150.56 514.59 159.04 516.00 165.00 C 517.41 170.96 512.73 181.33 516.00 186.00 Z"/>
</g>
<g fill="#F3DCDE" fill-opacity="0.12" stroke="None">
<path d="
M 613.00 58.00 
C 596.19 54.09 589.42 75.99 604.78 82.22 C 620.14 88.45 628.03 61.50 613.00 58.00
M 616.00 79.00 
C 611.48 72.65 618.08 65.78 612.00 60.00
C 620.40 61.40 622.93 74.23 616.00 79.00
M 615.00 80.00 
C 609.49 81.00 611.55 71.01 606.00 72.00
C 605.71 74.74 607.35 80.11 603.00 80.00
C 603.00 73.67 603.00 67.33 603.00 61.00
C 618.31 57.96 610.45 72.39 615.00 80.00
M 602.00 62.00 
C 601.09 67.83 601.44 72.63 602.00 79.00
C 595.09 76.99 595.47 64.16 602.00 62.00
M 608.00 73.00 
C 609.79 75.87 610.22 79.13 612.00 82.00
C 603.31 84.41 606.66 78.23 608.00 73.00 Z"/>
</g>
<g fill="#EC5E6E" fill-opacity="0.68" stroke="None">
<path d="
M 17.00 187.00 
C 16.96 187.00 17.00 186.00 17.00 186.00
C 17.00 144.00 17.00 102.00 17.00 60.00
C 30.33 60.00 43.67 60.00 57.00 60.00
C 44.32 57.67 29.50 59.67 16.00 59.00
C 16.12 67.54 15.84 76.50 16.00 85.00 C 16.16 93.50 15.70 102.66 16.00 111.00 C 16.30 119.34 15.35 129.03 16.00 137.00 C 16.65 144.97 14.58 155.87 16.00 163.00 C 17.42 170.13 12.23 182.41 17.00 187.00 Z"/>
</g>
<g fill="#E51930" fill-opacity="0.99" stroke="None">
<path d="
M 17.00 186.00 
C 24.94 185.28 33.05 186.54 41.00 186.00
C 41.67 152.17 39.67 117.01 42.00 84.00
C 44.96 81.04 54.78 83.33 58.00 84.00
C 63.69 85.18 69.83 86.88 72.00 93.00
C 78.18 107.01 64.11 120.53 50.00 117.00
C 49.74 129.70 48.27 143.69 55.08 153.92 C 61.88 164.15 64.86 168.95 71.23 179.77 C 77.60 190.59 93.96 186.55 106.00 187.00
C 94.80 169.42 81.67 152.73 71.00 135.00
C 93.12 131.73 102.51 112.02 99.00 91.00 C 95.48 69.99 77.58 60.41 57.00 60.00
C 43.67 60.00 30.33 60.00 17.00 60.00
C 17.00 102.00 17.00 144.00 17.00 186.00 Z"/>
</g>
<g fill="#FBEEEE" fill-opacity="0.07" stroke="None">
<path d="
M 416.00 159.00 
C 415.75 159.25 415.00 159.00 415.00 159.00
C 413.94 174.57 397.44 185.85 383.00 187.00
C 377.66 188.03 369.98 188.60 364.00 188.00 C 358.02 187.40 349.57 189.19 344.00 188.00 C 338.43 186.81 327.75 190.90 324.00 187.00
C 322.15 166.59 323.97 145.55 324.00 125.00 C 324.03 104.45 322.15 82.50 324.00 62.00
C 327.96 57.88 339.95 61.99 346.00 61.00 C 352.05 60.01 362.55 61.00 369.00 61.00
C 356.40 57.33 348.06 62.46 334.00 60.00 C 319.94 57.54 322.67 72.61 323.00 84.00 C 323.33 95.39 322.84 107.46 323.00 119.00 C 323.16 130.54 322.92 142.40 323.00 154.00 C 323.08 165.60 322.94 177.38 323.00 189.00
C 335.60 189.49 351.75 188.35 364.00 189.00 C 376.25 189.65 389.88 188.97 399.30 183.30 C 408.73 177.64 416.77 170.42 416.00 159.00 Z"/>
</g>
<g fill="#000000" fill-opacity="0.00" stroke="None">
<path d="
M 616.00 79.00 
C 622.93 74.23 620.40 61.40 612.00 60.00
C 618.08 65.78 611.48 72.65 616.00 79.00 Z"/>
</g>
<g fill="#F7BABD" fill-opacity="0.29" stroke="None">
<path d="
M 324.00 62.00 
C 324.00 61.96 325.00 62.00 325.00 62.00
C 340.67 62.00 356.33 62.00 372.00 62.00
C 371.75 61.73 372.00 61.00 372.00 61.00
C 371.00 61.03 370.00 61.00 369.00 61.00
C 362.55 61.00 352.05 60.01 346.00 61.00 C 339.95 61.99 327.96 57.88 324.00 62.00 Z"/>
</g>
<g fill="#FCDFE2" fill-opacity="0.14" stroke="None">
<path d="
M 372.00 62.00 
C 372.96 62.00 374.05 61.87 375.00 62.00
C 388.95 63.93 403.95 73.57 405.00 89.00
C 405.01 89.06 406.00 89.00 406.00 89.00
C 403.33 72.23 389.43 60.53 372.00 61.00
C 372.00 61.00 371.75 61.73 372.00 62.00 Z"/>
</g>
<g fill="#EA4754" fill-opacity="0.82" stroke="None">
<path d="
M 615.00 80.00 
C 610.45 72.39 618.31 57.96 603.00 61.00
C 603.00 67.33 603.00 73.67 603.00 80.00
C 607.35 80.11 605.71 74.74 606.00 72.00
C 611.55 71.01 609.49 81.00 615.00 80.00
M 609.00 64.00 
C 611.51 65.55 611.45 67.49 609.00 69.00
C 603.67 72.30 603.63 60.68 609.00 64.00 Z"/>
</g>
<g fill="#ED5F6F" fill-opacity="0.68" stroke="None">
<path d="
M 324.00 187.00 
C 324.00 187.04 325.00 187.00 325.00 187.00
C 326.85 166.53 324.31 145.56 325.00 125.00 C 325.69 104.44 325.00 83.59 325.00 63.00
C 325.00 62.50 325.00 62.00 325.00 62.00
C 325.00 62.00 324.00 61.96 324.00 62.00
C 322.15 82.50 324.03 104.45 324.00 125.00 C 323.97 145.55 322.15 166.59 324.00 187.00 Z"/>
</g>
<g fill="#E93E53" fill-opacity="0.82" stroke="None">
<path d="
M 325.00 63.00 
C 341.41 64.48 359.39 62.14 375.00 62.00
C 374.05 61.87 372.96 62.00 372.00 62.00
C 356.33 62.00 340.67 62.00 325.00 62.00
C 325.00 62.00 325.00 62.50 325.00 63.00 Z"/>
</g>
<g fill="#E51930" fill-opacity="0.99" stroke="None">
<path d="
M 325.00 63.00 
C 325.00 83.59 325.69 104.44 325.00 125.00 C 324.31 145.56 326.85 166.53 325.00 187.00
C 344.13 187.00 363.94 188.51 383.00 187.00
C 397.44 185.85 413.94 174.57 415.00 159.00
C 415.33 154.18 415.38 148.81 415.00 144.00
C 414.11 132.81 407.09 124.52 397.00 120.00
C 393.54 118.45 394.44 118.85 398.00 115.00
C 401.92 109.55 404.53 104.84 405.00 98.00
C 405.20 95.09 405.20 91.91 405.00 89.00
C 403.95 73.57 388.95 63.93 375.00 62.00
C 359.39 62.14 341.41 64.48 325.00 63.00
M 368.00 85.00 
C 373.20 86.08 377.02 87.82 379.00 93.00
C 380.08 95.81 379.66 97.32 379.00 100.00
C 377.53 105.93 374.93 108.53 369.00 110.00
C 366.02 110.74 362.60 111.00 359.00 111.00
C 359.63 117.94 358.53 125.04 359.00 132.00
C 364.50 132.65 371.33 130.68 376.00 133.00
C 381.65 134.47 388.86 138.07 389.00 145.00
C 389.69 147.78 389.68 149.27 389.00 152.00
C 388.87 158.45 381.47 163.41 376.00 165.00
C 371.77 166.23 353.40 168.53 350.00 165.00
C 347.58 138.22 351.82 110.84 350.00 84.00
C 355.83 84.66 362.99 82.68 368.00 85.00 Z"/>
</g>
<g fill="#000000" fill-opacity="0.00" stroke="None">
<path d="
M 602.00 62.00 
C 595.47 64.16 595.09 76.99 602.00 79.00
C 601.44 72.63 601.09 67.83 602.00 62.00 Z"/>
</g>
<g fill="#ED6272" fill-opacity="0.67" stroke="None">
<path d="
M 609.00 69.00 
C 608.02 69.12 606.99 68.90 606.00 69.00
C 605.84 66.65 605.45 63.08 609.00 64.00
C 603.63 60.68 603.67 72.30 609.00 69.00 Z"/>
</g>
<g fill="#B5A0A3" fill-opacity="0.11" stroke="None">
<path d="
M 609.00 69.00 
C 611.45 67.49 611.51 65.55 609.00 64.00
C 605.45 63.08 605.84 66.65 606.00 69.00
C 606.99 68.90 608.02 69.12 609.00 69.00 Z"/>
</g>
<g fill="#000000" fill-opacity="0.00" stroke="None">
<path d="
M 608.00 73.00 
C 606.66 78.23 603.31 84.41 612.00 82.00
C 610.22 79.13 609.79 75.87 608.00 73.00 Z"/>
</g>
<g fill="#ED6474" fill-opacity="0.66" stroke="None">
<path d="
M 42.00 84.00 
C 47.30 84.36 52.71 83.52 58.00 84.00
C 54.78 83.33 44.96 81.04 42.00 84.00 Z"/>
</g>
<g fill="#E72E43" fill-opacity="0.89" stroke="None">
<path d="
M 17.00 186.00 
C 17.00 186.00 16.96 187.00 17.00 187.00
C 25.18 187.74 33.78 187.00 42.00 187.00
C 38.92 152.95 44.31 118.12 42.00 84.00
C 39.67 117.01 41.67 152.17 41.00 186.00
C 33.05 186.54 24.94 185.28 17.00 186.00 Z"/>
</g>
<g fill="#FBC9CE" fill-opacity="0.24" stroke="None">
<path d="
M 42.00 187.00 
C 42.00 187.00 43.00 187.04 43.00 187.00
C 43.61 180.26 42.61 172.69 43.00 166.00 C 43.39 159.31 42.60 152.52 43.00 146.00 C 43.40 139.48 42.31 132.24 43.00 126.00 C 43.69 119.76 41.56 111.69 43.00 106.00 C 44.44 100.31 39.86 90.49 43.00 86.00
C 45.13 82.95 57.36 85.23 60.00 86.00
C 61.77 86.51 64.45 87.17 66.00 88.00
C 67.40 88.75 71.25 91.61 72.00 93.00
C 69.83 86.88 63.69 85.18 58.00 84.00
C 52.71 83.52 47.30 84.36 42.00 84.00
C 44.31 118.12 38.92 152.95 42.00 187.00 Z"/>
</g>
<g fill="#FAC8CC" fill-opacity="0.24" stroke="None">
<path d="
M 350.00 165.00 
C 350.00 165.04 351.00 165.00 351.00 165.00
C 351.25 164.75 351.00 164.00 351.00 164.00
C 351.00 157.74 350.76 151.24 351.00 145.00 C 351.24 138.76 350.40 131.05 351.00 125.00 C 351.60 118.95 349.55 111.50 351.00 106.00 C 352.45 100.50 347.92 90.40 351.00 86.00
C 352.73 83.53 364.86 84.71 368.00 85.00
C 362.99 82.68 355.83 84.66 350.00 84.00
C 351.82 110.84 347.58 138.22 350.00 165.00 Z"/>
</g>
<g fill="#FFFFFF" fill-opacity="0.01" stroke="None">
<path d="
M 43.00 86.00 
C 48.56 86.66 54.47 85.12 60.00 86.00
C 57.36 85.23 45.13 82.95 43.00 86.00 Z"/>
</g>
<g fill="#FDECEE" fill-opacity="0.08" stroke="None">
<path d="
M 351.00 86.00 
C 360.00 87.29 374.36 82.13 377.92 94.08 C 381.49 106.02 366.85 112.08 357.00 109.00
C 357.63 117.69 352.93 136.88 365.00 135.00 C 377.07 133.12 384.53 136.08 389.00 146.00
C 389.00 145.50 389.00 145.00 389.00 145.00
C 388.86 138.07 381.65 134.47 376.00 133.00
C 370.10 132.21 363.92 133.59 358.00 133.00
C 358.00 125.67 358.00 118.33 358.00 111.00
C 360.21 108.70 365.87 110.39 369.00 110.00
C 374.93 108.53 377.53 105.93 379.00 100.00
C 379.23 98.03 379.42 94.93 379.00 93.00
C 377.02 87.82 373.20 86.08 368.00 85.00
C 364.86 84.71 352.73 83.53 351.00 86.00 Z"/>
</g>
<g fill="#000000" fill-opacity="0.00" stroke="None">
<path d="
M 351.00 164.00 
C 366.80 162.57 381.93 167.61 389.00 151.00
C 389.00 149.33 389.00 147.67 389.00 146.00
C 384.53 136.08 377.07 133.12 365.00 135.00 C 352.93 136.88 357.63 117.69 357.00 109.00
C 366.85 112.08 381.49 106.02 377.92 94.08 C 374.36 82.13 360.00 87.29 351.00 86.00
C 347.92 90.40 352.45 100.50 351.00 106.00 C 349.55 111.50 351.60 118.95 351.00 125.00 C 350.40 131.05 351.24 138.76 351.00 145.00 C 350.76 151.24 351.00 157.74 351.00 164.00 Z"/>
</g>
<g fill="#F9B9C0" fill-opacity="0.30" stroke="None">
<path d="
M 405.00 98.00 
C 405.01 97.94 406.00 98.00 406.00 98.00
C 406.47 94.47 406.57 92.58 406.00 89.00
C 406.00 89.00 405.01 89.06 405.00 89.00
C 405.20 91.91 405.20 95.09 405.00 98.00 Z"/>
</g>
<g fill="#EC5768" fill-opacity="0.72" stroke="None">
<path d="
M 379.00 100.00 
C 379.66 97.32 380.08 95.81 379.00 93.00
C 379.42 94.93 379.23 98.03 379.00 100.00 Z"/>
</g>
<g fill="#FDE2E4" fill-opacity="0.13" stroke="None">
<path d="
M 398.00 115.00 
C 396.11 117.62 394.72 117.72 397.00 120.00
C 407.09 124.52 414.11 132.81 415.00 144.00
C 415.04 144.13 416.00 144.00 416.00 144.00
C 416.24 132.51 407.54 122.39 397.00 119.00
C 402.97 113.26 404.96 105.80 406.00 98.00
C 406.00 98.00 405.01 97.94 405.00 98.00
C 404.53 104.84 401.92 109.55 398.00 115.00 Z"/>
</g>
<g fill="#FFFFFF" fill-opacity="0.01" stroke="None">
<path d="
M 143.00 106.00 
C 145.99 105.94 149.01 105.94 152.00 106.00
C 149.09 105.65 145.97 105.64 143.00 106.00 Z"/>
</g>
<g fill="#FCDBDF" fill-opacity="0.15" stroke="None">
<path d="
M 105.00 143.00 
C 105.00 142.96 106.00 143.00 106.00 143.00
C 107.22 125.11 121.70 108.61 140.00 107.00
C 144.76 106.58 150.23 106.62 155.00 107.00
C 173.14 108.44 186.05 124.42 187.00 142.00
C 187.00 142.01 188.00 142.00 188.00 142.00
C 186.90 121.78 172.58 106.41 152.00 106.00
C 149.01 105.94 145.99 105.94 143.00 106.00
C 122.01 106.42 106.40 122.38 105.00 143.00 Z"/>
</g>
<g fill="#E51C32" fill-opacity="0.98" stroke="None">
<path d="
M 106.00 143.00 
C 105.76 146.57 105.81 150.43 106.00 154.00
C 107.07 173.65 123.31 189.00 143.00 189.00
C 146.99 189.00 151.01 189.15 155.00 189.00
C 166.31 188.57 172.02 184.38 180.25 176.25 C 188.48 168.12 171.90 164.31 165.00 161.00
C 161.95 165.08 158.06 169.14 153.00 170.00
C 150.20 170.79 148.73 170.68 146.00 170.00
C 140.69 168.68 132.58 164.54 132.00 158.00
C 131.69 156.80 130.22 154.85 131.00 153.00
C 149.67 153.00 168.33 153.00 187.00 153.00
C 187.00 149.35 187.20 145.64 187.00 142.00
C 186.05 124.42 173.14 108.44 155.00 107.00
C 150.92 107.07 143.99 107.04 140.00 107.00
C 121.70 108.61 107.22 125.11 106.00 143.00
M 162.00 136.00 
C 166.75 138.33 156.47 140.75 154.00 140.00 C 151.53 139.25 142.48 139.25 140.00 140.00 C 137.52 140.75 127.21 138.35 132.00 136.00
C 136.19 120.74 157.83 120.79 162.00 136.00 Z"/>
</g>
<g fill="#E94255" fill-opacity="0.81" stroke="None">
<path d="
M 155.00 107.00 
C 150.23 106.62 144.76 106.58 140.00 107.00
C 143.99 107.04 150.92 107.07 155.00 107.00 Z"/>
</g>
<g fill="#F3919B" fill-opacity="0.47" stroke="None">
<path d="
M 358.00 111.00 
C 358.00 110.96 359.00 111.00 359.00 111.00
C 362.60 111.00 366.02 110.74 369.00 110.00
C 365.87 110.39 360.21 108.70 358.00 111.00 Z"/>
</g>
<g fill="#FBDADD" fill-opacity="0.16" stroke="None">
<path d="
M 422.00 112.00 
C 421.48 116.26 422.27 120.72 422.00 125.00
C 420.79 143.96 415.52 173.45 437.75 187.25 C 459.99 201.04 500.33 192.70 502.00 162.00
C 502.00 162.04 501.00 162.00 501.00 162.00
C 499.15 189.21 464.88 199.32 440.92 187.08 C 416.97 174.83 422.99 135.07 423.00 111.00
C 423.00 110.50 423.00 110.00 423.00 110.00
C 422.20 109.14 421.98 112.19 422.00 112.00 Z"/>
</g>
<g fill="#E7B0B5" fill-opacity="0.33" stroke="None">
<path d="
M 423.00 111.00 
C 430.85 111.71 439.11 111.00 447.00 111.00
C 447.50 111.00 448.00 111.00 448.00 111.00
C 448.00 110.50 448.00 110.00 448.00 110.00
C 440.12 109.29 430.88 109.29 423.00 110.00
C 423.00 110.00 423.00 110.50 423.00 111.00 Z"/>
</g>
<g fill="#FDE8E9" fill-opacity="0.11" stroke="None">
<path d="
M 448.00 111.00 
C 448.00 125.41 446.53 140.68 448.00 155.00
C 449.47 161.64 452.05 166.80 459.00 169.00
C 460.94 169.32 464.07 169.34 466.00 169.00
C 472.13 167.01 474.47 162.92 476.00 157.00
C 477.97 142.26 475.99 125.89 476.00 111.00
C 476.00 110.50 476.00 110.00 476.00 110.00
C 471.57 114.26 476.54 126.71 475.00 133.00 C 473.46 139.29 476.17 150.41 474.93 156.93 C 473.68 163.44 468.77 168.31 462.01 167.99 C 455.24 167.68 450.99 163.06 449.33 156.67 C 447.67 150.28 450.57 139.26 449.00 133.00 C 447.43 126.74 452.46 114.30 448.00 110.00
C 448.00 110.00 448.00 110.50 448.00 111.00 Z"/>
</g>
<g fill="#F4C0C5" fill-opacity="0.27" stroke="None">
<path d="
M 476.00 111.00 
C 479.69 111.33 485.54 110.37 489.00 111.00 C 492.46 111.63 499.03 109.18 501.00 112.00
C 503.52 115.60 500.05 123.29 501.00 128.00 C 501.95 132.71 500.78 139.85 501.00 145.00 C 501.22 150.15 501.36 156.76 501.00 162.00
C 501.00 162.00 502.00 162.04 502.00 162.00
C 502.00 144.67 502.00 127.33 502.00 110.00
C 493.39 110.58 484.60 109.22 476.00 110.00
C 476.00 110.00 476.00 110.50 476.00 111.00 Z"/>
</g>
<g fill="#ED6877" fill-opacity="0.64" stroke="None">
<path d="
M 376.00 133.00 
C 371.33 130.68 364.50 132.65 359.00 132.00
C 358.53 125.04 359.63 117.94 359.00 111.00
C 359.00 111.00 358.00 110.96 358.00 111.00
C 358.00 118.33 358.00 125.67 358.00 133.00
C 363.92 133.59 370.10 132.21 376.00 133.00 Z"/>
</g>
<g fill="#E51930" fill-opacity="0.99" stroke="None">
<path d="
M 501.00 162.00 
C 501.36 156.76 501.22 150.15 501.00 145.00 C 500.78 139.85 501.95 132.71 501.00 128.00 C 500.05 123.29 503.52 115.60 501.00 112.00
C 493.00 112.00 485.00 112.00 477.00 112.00
C 476.33 126.83 478.33 142.99 476.00 157.00
C 474.47 162.92 472.13 167.01 466.00 169.00
C 463.21 169.90 461.73 169.86 459.00 169.00
C 452.05 166.80 449.47 161.64 448.00 155.00
C 445.23 142.51 445.79 124.36 447.00 111.00
C 439.11 111.00 430.85 111.71 423.00 111.00
C 422.99 135.07 416.97 174.83 440.92 187.08 C 464.88 199.32 499.15 189.21 501.00 162.00 Z"/>
</g>
<g fill="#EC5366" fill-opacity="0.73" stroke="None">
<path d="
M 448.00 155.00 
C 446.53 140.68 448.00 125.41 448.00 111.00
C 448.00 111.00 447.50 111.00 447.00 111.00
C 445.79 124.36 445.23 142.51 448.00 155.00 Z"/>
</g>
<g fill="#EA4457" fill-opacity="0.80" stroke="None">
<path d="
M 476.00 157.00 
C 478.33 142.99 476.33 126.83 477.00 112.00
C 485.00 112.00 493.00 112.00 501.00 112.00
C 499.03 109.18 492.46 111.63 489.00 111.00 C 485.54 110.37 479.69 111.33 476.00 111.00
C 475.99 125.89 477.97 142.26 476.00 157.00 Z"/>
</g>
<g fill="#FFFFFF" fill-opacity="0.00" stroke="None">
<path d="
M 422.00 125.00 
C 422.27 120.72 421.48 116.26 422.00 112.00
C 420.27 116.24 421.81 120.90 422.00 125.00 Z"/>
</g>
<g fill="#EC5565" fill-opacity="0.73" stroke="None">
<path d="
M 397.00 120.00 
C 394.72 117.72 396.11 117.62 398.00 115.00
C 394.44 118.85 393.54 118.45 397.00 120.00 Z"/>
</g>
<g fill="#FBDADE" fill-opacity="0.16" stroke="None">
<path d="
M 132.00 136.00 
C 131.87 136.46 131.77 137.84 132.00 138.00
C 132.34 138.23 133.00 138.00 133.00 138.00
C 138.69 122.84 155.30 122.83 161.00 138.00
C 161.50 138.00 162.00 138.00 162.00 138.00
C 162.23 137.84 162.13 136.47 162.00 136.00
C 157.83 120.79 136.19 120.74 132.00 136.00 Z"/>
</g>
<g fill="#000000" fill-opacity="0.00" stroke="None">
<path d="
M 133.00 138.00 
C 142.33 138.00 151.67 138.00 161.00 138.00
C 155.30 122.83 138.69 122.84 133.00 138.00 Z"/>
</g>
<g fill="#FCE1E4" fill-opacity="0.13" stroke="None">
<path d="
M 223.00 143.00 
C 222.64 145.73 222.72 149.26 223.00 152.00
C 225.00 161.01 232.71 168.50 241.98 166.98 C 251.24 165.45 259.38 160.45 259.00 151.00
C 258.98 150.50 259.00 149.50 259.00 149.00
C 256.51 154.70 253.92 162.55 246.77 164.77 C 239.62 167.00 230.03 165.93 226.25 158.75 C 222.47 151.58 222.03 143.15 227.25 136.25 C 232.48 129.36 238.55 129.18 247.07 130.93 C 255.59 132.67 255.47 143.23 259.00 148.00
C 259.00 146.67 259.05 145.33 259.00 144.00
C 258.19 122.62 227.82 124.40 223.00 143.00 Z"/>
</g>
<g fill="#000000" fill-opacity="0.00" stroke="None">
<path d="
M 259.00 149.00 
C 259.00 148.50 259.00 148.00 259.00 148.00
C 255.47 143.23 255.59 132.67 247.07 130.93 C 238.55 129.18 232.48 129.36 227.25 136.25 C 222.03 143.15 222.47 151.58 226.25 158.75 C 230.03 165.93 239.62 167.00 246.77 164.77 C 253.92 162.55 256.51 154.70 259.00 149.00 Z"/>
</g>
<g fill="#E73449" fill-opacity="0.87" stroke="None">
<path d="
M 162.00 136.00 
C 162.13 136.47 162.23 137.84 162.00 138.00
C 159.58 140.52 150.61 138.99 147.00 139.00 C 143.39 139.01 134.39 140.49 132.00 138.00
C 131.77 137.84 131.87 136.46 132.00 136.00
C 127.21 138.35 137.52 140.75 140.00 140.00 C 142.48 139.25 151.53 139.25 154.00 140.00 C 156.47 140.75 166.75 138.33 162.00 136.00 Z"/>
</g>
<g fill="#E4A9B2" fill-opacity="0.36" stroke="None">
<path d="
M 162.00 138.00 
C 162.00 138.00 161.50 138.00 161.00 138.00
C 151.67 138.00 142.33 138.00 133.00 138.00
C 133.00 138.00 132.34 138.23 132.00 138.00
C 134.39 140.49 143.39 139.01 147.00 139.00 C 150.61 138.99 159.58 140.52 162.00 138.00 Z"/>
</g>
<g fill="#F1828F" fill-opacity="0.53" stroke="None">
<path d="
M 196.00 142.00 
C 196.00 145.33 196.00 148.67 196.00 152.00
C 196.00 152.50 196.03 153.50 196.00 154.00
C 196.00 154.00 197.00 154.02 197.00 154.00
C 196.81 149.09 196.67 143.90 197.00 139.00
C 197.00 139.00 196.27 138.75 196.00 139.00
C 195.97 140.00 196.00 141.00 196.00 142.00 Z"/>
</g>
<g fill="#F4A2AC" fill-opacity="0.39" stroke="None">
<path d="
M 187.00 153.00 
C 187.00 153.50 187.00 154.00 187.00 154.00
C 187.50 154.00 188.00 154.00 188.00 154.00
C 188.35 150.15 188.21 145.86 188.00 142.00
C 188.00 142.00 187.00 142.01 187.00 142.00
C 187.20 145.64 187.00 149.35 187.00 153.00 Z"/>
</g>
<g fill="#FFFFFF" fill-opacity="0.03" stroke="None">
<path d="
M 196.00 152.00 
C 196.00 148.67 196.00 145.33 196.00 142.00
C 195.28 145.30 194.54 148.57 196.00 152.00 Z"/>
</g>
<g fill="#F49FA9" fill-opacity="0.41" stroke="None">
<path d="
M 105.00 154.00 
C 105.00 154.05 106.00 154.00 106.00 154.00
C 105.81 150.43 105.76 146.57 106.00 143.00
C 106.00 143.00 105.00 142.96 105.00 143.00
C 104.76 146.59 104.86 150.40 105.00 154.00 Z"/>
</g>
<g fill="#EC5E6D" fill-opacity="0.69" stroke="None">
<path d="
M 223.00 152.00 
C 222.72 149.26 222.64 145.73 223.00 143.00
C 222.16 146.25 222.27 148.73 223.00 152.00 Z"/>
</g>
<g fill="#F5A6B1" fill-opacity="0.37" stroke="None">
<path d="
M 259.00 148.00 
C 259.00 148.00 259.00 148.50 259.00 149.00
C 259.00 149.50 258.98 150.50 259.00 151.00
C 259.55 148.34 259.56 146.71 259.00 144.00
C 259.05 145.33 259.00 146.67 259.00 148.00 Z"/>
</g>
<g fill="#F07C89" fill-opacity="0.56" stroke="None">
<path d="
M 415.00 159.00 
C 415.00 159.00 415.75 159.25 416.00 159.00
C 416.00 159.00 416.00 158.50 416.00 158.00
C 416.00 154.00 416.00 150.00 416.00 146.00
C 416.00 145.50 415.98 144.50 416.00 144.00
C 416.00 144.00 415.04 144.13 415.00 144.00
C 415.38 148.81 415.33 154.18 415.00 159.00 Z"/>
</g>
<g fill="#F5A7B0" fill-opacity="0.37" stroke="None">
<path d="
M 389.00 146.00 
C 389.00 147.67 389.00 149.33 389.00 151.00
C 389.00 151.50 389.00 152.00 389.00 152.00
C 389.68 149.27 389.69 147.78 389.00 145.00
C 389.00 145.00 389.00 145.50 389.00 146.00 Z"/>
</g>
<g fill="#FFF6F8" fill-opacity="0.04" stroke="None">
<path d="
M 416.00 158.00 
C 418.05 155.22 417.24 148.91 416.00 146.00
C 416.00 150.00 416.00 154.00 416.00 158.00 Z"/>
</g>
<g fill="#FDE6E8" fill-opacity="0.09" stroke="None">
<path d="
M 351.00 164.00 
C 351.00 164.00 351.25 164.75 351.00 165.00
C 358.99 165.00 368.12 166.25 376.00 165.00
C 381.47 163.41 388.87 158.45 389.00 152.00
C 389.00 152.00 389.00 151.50 389.00 151.00
C 381.93 167.61 366.80 162.57 351.00 164.00 Z"/>
</g>
<g fill="#F17A88" fill-opacity="0.56" stroke="None">
<path d="
M 132.00 158.00 
C 131.96 157.50 132.00 156.50 132.00 156.00
C 132.00 156.00 131.75 155.26 132.00 155.00
C 135.44 151.45 143.71 154.85 149.00 154.00 C 154.29 153.15 162.21 154.32 168.00 154.00 C 173.79 153.68 181.08 154.00 187.00 154.00
C 187.00 154.00 187.00 153.50 187.00 153.00
C 168.33 153.00 149.67 153.00 131.00 153.00
C 130.22 154.85 131.69 156.80 132.00 158.00 Z"/>
</g>
<g fill="#FCDEE1" fill-opacity="0.15" stroke="None">
<path d="
M 132.00 156.00 
C 132.00 156.50 131.96 157.50 132.00 158.00
C 132.58 164.54 140.69 168.68 146.00 170.00
C 148.09 170.24 150.92 170.30 153.00 170.00
C 158.06 169.14 161.95 165.08 165.00 161.00
C 171.90 164.31 188.48 168.12 180.25 176.25 C 172.02 184.38 166.31 188.57 155.00 189.00
C 151.09 189.56 146.80 189.37 143.00 189.00
C 123.31 189.00 107.07 173.65 106.00 154.00
C 106.00 154.00 105.00 154.05 105.00 154.00
C 105.32 165.32 110.36 176.62 119.77 183.23 C 129.18 189.84 142.06 193.36 153.93 191.93 C 165.80 190.49 174.27 186.13 182.70 176.70 C 191.12 167.26 171.44 162.70 164.00 159.00
C 155.71 175.69 138.66 168.74 132.00 156.00 Z"/>
</g>
<g fill="#EBEAEA" fill-opacity="0.10" stroke="None">
<path d="
M 132.00 155.00 
C 137.93 154.46 145.20 155.60 151.00 155.00 C 156.80 154.40 164.68 156.06 170.00 155.00 C 175.32 153.94 184.44 157.70 188.00 154.00
C 188.00 154.00 187.50 154.00 187.00 154.00
C 181.08 154.00 173.79 153.68 168.00 154.00 C 162.21 154.32 154.29 153.15 149.00 154.00 C 143.71 154.85 135.44 151.45 132.00 155.00 Z"/>
</g>
<g fill="#F17E8C" fill-opacity="0.55" stroke="None">
<path d="
M 376.00 165.00 
C 368.12 166.25 358.99 165.00 351.00 165.00
C 351.00 165.00 350.00 165.04 350.00 165.00
C 353.40 168.53 371.77 166.23 376.00 165.00 Z"/>
</g>
<g fill="#EC5F70" fill-opacity="0.68" stroke="None">
<path d="
M 466.00 169.00 
C 464.07 169.34 460.94 169.32 459.00 169.00
C 461.73 169.86 463.21 169.90 466.00 169.00 Z"/>
</g>
<g fill="#F18692" fill-opacity="0.51" stroke="None">
<path d="
M 153.00 170.00 
C 150.92 170.30 148.09 170.24 146.00 170.00
C 148.73 170.68 150.20 170.79 153.00 170.00 Z"/>
</g>
<g fill="#E94255" fill-opacity="0.81" stroke="None">
<path d="
M 259.00 187.00 
C 259.00 187.00 259.50 187.00 260.00 187.00
C 260.25 184.22 260.53 180.05 259.00 178.00
C 259.20 180.98 258.73 184.02 259.00 187.00 Z"/>
</g>
<g fill="#F5A5AD" fill-opacity="0.38" stroke="None">
<path d="
M 383.00 187.00 
C 363.94 188.51 344.13 187.00 325.00 187.00
C 325.00 187.00 324.00 187.04 324.00 187.00
C 327.75 190.90 338.43 186.81 344.00 188.00 C 349.57 189.19 358.02 187.40 364.00 188.00 C 369.98 188.60 377.66 188.03 383.00 187.00 Z"/>
</g>
<g fill="#EEEDED" fill-opacity="0.05" stroke="None">
<path d="
M 558.00 188.00 
C 558.00 188.00 557.96 189.00 558.00 189.00
C 563.00 189.45 580.10 190.93 582.00 187.00
C 580.14 189.63 573.00 187.67 570.00 188.00 C 567.00 188.33 561.15 188.45 558.00 188.00 Z"/>
</g>
<g fill="#F18693" fill-opacity="0.51" stroke="None">
<path d="
M 238.00 188.00 
C 234.44 188.19 230.55 188.28 227.00 188.00
C 230.72 188.72 234.25 188.61 238.00 188.00 Z"/>
</g>
<g fill="#EC5A6B" fill-opacity="0.71" stroke="None">
<path d="
M 155.00 189.00 
C 151.01 189.15 146.99 189.00 143.00 189.00
C 146.80 189.37 151.09 189.56 155.00 189.00 Z"/>
</g>
</svg>